<svg width="16" height="16" viewBox="0 0 16 16" fill="none" xmlns="http://www.w3.org/2000/svg">
<path d="M6.47357 3.52744C6.41108 3.58942 6.36148 3.66315 6.32764 3.74439C6.29379 3.82563 6.27637 3.91277 6.27637 4.00078C6.27637 4.08878 6.29379 4.17592 6.32764 4.25716C6.36148 4.3384 6.41108 4.41213 6.47357 4.47411L9.5269 7.52744C9.58938 7.58942 9.63898 7.66315 9.67283 7.74439C9.70667 7.82563 9.7241 7.91277 9.7241 8.00077C9.7241 8.08878 9.70667 8.17592 9.67283 8.25716C9.63898 8.3384 9.58938 8.41213 9.5269 8.47411L6.47357 11.5274C6.41108 11.5894 6.36148 11.6631 6.32764 11.7444C6.29379 11.8256 6.27637 11.9128 6.27637 12.0008C6.27637 12.0888 6.29379 12.1759 6.32764 12.2572C6.36148 12.3384 6.41108 12.4121 6.47357 12.4741C6.59847 12.5983 6.76744 12.668 6.94357 12.668C7.11969 12.668 7.28866 12.5983 7.41357 12.4741L10.4736 9.41411C10.8481 9.03911 11.0585 8.53078 11.0585 8.00077C11.0585 7.47077 10.8481 6.96244 10.4736 6.58744L7.41357 3.52744C7.28866 3.40328 7.11969 3.33358 6.94357 3.33358C6.76744 3.33358 6.59847 3.40328 6.47357 3.52744Z" fill="#0F1311"/>
</svg>
