<svg width="16" height="16" viewBox="0 0 16 16" fill="none" xmlns="http://www.w3.org/2000/svg">
<path d="M12.4733 6.47332C12.4113 6.41084 12.3376 6.36124 12.2563 6.32739C12.1751 6.29355 12.088 6.27612 12 6.27612C11.9119 6.27612 11.8248 6.29355 11.7436 6.32739C11.6623 6.36124 11.5886 6.41084 11.5266 6.47332L8.47329 9.52666C8.41132 9.58914 8.33758 9.63874 8.25634 9.67258C8.1751 9.70643 8.08797 9.72385 7.99996 9.72385C7.91195 9.72385 7.82481 9.70643 7.74357 9.67258C7.66233 9.63874 7.5886 9.58914 7.52662 9.52666L4.47329 6.47332C4.41132 6.41084 4.33758 6.36124 4.25634 6.32739C4.1751 6.29355 4.08797 6.27612 3.99996 6.27612C3.91195 6.27612 3.82481 6.29355 3.74357 6.32739C3.66233 6.36124 3.5886 6.41084 3.52663 6.47332C3.40246 6.59823 3.33276 6.7672 3.33276 6.94332C3.33276 7.11945 3.40246 7.28841 3.52663 7.41332L6.58662 10.4733C6.96163 10.8479 7.46996 11.0582 7.99996 11.0582C8.52996 11.0582 9.03829 10.8479 9.41329 10.4733L12.4733 7.41332C12.5975 7.28841 12.6672 7.11945 12.6672 6.94332C12.6672 6.7672 12.5975 6.59823 12.4733 6.47332Z" fill="#818195"/>
</svg>
