<svg width="14" height="14" viewBox="0 0 14 14" fill="none" xmlns="http://www.w3.org/2000/svg">
<path d="M4.78913 3.08577C4.73445 3.14 4.69105 3.20452 4.66144 3.2756C4.63182 3.34668 4.61658 3.42293 4.61658 3.49994C4.61658 3.57694 4.63182 3.65319 4.66144 3.72427C4.69105 3.79536 4.73445 3.85987 4.78913 3.9141L7.46079 6.58577C7.51547 6.64 7.55886 6.70451 7.58848 6.7756C7.61809 6.84668 7.63334 6.92293 7.63334 6.99994C7.63334 7.07694 7.61809 7.15319 7.58848 7.22427C7.55886 7.29536 7.51547 7.35987 7.46079 7.4141L4.78913 10.0858C4.73445 10.14 4.69105 10.2045 4.66144 10.2756C4.63182 10.3467 4.61658 10.4229 4.61658 10.4999C4.61658 10.577 4.63182 10.6532 4.66144 10.7243C4.69105 10.7954 4.73445 10.8599 4.78913 10.9141C4.89842 11.0228 5.04627 11.0837 5.20038 11.0837C5.35448 11.0837 5.50233 11.0228 5.61163 10.9141L8.28913 8.2366C8.61684 7.90848 8.80092 7.46369 8.80092 6.99994C8.80092 6.53618 8.61684 6.09139 8.28913 5.76327L5.61163 3.08577C5.50233 2.97712 5.35448 2.91614 5.20038 2.91614C5.04627 2.91614 4.89842 2.97712 4.78913 3.08577Z" fill="#818195"/>
</svg>
