<svg width="18" height="18" viewBox="0 0 18 18" fill="none" xmlns="http://www.w3.org/2000/svg">
<path d="M14.0331 7.2827C13.9634 7.2124 13.8804 7.15661 13.789 7.11853C13.6976 7.08046 13.5996 7.06085 13.5006 7.06085C13.4016 7.06085 13.3036 7.08046 13.2122 7.11853C13.1208 7.15661 13.0378 7.2124 12.9681 7.2827L9.53309 10.7177C9.46337 10.788 9.38042 10.8438 9.28903 10.8819C9.19763 10.9199 9.0996 10.9395 9.00059 10.9395C8.90158 10.9395 8.80355 10.9199 8.71216 10.8819C8.62077 10.8438 8.53782 10.788 8.46809 10.7177L5.03309 7.2827C4.96337 7.2124 4.88042 7.15661 4.78903 7.11853C4.69763 7.08046 4.5996 7.06085 4.50059 7.06085C4.40159 7.06085 4.30356 7.08046 4.21216 7.11853C4.12077 7.15661 4.03782 7.2124 3.96809 7.2827C3.82841 7.42322 3.75 7.61331 3.75 7.81145C3.75 8.00959 3.82841 8.19968 3.96809 8.3402L7.41059 11.7827C7.83247 12.2041 8.40434 12.4407 9.00059 12.4407C9.59684 12.4407 10.1687 12.2041 10.5906 11.7827L14.0331 8.3402C14.1728 8.19968 14.2512 8.00959 14.2512 7.81145C14.2512 7.61331 14.1728 7.42322 14.0331 7.2827Z" fill="#0D0E10"/>
</svg>
