<svg width="16" height="17" viewBox="0 0 16 17" fill="none" xmlns="http://www.w3.org/2000/svg">
<path d="M12.4733 5.97332C12.4113 5.91084 12.3376 5.86124 12.2563 5.82739C12.1751 5.79355 12.088 5.77612 12 5.77612C11.9119 5.77612 11.8248 5.79355 11.7436 5.82739C11.6623 5.86124 11.5886 5.91084 11.5266 5.97332L8.47329 9.02666C8.41132 9.08914 8.33758 9.13874 8.25634 9.17258C8.1751 9.20643 8.08797 9.22385 7.99996 9.22385C7.91195 9.22385 7.82481 9.20643 7.74357 9.17258C7.66233 9.13874 7.5886 9.08914 7.52662 9.02666L4.47329 5.97332C4.41132 5.91084 4.33758 5.86124 4.25634 5.82739C4.1751 5.79355 4.08797 5.77612 3.99996 5.77612C3.91195 5.77612 3.82481 5.79355 3.74357 5.82739C3.66233 5.86124 3.5886 5.91084 3.52663 5.97332C3.40246 6.09823 3.33276 6.2672 3.33276 6.44332C3.33276 6.61945 3.40246 6.78841 3.52663 6.91332L6.58662 9.97332C6.96163 10.3479 7.46996 10.5582 7.99996 10.5582C8.52996 10.5582 9.03829 10.3479 9.41329 9.97332L12.4733 6.91332C12.5975 6.78841 12.6672 6.61945 12.6672 6.44332C12.6672 6.2672 12.5975 6.09823 12.4733 5.97332Z" fill="white"/>
</svg>
