<svg width="90" height="36" viewBox="0 0 90 36" fill="none" xmlns="http://www.w3.org/2000/svg">
<path fill-rule="evenodd" clip-rule="evenodd" d="M26.4391 8.75121C25.7535 9.56812 24.6565 10.2124 23.5595 10.1204C23.4224 9.01584 23.9594 7.84226 24.5879 7.1174C25.2735 6.27748 26.4734 5.67919 27.4447 5.63316C27.559 6.78373 27.1133 7.91129 26.4391 8.75121ZM27.4332 10.339C26.4667 10.283 25.5849 10.6317 24.8726 10.9133C24.4143 11.0945 24.0261 11.248 23.7308 11.248C23.3994 11.248 22.9952 11.0863 22.5414 10.9048C21.9468 10.6669 21.267 10.395 20.5541 10.408C18.92 10.4311 17.4002 11.363 16.566 12.8473C14.852 15.8157 16.1204 20.2109 17.7773 22.6271C18.5886 23.8237 19.5599 25.1353 20.8398 25.0893C21.4028 25.0679 21.8078 24.8949 22.227 24.7158C22.7096 24.5096 23.2109 24.2954 23.9936 24.2954C24.7493 24.2954 25.2286 24.504 25.6888 24.7043C26.1264 24.8947 26.5466 25.0775 27.1704 25.0663C28.4959 25.0433 29.3301 23.8697 30.1414 22.6731C31.017 21.3888 31.4017 20.1355 31.4601 19.9453L31.4669 19.9233C31.4655 19.9218 31.4547 19.9169 31.4356 19.9081C31.143 19.7731 28.9059 18.742 28.8844 15.9768C28.8629 13.6558 30.6588 12.4799 30.9415 12.2948C30.9587 12.2835 30.9703 12.2759 30.9756 12.272C29.8329 10.5691 28.0502 10.385 27.4332 10.339ZM36.6092 24.9398V7.00241H43.294C46.745 7.00241 49.1561 9.39559 49.1561 12.8933C49.1561 16.3911 46.6993 18.8073 43.2026 18.8073H39.3745V24.9398H36.6092ZM39.3743 9.34946H42.5625C44.9622 9.34946 46.3334 10.6381 46.3334 12.9047C46.3334 15.1713 44.9622 16.4715 42.5511 16.4715H39.3743V9.34946ZM58.2865 22.7881C57.5551 24.1918 55.9439 25.0777 54.207 25.0777C51.6359 25.0777 49.8418 23.5359 49.8418 21.2118C49.8418 18.9106 51.5788 17.5875 54.7898 17.3919L58.2407 17.1848V16.1953C58.2407 14.7341 57.2923 13.9402 55.6011 13.9402C54.207 13.9402 53.19 14.6651 52.9843 15.7696H50.4932C50.5732 13.4454 52.7443 11.7541 55.6811 11.7541C58.8464 11.7541 60.9033 13.4224 60.9033 16.0112V24.9396H58.3436V22.7881H58.2865ZM54.9496 22.9492C53.4755 22.9492 52.5385 22.2359 52.5385 21.1428C52.5385 20.0153 53.4412 19.3594 55.1667 19.2559L58.2406 19.0603V20.0728C58.2406 21.7526 56.8236 22.9492 54.9496 22.9492ZM69.3935 25.6417C68.2851 28.7827 67.0167 29.8182 64.3199 29.8182C64.1142 29.8182 63.4286 29.7952 63.2686 29.7492V27.5976C63.44 27.6206 63.8628 27.6436 64.0799 27.6436C65.3026 27.6436 65.9882 27.1259 66.411 25.7797L66.6624 24.9858L61.9773 11.9269H64.8684L68.1251 22.5236H68.1822L71.4389 11.9269H74.25L69.3935 25.6417Z" fill="black"/>
</svg>
