<svg width="18" height="18" viewBox="0 0 18 18" fill="none" xmlns="http://www.w3.org/2000/svg">
<g clip-path="url(#clip0_460_8020)">
<path d="M14.2968 2.9494L6.87214 2.9494C6.67551 2.95282 6.4881 3.03333 6.35026 3.17359C6.21241 3.31385 6.13517 3.50264 6.13517 3.69929C6.13517 3.89594 6.21241 4.08473 6.35026 4.22499C6.4881 4.36525 6.67552 4.44576 6.87214 4.44918L12.4862 4.44918L3.15983 13.7756C3.01918 13.9162 2.94016 14.107 2.94016 14.3059C2.94016 14.5048 3.01918 14.6956 3.15983 14.8362C3.30048 14.9769 3.49125 15.0559 3.69016 15.0559C3.88907 15.0559 4.07984 14.9769 4.22049 14.8362L13.5469 5.50984L13.5469 11.1239C13.5451 11.2235 13.5633 11.3224 13.6002 11.4149C13.6371 11.5074 13.692 11.5916 13.7618 11.6626C13.8316 11.7337 13.9149 11.7901 14.0067 11.8286C14.0986 11.8671 14.1972 11.8869 14.2968 11.8869C14.3963 11.8869 14.4949 11.8671 14.5868 11.8286C14.6786 11.7901 14.7619 11.7337 14.8317 11.6626C14.9015 11.5916 14.9564 11.5074 14.9934 11.4149C15.0303 11.3224 15.0484 11.2235 15.0466 11.1239L15.0466 3.69929C15.0466 3.50042 14.9676 3.3097 14.827 3.16907C14.6864 3.02845 14.4956 2.94943 14.2968 2.9494Z" fill="#EF4A4A"/>
</g>
<defs>
<clipPath id="clip0_460_8020">
<rect width="18" height="18" fill="white"/>
</clipPath>
</defs>
</svg>
