<svg width="24" height="24" viewBox="0 0 24 24" fill="none" xmlns="http://www.w3.org/2000/svg">
<path d="M17.3585 14.7602C16.7204 14.623 16.2156 14.9193 15.7686 15.178C15.3108 15.4446 14.4404 16.1507 13.9414 15.9701C11.387 14.9183 8.98453 12.6825 7.94451 10.1178C7.76122 9.60819 8.46403 8.73223 8.72869 8.26907C8.98551 7.82072 9.27565 7.31114 9.14332 6.66824C9.02373 6.09052 7.47695 4.12232 6.93 3.58411C6.56928 3.22859 6.19974 3.03305 5.8204 3.00144C4.39418 2.94022 2.80134 4.84324 2.52198 5.2985C1.82211 6.26927 1.82603 7.561 2.53374 9.12725C4.23931 13.3343 10.6901 19.6832 14.9128 21.4529C15.6921 21.8173 16.4047 22 17.0448 22C17.6711 22 18.2289 21.8252 18.7083 21.4786C19.0699 21.2702 21.051 19.5983 20.999 18.1338C20.9676 17.7604 20.7726 17.3872 20.4217 17.0257C19.8874 16.4737 17.9319 14.8808 17.3585 14.7602Z" fill="#EF4A4A"/>
</svg>
