<svg width="14" height="14" viewBox="0 0 14 14" fill="none" xmlns="http://www.w3.org/2000/svg">
<g clip-path="url(#clip0_664_18337)">
<path d="M9.1849 10.6481C9.1849 9.77313 8.58348 8.5773 7.49323 7.28055C7.43289 7.20856 7.35732 7.15087 7.27198 7.11163C7.18664 7.07239 7.09365 7.05258 6.99973 7.05363C6.90511 7.0532 6.81154 7.07338 6.72551 7.11276C6.63948 7.15215 6.56306 7.2098 6.50156 7.28171C5.30806 8.67996 4.72473 9.91663 4.82565 10.8645C4.86536 11.1643 4.96813 11.4521 5.1272 11.7092C5.28627 11.9663 5.49801 12.1868 5.74848 12.3561C6.10279 12.6467 6.54194 12.8141 6.99973 12.8333C7.57908 12.8327 8.13453 12.6023 8.54419 12.1926C8.95386 11.7829 9.18428 11.2275 9.1849 10.6481Z" fill="#EF4A4A"/>
<path d="M9.69999 1.6917C9.24149 1.30203 8.76024 0.893695 8.27024 0.448029C8.08444 0.279347 7.86402 0.153313 7.62441 0.0787482C7.38479 0.00418387 7.13178 -0.0171084 6.88307 0.0163619C6.64203 0.0482856 6.41094 0.132748 6.20612 0.263783C6.0013 0.394818 5.82776 0.569229 5.69774 0.774695C5.00263 1.9366 4.51101 3.20865 4.24407 4.53603C4.13964 4.3848 4.04681 4.22587 3.96641 4.06061C3.88384 3.88665 3.7595 3.73584 3.60448 3.62161C3.44946 3.50739 3.26857 3.43331 3.07796 3.40599C2.88735 3.37867 2.69294 3.39896 2.51208 3.46503C2.33121 3.53111 2.16951 3.64093 2.04141 3.7847C1.06334 4.78476 0.52116 6.13149 0.53349 7.53028C0.519964 8.95912 0.984657 10.3514 1.85364 11.4857C2.72262 12.62 3.94598 13.4311 5.32907 13.79C5.85864 13.9233 6.40234 13.9922 6.94841 13.9954C6.25059 13.9694 5.57986 13.7185 5.03624 13.2802C4.65965 13.0151 4.34299 12.6739 4.10683 12.2785C3.87067 11.8832 3.72027 11.4426 3.66541 10.9854C3.53124 9.6962 4.18632 8.19528 5.61257 6.52461C5.78367 6.32404 5.99638 6.16312 6.23592 6.05302C6.47547 5.94291 6.73611 5.88627 6.99974 5.88703H7.00557C7.26844 5.88724 7.52809 5.94476 7.76645 6.05558C8.00482 6.1664 8.21615 6.32786 8.38574 6.5287C9.28291 7.59445 10.3533 9.17411 10.3533 10.6476C10.352 11.4968 10.0287 12.3138 9.44845 12.9339C8.86826 13.5539 8.07445 13.9308 7.22724 13.9884C8.90237 13.9344 10.4907 13.2304 11.6558 12.0256C12.8208 10.8208 13.4711 9.20978 13.4689 7.53378C13.466 4.89128 11.7207 3.40961 9.69999 1.6917Z" fill="#EF4A4A"/>
</g>
<defs>
<clipPath id="clip0_664_18337">
<rect width="14" height="14" fill="white"/>
</clipPath>
</defs>
</svg>
