<svg width="10" height="10" viewBox="0 0 10 10" fill="none" xmlns="http://www.w3.org/2000/svg">
<path d="M6.56127 7.60561C6.56127 6.98061 6.13164 6.12645 5.35282 5.2002C5.30971 5.14878 5.25573 5.10757 5.19477 5.07954C5.13381 5.05151 5.06738 5.03736 5.00029 5.03811C4.9327 5.03781 4.86585 5.05222 4.80439 5.08035C4.74294 5.10849 4.68835 5.14967 4.64442 5.20103C3.79184 6.19978 3.37513 7.08311 3.44722 7.7602C3.47559 7.97428 3.54901 8.17991 3.66264 8.36355C3.77627 8.5472 3.92753 8.70468 4.10645 8.82562C4.35955 9.03313 4.67326 9.15275 5.00029 9.16645C5.41415 9.16601 5.81093 9.00142 6.10358 8.7088C6.39623 8.41619 6.56083 8.01944 6.56127 7.60561Z" fill="#EF4A4A"/>
<path d="M6.92929 1.20839C6.60176 0.930055 6.25798 0.638389 5.90795 0.320055C5.77522 0.199568 5.61776 0.109544 5.44659 0.0562836C5.27542 0.00302336 5.09468 -0.0121854 4.91702 0.0117219C4.74483 0.0345246 4.57975 0.0948551 4.43343 0.188452C4.28712 0.282048 4.16315 0.406627 4.07027 0.553389C3.57372 1.38332 3.22253 2.29193 3.03184 3.24006C2.95723 3.13204 2.89092 3.01852 2.83349 2.90047C2.7745 2.77622 2.68568 2.66849 2.57494 2.5869C2.4642 2.50531 2.33498 2.4524 2.19882 2.43289C2.06266 2.41337 1.92378 2.42786 1.79458 2.47506C1.66538 2.52226 1.54987 2.6007 1.45835 2.70339C0.759664 3.41772 0.37236 4.37967 0.381168 5.37881C0.371505 6.3994 0.70346 7.39392 1.32422 8.20413C1.94498 9.01434 2.81889 9.59371 3.80691 9.85005C4.18521 9.94523 4.5736 9.99448 4.96369 9.99672C4.4652 9.97814 3.98606 9.79896 3.59773 9.48589C3.3287 9.29657 3.1025 9.0528 2.9338 8.77041C2.76509 8.48802 2.65766 8.17332 2.61846 7.84672C2.52262 6.92589 2.99058 5.85381 4.00943 4.66047C4.13166 4.51721 4.28361 4.40226 4.45472 4.32362C4.62584 4.24497 4.81203 4.20452 5.00036 4.20506H5.00453C5.1923 4.20521 5.37779 4.2463 5.54806 4.32545C5.71834 4.40461 5.86931 4.51993 5.99045 4.66339C6.63135 5.42464 7.39601 6.55297 7.39601 7.60547C7.39508 8.21202 7.16407 8.79563 6.74961 9.23851C6.33514 9.6814 5.76808 9.95058 5.16288 9.99172C6.35951 9.95317 7.49414 9.45035 8.32642 8.58977C9.15869 7.72919 9.62323 6.57845 9.62164 5.38131C9.61955 3.49381 8.37277 2.43547 6.92929 1.20839Z" fill="#EF4A4A"/>
</svg>
