<svg width="86" height="34" viewBox="0 0 86 34" fill="none" xmlns="http://www.w3.org/2000/svg">
<path fill-rule="evenodd" clip-rule="evenodd" d="M40.9595 23.9275V17.0921H44.4873C45.9329 17.0921 47.1531 16.6077 48.1478 15.6524L48.3865 15.4102C50.2035 13.4323 50.0841 10.351 48.1478 8.52109C47.1796 7.5523 45.8534 7.02754 44.4873 7.05445H38.8242V23.9275H40.9595ZM40.959 15.0199V9.12646H44.5404C45.3098 9.12646 46.0393 9.42248 46.5832 9.9607C47.7372 11.0909 47.7637 12.9747 46.6495 14.1453C46.1057 14.7239 45.3363 15.0468 44.5404 15.0199H40.959ZM58.3458 13.2842C57.4307 12.4365 56.184 12.0059 54.6058 12.0059C52.5766 12.0059 51.0514 12.7594 50.0435 14.253L51.9268 15.4505C52.6164 14.4279 53.5581 13.9166 54.7517 13.9166C55.5076 13.9166 56.2371 14.1991 56.8074 14.7104C57.3644 15.1948 57.6827 15.8945 57.6827 16.6346V17.1324C56.8604 16.6749 55.8259 16.4327 54.5527 16.4327C53.0673 16.4327 51.8737 16.7826 50.9851 17.4957C50.0965 18.2088 49.6456 19.1507 49.6456 20.3482C49.6191 21.4381 50.0833 22.4742 50.9055 23.1739C51.7411 23.9274 52.8021 24.3041 54.0488 24.3041C55.5209 24.3041 56.688 23.6448 57.5766 22.3262H57.6694V23.9274H59.7119V16.8095C59.7119 15.3159 59.2609 14.1319 58.3458 13.2842ZM52.5507 21.8014C52.1129 21.4784 51.8477 20.9537 51.8477 20.3886C51.8477 19.7562 52.1395 19.2314 52.7099 18.8143C53.2935 18.3972 54.0231 18.1819 54.8853 18.1819C56.0791 18.1684 57.0076 18.4375 57.6708 18.9757C57.6708 19.8907 57.3127 20.6846 56.6097 21.3573C55.973 22.0032 55.1108 22.3665 54.2088 22.3665C53.6119 22.3799 53.0282 22.1781 52.5507 21.8014ZM64.3011 29L71.4363 12.3826H69.1153L65.813 20.6711H65.7732L62.3913 12.3826H60.0703L64.752 23.1873L62.0995 29H64.3011Z" fill="#3C4043"/>
<path d="M33.5882 15.6121C33.5882 14.9528 33.5352 14.2934 33.4291 13.6476H24.4238V17.3747H29.583C29.3707 18.5722 28.6811 19.6487 27.6731 20.3214V22.7434H30.7501C32.5538 21.0615 33.5882 18.5722 33.5882 15.6121Z" fill="#4285F4"/>
<path d="M24.4243 25.0846C26.9972 25.0846 29.1723 24.2235 30.7505 22.7434L27.6736 20.3214C26.8115 20.9135 25.7107 21.2498 24.4243 21.2498C21.9309 21.2498 19.8222 19.541 19.0662 17.2536H15.8965V19.7563C17.5145 23.0259 20.8169 25.0846 24.4243 25.0846Z" fill="#34A853"/>
<path d="M19.066 17.2536C18.6681 16.056 18.6681 14.7509 19.066 13.5399V11.0507H15.8958C14.5295 13.7821 14.5295 17.0114 15.8958 19.7428L19.066 17.2536Z" fill="#FBBC04"/>
<path d="M24.4243 9.54367C25.7903 9.51676 27.1033 10.0415 28.0847 10.9969L30.8168 8.22505C29.0794 6.5835 26.7983 5.68199 24.4243 5.7089C20.8169 5.7089 17.5145 7.78102 15.8965 11.0507L19.0662 13.5534C19.8222 11.2525 21.9309 9.54367 24.4243 9.54367Z" fill="#EA4335"/>
</svg>
