<svg width="20" height="20" viewBox="0 0 20 20" fill="none" xmlns="http://www.w3.org/2000/svg">
<path d="M7.30041 1.44237H7.40871C11.1087 1.44237 12.8921 2.90077 13.2004 6.16737C13.2337 6.50907 12.9837 6.81737 12.6337 6.85077C12.3004 6.88407 11.9837 6.62577 11.9504 6.28407C11.7087 3.66737 10.4754 2.69237 7.40041 2.69237H7.29201C3.90041 2.69237 2.70041 3.89237 2.70041 7.28407V12.7174C2.70041 16.1091 3.90041 17.3091 7.29201 17.3091H7.40041C10.4921 17.3091 11.7254 16.3174 11.9504 13.6507C11.9921 13.3091 12.2837 13.0507 12.6337 13.0841C12.9837 13.1091 13.2337 13.4174 13.2087 13.7591C12.9254 17.0757 11.1337 18.5591 7.40871 18.5591H7.30041C3.20871 18.5591 1.45871 16.8091 1.45871 12.7174V7.28407C1.45871 3.19237 3.20871 1.44237 7.30041 1.44237Z" fill="white"/>
<path d="M7.50052 9.37598H16.9839C17.3256 9.37598 17.6089 9.65928 17.6089 10.001C17.6089 10.3426 17.3256 10.626 16.9839 10.626H7.50052C7.15892 10.626 6.87552 10.3426 6.87552 10.001C6.87552 9.65928 7.15892 9.37598 7.50052 9.37598Z" fill="white"/>
<path d="M15.124 6.58427C15.2823 6.58427 15.4407 6.64257 15.5657 6.76757L18.3573 9.55927C18.599 9.80097 18.599 10.2009 18.3573 10.4426L15.5657 13.2343C15.324 13.4759 14.924 13.4759 14.6823 13.2343C14.4407 12.9926 14.4407 12.5926 14.6823 12.3509L17.0323 10.001L14.6823 7.65097C14.4407 7.40927 14.4407 7.00927 14.6823 6.76757C14.799 6.64257 14.9657 6.58427 15.124 6.58427Z" fill="white"/>
</svg>
