<svg width="86" height="34" viewBox="0 0 86 34" fill="none" xmlns="http://www.w3.org/2000/svg">
<path fill-rule="evenodd" clip-rule="evenodd" d="M42.8593 27.8247C40.387 29.9086 37.18 31.1667 33.6756 31.1667C25.8564 31.1667 19.5176 24.9033 19.5176 17.1771C19.5176 9.45085 25.8564 3.1875 33.6756 3.1875C37.18 3.1875 40.387 4.44553 42.8593 6.52946C45.3316 4.44553 48.5386 3.1875 52.0429 3.1875C59.8622 3.1875 66.201 9.45085 66.201 17.1771C66.201 24.9033 59.8622 31.1667 52.0429 31.1667C48.5386 31.1667 45.3316 29.9086 42.8593 27.8247Z" fill="#ED0006"/>
<path fill-rule="evenodd" clip-rule="evenodd" d="M42.8594 27.8247C45.9036 25.2588 47.8338 21.4407 47.8338 17.1771C47.8338 12.9135 45.9036 9.09536 42.8594 6.52941C45.3317 4.44551 48.5386 3.1875 52.043 3.1875C59.8623 3.1875 66.201 9.45085 66.201 17.1771C66.201 24.9033 59.8623 31.1667 52.043 31.1667C48.5386 31.1667 45.3317 29.9087 42.8594 27.8247Z" fill="#F9A000"/>
<path fill-rule="evenodd" clip-rule="evenodd" d="M42.8592 27.8247C45.9033 25.2588 47.8336 21.4407 47.8336 17.1771C47.8336 12.9135 45.9033 9.09543 42.8592 6.52948C39.815 9.09543 37.8848 12.9135 37.8848 17.1771C37.8848 21.4407 39.815 25.2588 42.8592 27.8247Z" fill="#FF5E00"/>
</svg>
