<svg width="85" height="34" viewBox="0 0 85 34" fill="none" xmlns="http://www.w3.org/2000/svg">
<path d="M32.8551 12.5394H28.6219C28.3323 12.5394 28.0859 12.7427 28.0406 13.0195L26.3285 23.5159C26.2985 23.702 26.4301 23.8764 26.6227 23.9057C26.6407 23.9083 26.6591 23.9098 26.6778 23.9098H28.6987C28.9886 23.9098 29.235 23.7059 29.28 23.4291L29.7419 20.598C29.7866 20.3215 30.0331 20.1176 30.3226 20.1173H31.6628C34.4515 20.1173 36.0607 18.8126 36.481 16.2268C36.6705 15.0955 36.489 14.2067 35.9413 13.5842C35.3395 12.9008 34.2724 12.5391 32.8557 12.5391L32.8551 12.5394ZM33.3434 16.373C33.1119 17.8417 31.9512 17.8417 30.8289 17.8417H30.1901L30.6382 15.0988C30.6655 14.933 30.813 14.8108 30.9866 14.8108H31.2792C32.0436 14.8108 32.7648 14.8108 33.1373 15.2323C33.3596 15.4836 33.4275 15.8571 33.3427 16.373H33.3434ZM45.5092 16.3257H43.4821C43.3085 16.3257 43.1607 16.4479 43.1338 16.6137L43.0441 17.1618L42.9023 16.9632C42.4634 16.3473 41.4847 16.1416 40.5079 16.1416C38.2678 16.1416 36.3543 17.7822 35.9817 20.0836C35.788 21.2314 36.0635 22.3292 36.7369 23.0947C37.3547 23.7985 38.2387 24.0918 39.2902 24.0918C41.0954 24.0918 42.096 22.9697 42.096 22.9697L42.0057 23.5144C41.9748 23.7006 42.1061 23.8755 42.2984 23.9051C42.3167 23.908 42.3351 23.9092 42.3535 23.9092H44.1794C44.4693 23.9092 44.7157 23.7053 44.7607 23.4285L45.8563 16.7196C45.8872 16.5343 45.7565 16.3597 45.5649 16.3301C45.5465 16.3271 45.5279 16.3257 45.5092 16.3257ZM42.6835 20.1407C42.4879 21.2604 41.5686 22.0122 40.3962 22.0122C39.8075 22.0122 39.337 21.8296 39.0349 21.4836C38.7352 21.1399 38.6213 20.651 38.7169 20.1063C38.8996 18.9961 39.8342 18.2197 40.9885 18.2197C41.5643 18.2197 42.0321 18.4047 42.3403 18.7537C42.6492 19.1062 42.7716 19.5981 42.6832 20.1404L42.6835 20.1407ZM56.3058 16.3257H54.2686C54.0736 16.326 53.8912 16.4195 53.7816 16.5752L50.9721 20.577L49.781 16.7315C49.706 16.4905 49.4767 16.3257 49.2165 16.3257H47.2145C47.0196 16.3251 46.8613 16.4775 46.8607 16.6661C46.8607 16.7039 46.8671 16.7412 46.8797 16.777L49.1235 23.1441L47.014 26.0235C46.9011 26.1771 46.9384 26.3902 47.0973 26.4991C47.157 26.5403 47.2286 26.5622 47.3018 26.5622H49.3365C49.5294 26.5622 49.71 26.4713 49.8199 26.318L56.5954 16.8611C56.7065 16.7063 56.6667 16.4938 56.5066 16.3863C56.4475 16.3467 56.3774 16.3254 56.3055 16.3254L56.3058 16.3257Z" fill="#253B80"/>
<path d="M63.0505 12.5394H58.8167C58.5274 12.5394 58.281 12.7431 58.236 13.0195L56.5239 23.5159C56.4936 23.7018 56.6246 23.8761 56.8165 23.9054C56.8349 23.9081 56.8533 23.9096 56.8716 23.9096H59.0444C59.2471 23.9096 59.4191 23.7666 59.4506 23.5733L59.9364 20.598C59.9811 20.3216 60.2275 20.1176 60.5171 20.1173H61.8567C64.646 20.1173 66.2546 18.8126 66.6755 16.2269C66.8656 15.0956 66.6828 14.2067 66.1352 13.5843C65.5343 12.9008 64.4675 12.5391 63.0508 12.5391L63.0505 12.5394ZM63.5388 16.3731C63.308 17.8418 62.1472 17.8418 61.0244 17.8418H60.3861L60.8349 15.0988C60.8615 14.9331 61.009 14.8108 61.1826 14.8108H61.4753C62.239 14.8108 62.9608 14.8108 63.3334 15.2323C63.5556 15.4836 63.6229 15.8572 63.5382 16.3731H63.5388ZM75.704 16.3257H73.6781C73.5046 16.3251 73.3567 16.4477 73.3304 16.6137L73.2407 17.1619L73.0984 16.9633C72.6594 16.3473 71.6814 16.1416 70.7046 16.1416C68.4644 16.1416 66.5518 17.7823 66.179 20.0836C65.9858 21.2315 66.2601 22.3293 66.9336 23.0947C67.5525 23.7986 68.4353 24.0919 69.4868 24.0919C71.292 24.0919 72.2927 22.9698 72.2927 22.9698L72.2024 23.5144C72.1715 23.7006 72.3028 23.8755 72.495 23.9051C72.5137 23.9081 72.5327 23.9096 72.5513 23.9093H74.3767C74.6663 23.9093 74.9124 23.7053 74.9574 23.4286L76.0536 16.7197C76.0833 16.5332 75.951 16.3586 75.7582 16.3299C75.7401 16.3272 75.722 16.3257 75.704 16.326V16.3257ZM72.8783 20.1407C72.6839 21.2605 71.7634 22.0123 70.591 22.0123C70.0036 22.0123 69.5318 21.8297 69.2297 21.4836C68.93 21.14 68.8174 20.651 68.9117 20.1064C69.0956 18.9961 70.029 18.2198 71.1833 18.2198C71.7591 18.2198 72.2269 18.4048 72.5351 18.7537C72.8452 19.1062 72.9676 19.5982 72.878 20.1404L72.8783 20.1407ZM78.0938 12.8274L76.3563 23.5159C76.326 23.7018 76.457 23.8761 76.649 23.9054C76.6673 23.9081 76.6857 23.9096 76.7041 23.9096H78.4507C78.7409 23.9096 78.9874 23.7059 79.032 23.4289L80.7454 12.9331C80.7757 12.7469 80.6443 12.5723 80.4518 12.543C80.4337 12.5403 80.4157 12.5388 80.3973 12.5388H78.4412C78.2677 12.5394 78.1204 12.6617 78.0935 12.8274H78.0938Z" fill="#179BD7"/>
<path d="M8.749 25.9495L9.07287 23.9611L8.35166 23.9448H4.9082L7.30109 9.27347C7.31578 9.18082 7.39843 9.11245 7.49547 9.11304H13.3018C15.2294 9.11304 16.5595 9.50079 17.254 10.2665C17.5797 10.6255 17.787 11.0009 17.8874 11.4138C17.9927 11.8471 17.9945 12.3648 17.8917 12.9964L17.8843 13.0426V13.4472L18.21 13.6257C18.4586 13.7474 18.682 13.9122 18.8694 14.1117C19.148 14.4187 19.3279 14.8091 19.4042 15.2717C19.4828 15.7477 19.4568 16.3139 19.3279 16.9547C19.1795 17.692 18.9392 18.3343 18.615 18.8597C18.3288 19.3306 17.944 19.7382 17.4855 20.0567C17.0548 20.3524 16.5426 20.5767 15.9641 20.7206C15.4033 20.8618 14.7638 20.9331 14.0625 20.9331H13.6107C13.2874 20.9331 12.9737 21.0456 12.7272 21.2474C12.4811 21.4514 12.318 21.7329 12.2668 22.0422L12.2329 22.2213L11.661 25.7258L11.635 25.8545C11.6283 25.8954 11.6164 25.9155 11.5992 25.9294C11.5824 25.9427 11.5616 25.9501 11.5398 25.9504H8.74992L8.749 25.9495Z" fill="#253B80"/>
<path d="M18.5163 13.0891C18.4988 13.1962 18.4793 13.3057 18.4569 13.4182C17.6913 17.2196 15.0716 18.5326 11.7258 18.5326H10.0223C9.61301 18.5326 9.26833 18.82 9.20465 19.2101L8.33254 24.5587L8.08551 26.0747C8.04785 26.3047 8.21009 26.5205 8.44794 26.5569C8.47029 26.5604 8.49294 26.5619 8.5159 26.5619H11.5372C11.8951 26.5619 12.199 26.3106 12.2554 25.9694L12.2851 25.8211L12.8538 22.3305L12.8902 22.1389C12.946 21.7965 13.2505 21.5452 13.6084 21.5452H14.0602C16.9876 21.5452 19.2791 20.3962 19.9489 17.0707C20.2287 15.6816 20.0839 14.5216 19.3434 13.7059C19.1086 13.4534 18.8285 13.2447 18.5163 13.0893V13.0891Z" fill="#179BD7"/>
<path d="M17.7162 12.78C17.4717 12.7117 17.2231 12.6584 16.9715 12.6202C16.4746 12.5465 15.9723 12.511 15.4697 12.5142H10.9187C10.5609 12.5142 10.2563 12.7661 10.2012 13.108L9.23293 19.037L9.20508 19.2098C9.26753 18.8197 9.61466 18.532 10.0227 18.5323H11.7262C15.072 18.5323 17.6914 17.2184 18.4573 13.4179C18.4803 13.3054 18.4996 13.1959 18.5167 13.0888C18.3147 12.9863 18.1041 12.9005 17.8871 12.8321C17.8301 12.8138 17.7732 12.7966 17.7156 12.78H17.7162Z" fill="#222D65"/>
<path d="M10.2012 13.108C10.2557 12.7658 10.5606 12.5136 10.9188 12.5148H15.4697C16.0088 12.5148 16.5121 12.5488 16.9715 12.6208C17.2822 12.6681 17.589 12.7386 17.8883 12.8321C18.1143 12.9046 18.3242 12.9902 18.518 13.0887C18.7458 11.684 18.5162 10.7276 17.7307 9.86155C16.8641 8.90817 15.3011 8.5 13.3012 8.5H7.4949C7.08624 8.5 6.73788 8.78741 6.67482 9.17811L4.25623 24.0007C4.21307 24.2638 4.39888 24.511 4.67101 24.5527C4.69672 24.5566 4.72244 24.5586 4.74846 24.5586H8.33304L9.23301 19.0372L10.2012 13.1083V13.108Z" fill="#253B80"/>
</svg>
