<svg width="90" height="36" viewBox="0 0 90 36" fill="none" xmlns="http://www.w3.org/2000/svg">
<path d="M34.7881 13.277H30.3059C29.9992 13.277 29.7383 13.4923 29.6904 13.7853L27.8776 24.8992C27.8458 25.0963 27.9852 25.2809 28.189 25.3119C28.2082 25.3147 28.2276 25.3163 28.2474 25.3163H30.3872C30.6942 25.3163 30.9551 25.1004 31.0027 24.8073L31.4918 21.8097C31.5391 21.5169 31.8 21.301 32.1067 21.3007H33.5257C36.4784 21.3007 38.1823 19.9192 38.6273 17.1814C38.8279 15.9835 38.6357 15.0424 38.0559 14.3833C37.4187 13.6597 36.2888 13.2767 34.7888 13.2767L34.7881 13.277ZM35.3051 17.3362C35.06 18.8913 33.831 18.8913 32.6428 18.8913H31.9663L32.4408 15.987C32.4697 15.8115 32.6259 15.682 32.8097 15.682H33.1195C33.9289 15.682 34.6925 15.682 35.0869 16.1283C35.3223 16.3944 35.3942 16.7899 35.3044 17.3362H35.3051ZM48.1865 17.286H46.0402C45.8565 17.286 45.6999 17.4155 45.6714 17.591L45.5764 18.1714L45.4263 17.9611C44.9616 17.3089 43.9254 17.0911 42.8911 17.0911C40.5192 17.0911 38.4931 18.8283 38.0987 21.265C37.8935 22.4803 38.1852 23.6427 38.8983 24.4532C39.5523 25.1985 40.4884 25.5091 41.6017 25.5091C43.5131 25.5091 44.5726 24.3209 44.5726 24.3209L44.477 24.8976C44.4443 25.0947 44.5833 25.28 44.7869 25.3113C44.8063 25.3144 44.8258 25.3157 44.8452 25.3157H46.7786C47.0855 25.3157 47.3464 25.0997 47.3941 24.8067L48.5541 17.7032C48.5868 17.507 48.4484 17.3221 48.2455 17.2907C48.2261 17.2876 48.2063 17.286 48.1865 17.286ZM45.1946 21.3255C44.9875 22.5111 44.0142 23.3071 42.7728 23.3071C42.1495 23.3071 41.6513 23.1137 41.3314 22.7474C41.0141 22.3835 40.8935 21.8658 40.9947 21.2891C41.1882 20.1135 42.1777 19.2915 43.4 19.2915C44.0096 19.2915 44.5049 19.4874 44.8313 19.8569C45.1583 20.2301 45.288 20.751 45.1943 21.3251L45.1946 21.3255ZM59.6182 17.286H57.4612C57.2548 17.2863 57.0616 17.3854 56.9455 17.5502L53.9708 21.7874L52.7096 17.7157C52.6302 17.4606 52.3875 17.286 52.112 17.286H49.9922C49.7858 17.2854 49.6182 17.4468 49.6175 17.6464C49.6175 17.6866 49.6243 17.726 49.6376 17.764L52.0134 24.5055L49.7799 27.5543C49.6603 27.717 49.6999 27.9426 49.8681 28.0579C49.9313 28.1015 50.0071 28.1247 50.0846 28.1247H52.239C52.4432 28.1247 52.6344 28.0285 52.7508 27.8661L59.9249 17.853C60.0425 17.6891 60.0004 17.464 59.8309 17.3503C59.7683 17.3083 59.6941 17.2857 59.6179 17.2857L59.6182 17.286Z" fill="#253B80"/>
<path d="M66.7589 13.277H62.276C61.9697 13.277 61.7088 13.4926 61.6612 13.7853L59.8484 24.8992C59.8163 25.096 59.955 25.2806 60.1582 25.3116C60.1777 25.3144 60.1971 25.316 60.2166 25.316H62.5172C62.7317 25.316 62.9139 25.1646 62.9473 24.96L63.4616 21.8097C63.509 21.5169 63.7699 21.301 64.0765 21.3007H65.4948C68.4482 21.3007 70.1515 19.9192 70.5971 17.1813C70.7984 15.9835 70.6049 15.0424 70.0251 14.3833C69.3888 13.6597 68.2593 13.2767 66.7592 13.2767L66.7589 13.277ZM67.2759 17.3362C67.0315 18.8913 65.8024 18.8913 64.6136 18.8913H63.9378L64.4129 15.987C64.4411 15.8115 64.5974 15.682 64.7811 15.682H65.091C65.8997 15.682 66.6639 15.682 67.0584 16.1283C67.2937 16.3944 67.365 16.7899 67.2752 17.3362H67.2759ZM80.1567 17.286H78.0117C77.8279 17.2854 77.6714 17.4151 77.6435 17.591L77.5485 18.1714L77.3978 17.9611C76.933 17.3089 75.8974 17.0911 74.8632 17.0911C72.4913 17.0911 70.4662 18.8283 70.0714 21.265C69.8669 22.4803 70.1573 23.6427 70.8704 24.4532C71.5257 25.1985 72.4605 25.509 73.5738 25.509C75.4852 25.509 76.5447 24.3209 76.5447 24.3209L76.4491 24.8976C76.4164 25.0947 76.5554 25.28 76.759 25.3113C76.7787 25.3144 76.7988 25.316 76.8186 25.3157H78.7513C79.0579 25.3157 79.3185 25.0997 79.3662 24.8067L80.5268 17.7032C80.5583 17.5057 80.4183 17.3208 80.2141 17.2904C80.195 17.2876 80.1758 17.286 80.1567 17.2863V17.286ZM77.1648 21.3255C76.9589 22.5111 75.9843 23.3071 74.7429 23.3071C74.121 23.3071 73.6215 23.1137 73.3016 22.7474C72.9843 22.3835 72.865 21.8658 72.9648 21.2891C73.1596 20.1135 74.1479 19.2915 75.3701 19.2915C75.9798 19.2915 76.475 19.4874 76.8014 19.8569C77.1298 20.2301 77.2594 20.751 77.1644 21.3251L77.1648 21.3255ZM82.6871 13.5819L80.8474 24.8992C80.8153 25.096 80.954 25.2806 81.1573 25.3116C81.1767 25.3144 81.1962 25.316 81.2156 25.316H83.065C83.3723 25.316 83.6332 25.1004 83.6805 24.807L85.4946 13.6938C85.5267 13.4967 85.3877 13.3118 85.1838 13.2808C85.1647 13.2779 85.1455 13.2764 85.1261 13.2764H83.055C82.8712 13.277 82.7153 13.4064 82.6868 13.5819H82.6871Z" fill="#179BD7"/>
<path d="M9.26204 27.476L9.60496 25.3705L8.84133 25.3533H5.19531L7.72895 9.81895C7.74451 9.72085 7.83202 9.64846 7.93477 9.64908H14.0827C16.1236 9.64908 17.5319 10.0596 18.2674 10.8704C18.6122 11.2506 18.8317 11.648 18.938 12.0852C19.0495 12.544 19.0514 13.0921 18.9425 13.7609L18.9347 13.8098V14.2382L19.2796 14.4272C19.5428 14.556 19.7794 14.7306 19.9777 14.9418C20.2727 15.2668 20.4633 15.6802 20.544 16.17C20.6273 16.674 20.5997 17.2735 20.4633 17.952C20.3061 18.7327 20.0516 19.4128 19.7084 19.9691C19.4054 20.4677 18.9979 20.8992 18.5124 21.2365C18.0564 21.5496 17.5141 21.7871 16.9015 21.9394C16.3077 22.0889 15.6307 22.1644 14.8881 22.1644H14.4097C14.0674 22.1644 13.7352 22.2835 13.4743 22.4973C13.2137 22.7132 13.0409 23.0113 12.9868 23.3388L12.9508 23.5284L12.3454 27.239L12.3178 27.3754C12.3107 27.4186 12.2981 27.4399 12.2799 27.4547C12.2621 27.4688 12.24 27.4766 12.217 27.4769H9.26301L9.26204 27.476Z" fill="#253B80"/>
<path d="M19.6068 13.859C19.5883 13.9725 19.5675 14.0884 19.5439 14.2075C18.7332 18.2325 15.9594 19.6228 12.4168 19.6228H10.6131C10.1797 19.6228 9.81478 19.9271 9.74737 20.3401L8.82395 26.0033L8.56239 27.6086C8.52252 27.8521 8.6943 28.0805 8.94614 28.1191C8.96981 28.1228 8.99379 28.1244 9.0181 28.1244H12.2172C12.5961 28.1244 12.9179 27.8583 12.9775 27.497L13.009 27.34L13.6112 23.644L13.6498 23.4413C13.7088 23.0786 14.0313 22.8126 14.4101 22.8126H14.8885C17.9881 22.8126 20.4145 21.5959 21.1236 18.0749C21.4199 16.6041 21.2666 15.3759 20.4825 14.5121C20.2339 14.2448 19.9374 14.0239 19.6068 13.8593V13.859Z" fill="#179BD7"/>
<path d="M18.7579 13.5318C18.4989 13.4594 18.2358 13.403 17.9693 13.3626C17.4433 13.2845 16.9114 13.2469 16.3792 13.2504H11.5605C11.1816 13.2504 10.8591 13.5171 10.8008 13.879L9.77559 20.1568L9.74609 20.3398C9.81221 19.9267 10.1798 19.6221 10.6118 19.6224H12.4155C15.9582 19.6224 18.7317 18.2312 19.5426 14.2072C19.5669 14.0881 19.5873 13.9721 19.6055 13.8587C19.3916 13.7502 19.1686 13.6593 18.9388 13.5869C18.8785 13.5675 18.8182 13.5493 18.7573 13.5318H18.7579Z" fill="#222D65"/>
<path d="M10.8013 13.879C10.859 13.5167 11.1818 13.2497 11.561 13.251H16.3797C16.9505 13.251 17.4834 13.287 17.9699 13.3632C18.2988 13.4133 18.6236 13.4879 18.9406 13.5869C19.1798 13.6637 19.4021 13.7543 19.6073 13.8587C19.8485 12.3713 19.6054 11.3587 18.7737 10.4416C17.8561 9.43218 16.2011 9 14.0837 9H7.93578C7.50308 9 7.13423 9.30431 7.06746 9.718L4.50659 25.4125C4.46089 25.6911 4.65763 25.9528 4.94578 25.997C4.973 26.0011 5.00023 26.0033 5.02778 26.0033H8.82321L9.77612 20.1571L10.8013 13.8793V13.879Z" fill="#253B80"/>
</svg>
