<svg width="14" height="14" viewBox="0 0 14 14" fill="none" xmlns="http://www.w3.org/2000/svg">
<path opacity="0.4" d="M12.3393 6.00541L10.7472 7.53983C10.5285 7.7502 10.3801 8.17093 10.4254 8.47203L10.6729 10.2704C10.8338 11.4213 10.1202 11.9204 9.089 11.3841L7.34009 10.4684C7.04723 10.3158 6.56875 10.3241 6.28414 10.4932L4.75384 11.3883C3.54528 12.0936 2.82344 11.5615 3.14517 10.2003L3.59478 8.29879C3.67727 7.95231 3.52466 7.47796 3.26479 7.24285L1.81699 5.93529C0.781671 4.99896 1.07041 4.14926 2.46458 4.04201L4.22999 3.91002C4.55998 3.88527 4.96008 3.62541 5.1127 3.33255L6.0284 1.57539C6.56875 0.548315 7.43908 0.55244 7.96293 1.58776L8.77964 3.20468C8.91988 3.47692 9.27461 3.7409 9.57572 3.78627L11.7619 4.14101C12.9415 4.339 13.2014 5.17633 12.3393 6.00541Z" fill="#818195"/>
</svg>
