<svg width="14" height="14" viewBox="0 0 14 14" fill="none" xmlns="http://www.w3.org/2000/svg">
<path d="M12.3393 6.00566L10.7472 7.54008C10.5285 7.75044 10.3801 8.17117 10.4254 8.47228L10.6729 10.2707C10.8338 11.4215 10.1202 11.9206 9.089 11.3844L7.34009 10.4687C7.04723 10.3161 6.56875 10.3243 6.28414 10.4934L4.75384 11.3885C3.54528 12.0938 2.82344 11.5617 3.14517 10.2006L3.59478 8.29904C3.67727 7.95256 3.52466 7.4782 3.26479 7.24309L1.81699 5.93553C0.781671 4.99921 1.07041 4.1495 2.46458 4.04226L4.22999 3.91026C4.55998 3.88551 4.96008 3.62565 5.1127 3.33279L6.0284 1.57563C6.56875 0.548559 7.43908 0.552684 7.96293 1.58801L8.77964 3.20492C8.91988 3.47716 9.27461 3.74115 9.57572 3.78652L11.7619 4.14125C12.9415 4.33924 13.2014 5.17657 12.3393 6.00566Z" fill="#FBBF27"/>
</svg>
