<svg width="20" height="19" viewBox="0 0 20 19" fill="none" xmlns="http://www.w3.org/2000/svg">
<path d="M8.87339 0.678596C9.24847 -0.0330588 10.2676 -0.0330592 10.6427 0.678596L12.8873 4.93742C13.0319 5.21181 13.2957 5.40355 13.6013 5.45649L18.3428 6.27774C19.1347 6.41491 19.4494 7.38299 18.8896 7.95965L15.5346 11.4152C15.3188 11.6375 15.2182 11.9473 15.2623 12.254L15.9473 17.0226C16.0617 17.8186 15.2374 18.4172 14.5159 18.062L10.1997 15.9375C9.9212 15.8004 9.59488 15.8004 9.31642 15.9375L5.00022 18.062C4.27871 18.4172 3.45441 17.8186 3.56876 17.0226L4.25382 12.254C4.29788 11.9473 4.19728 11.6375 3.98145 11.4152L0.626504 7.95965C0.0666312 7.38299 0.381366 6.41491 1.17331 6.27774L5.91477 5.45649C6.22039 5.40355 6.48414 5.21181 6.62876 4.93742L8.87339 0.678596Z" fill="#FBBF27"/>
</svg>
