<svg width="22" height="22" viewBox="0 0 22 22" fill="none" xmlns="http://www.w3.org/2000/svg">
<path d="M10.1273 1.6786C10.5024 0.966941 11.5215 0.966941 11.8966 1.6786L14.1412 5.93742C14.2858 6.21181 14.5496 6.40355 14.8552 6.45649L19.5967 7.27774C20.3886 7.41491 20.7034 8.38299 20.1435 8.95965L16.7885 12.4152C16.5727 12.6375 16.4721 12.9473 16.5162 13.254L17.2012 18.0226C17.3156 18.8186 16.4913 19.4172 15.7698 19.062L11.4536 16.9375C11.1751 16.8004 10.8488 16.8004 10.5703 16.9375L6.25413 19.062C5.53262 19.4172 4.70831 18.8186 4.82267 18.0226L5.50772 13.254C5.55178 12.9473 5.45119 12.6375 5.23536 12.4152L1.88041 8.95965C1.32054 8.38299 1.63527 7.41491 2.42722 7.27774L7.16868 6.45649C7.47429 6.40355 7.73804 6.21181 7.88266 5.93742L10.1273 1.6786Z" fill="#D9D9DF"/>
<path fill-rule="evenodd" clip-rule="evenodd" d="M11.5593 1.28746C11.5593 1.12498 11.5197 0.96494 11.444 0.8212L11.2765 0.503384C11.164 0.289887 10.8582 0.289888 10.7457 0.503384L7.72127 6.24173C7.67789 6.32404 7.59876 6.38157 7.50707 6.39745L1.12019 7.5037C0.882602 7.54485 0.788182 7.83527 0.956144 8.00827L5.47406 12.6617C5.53881 12.7284 5.56899 12.8213 5.55577 12.9133L4.63309 19.336C4.59878 19.5748 4.84607 19.7544 5.06253 19.6478L10.8786 16.7851C10.9621 16.7439 11.06 16.7439 11.1436 16.7851C11.3352 16.8794 11.5593 16.7399 11.5593 16.5263V1.28746Z" fill="#FBBF27"/>
</svg>
