<svg width="20" height="20" viewBox="0 0 20 20" fill="none" xmlns="http://www.w3.org/2000/svg">
<path d="M17.6275 8.57923L15.3529 10.7713C15.0406 11.0718 14.8285 11.6728 14.8933 12.103L15.2469 14.6721C15.4767 16.3162 14.4573 17.0292 12.9841 16.2631L10.4857 14.955C10.0673 14.7369 9.38379 14.7487 8.9772 14.9903L6.79106 16.269C5.06454 17.2766 4.03335 16.5165 4.49297 14.572L5.13526 11.8555C5.25311 11.3605 5.03508 10.6829 4.66385 10.347L2.59556 8.47905C1.11653 7.14144 1.52901 5.92758 3.5207 5.77437L6.04271 5.58581C6.51411 5.55046 7.08569 5.17922 7.30372 4.76085L8.61186 2.25062C9.38379 0.783377 10.6271 0.78927 11.3755 2.2683L12.5422 4.57818C12.7425 4.96709 13.2493 5.34422 13.6795 5.40903L16.8025 5.91579C18.4878 6.19864 18.859 7.39483 17.6275 8.57923Z" fill="#FBBF27"/>
</svg>
