<svg width="15" height="14" viewBox="0 0 15 14" fill="none" xmlns="http://www.w3.org/2000/svg">
<path d="M6.62694 1.18258C7.0018 0.470023 8.02209 0.470024 8.39695 1.18258L9.7209 3.69924C9.86539 3.97388 10.1292 4.16588 10.4349 4.21894L13.2353 4.70487C14.0266 4.8422 14.3414 5.80929 13.7824 6.38607L11.7982 8.43354C11.5829 8.65574 11.4826 8.96511 11.5265 9.2714L11.9313 12.0946C12.0455 12.8908 11.2206 13.4892 10.4992 13.1334L7.95423 11.8784C7.6754 11.7409 7.34849 11.7409 7.06966 11.8784L4.52473 13.1334C3.80329 13.4892 2.9784 12.8908 3.09258 12.0946L3.4974 9.2714C3.54132 8.96511 3.44098 8.65574 3.22565 8.43354L1.24148 6.38607C0.682537 5.80929 0.99728 4.8422 1.78863 4.70487L4.58895 4.21894C4.89471 4.16588 5.15851 3.97388 5.30299 3.69924L6.62694 1.18258Z" fill="#FBBF27"/>
</svg>
