<svg width="16" height="17" viewBox="0 0 16 17" fill="none" xmlns="http://www.w3.org/2000/svg">
<path d="M7.13866 2.18258C7.51352 1.47002 8.53381 1.47002 8.90867 2.18258L10.2326 4.69924C10.3771 4.97388 10.6409 5.16588 10.9467 5.21894L13.747 5.70487C14.5383 5.8422 14.8531 6.80929 14.2941 7.38607L12.31 9.43354C12.0946 9.65574 11.9943 9.96511 12.0382 10.2714L12.443 13.0946C12.5572 13.8908 11.7323 14.4892 11.0109 14.1334L8.46595 12.8784C8.18712 12.7409 7.86021 12.7409 7.58138 12.8784L5.03645 14.1334C4.31501 14.4892 3.49012 13.8908 3.6043 13.0946L4.00912 10.2714C4.05304 9.96511 3.9527 9.65574 3.73737 9.43354L1.7532 7.38607C1.19426 6.80929 1.509 5.8422 2.30035 5.70487L5.10067 5.21894C5.40643 5.16588 5.67022 4.97388 5.81471 4.69924L7.13866 2.18258Z" fill="#D9D9DF"/>
<path fill-rule="evenodd" clip-rule="evenodd" d="M8.41789 1.49495C8.41789 1.33273 8.37843 1.17294 8.3029 1.02937L8.29001 1.00487C8.17755 0.791102 7.87146 0.791101 7.759 1.00487L5.65515 5.00401C5.61181 5.0864 5.53267 5.144 5.44094 5.15992L0.997047 5.93106C0.759642 5.97226 0.665219 6.26239 0.832903 6.43542L3.97718 9.68001C4.04177 9.74668 4.07188 9.83949 4.0587 9.93137L3.41665 14.409C3.3824 14.6478 3.62986 14.8273 3.8463 14.7206L7.89182 12.7256C7.97547 12.6844 8.07354 12.6844 8.15719 12.7256C8.27732 12.7849 8.41789 12.6974 8.41789 12.5635V1.49495Z" fill="#FBBF27"/>
</svg>
