<svg width="18" height="18" viewBox="0 0 18 18" fill="none" xmlns="http://www.w3.org/2000/svg">
<path d="M15.8647 7.72133L13.8176 9.69416C13.5365 9.96463 13.3456 10.5056 13.4039 10.8927L13.7221 13.2049C13.929 14.6846 13.0115 15.3263 11.6857 14.6368L9.43708 13.4595C9.06054 13.2633 8.44536 13.2739 8.07943 13.4913L6.11191 14.6421C4.55804 15.549 3.62996 14.8649 4.04362 13.1148L4.62168 10.67C4.72775 10.2245 4.53153 9.61461 4.19742 9.31232L2.33596 7.63117C1.00483 6.42733 1.37606 5.33485 3.16858 5.19696L5.43839 5.02725C5.86265 4.99543 6.37707 4.66133 6.5733 4.28479L7.75063 2.02559C8.44536 0.705064 9.56436 0.710367 10.2379 2.0415L11.2879 4.12039C11.4682 4.47041 11.9243 4.80982 12.3115 4.86816L15.1222 5.32424C16.639 5.5788 16.9731 6.65537 15.8647 7.72133Z" fill="#FBBF27"/>
</svg>
