<svg width="10" height="10" viewBox="0 0 10 10" fill="none" xmlns="http://www.w3.org/2000/svg">
<path d="M8.81383 4.28961L7.67657 5.38563C7.52041 5.53589 7.41435 5.83641 7.44676 6.05149L7.62353 7.33607C7.73844 8.15808 7.22873 8.51458 6.49216 8.13156L5.24294 7.47749C5.03375 7.36847 4.69199 7.37437 4.48869 7.49517L3.39562 8.13451C2.53236 8.63832 2.01677 8.25825 2.24657 7.28598L2.56772 5.92775C2.62665 5.68026 2.51763 5.34144 2.33202 5.1735L1.29787 4.23953C0.558358 3.57072 0.764598 2.96379 1.76044 2.88719L3.02145 2.79291C3.25715 2.77523 3.54294 2.58961 3.65195 2.38043L4.30602 1.12531C4.69199 0.391688 5.31365 0.394635 5.68783 1.13415L6.27119 2.28909C6.37136 2.48355 6.62474 2.67211 6.83982 2.70452L8.40135 2.9579C9.24399 3.09932 9.4296 3.69741 8.81383 4.28961Z" fill="#FBBF27"/>
</svg>
