<svg width="20" height="19" viewBox="0 0 20 19" fill="none" xmlns="http://www.w3.org/2000/svg">
<path d="M9.1273 0.678596C9.50238 -0.0330588 10.5215 -0.0330592 10.8966 0.678596L13.1412 4.93742C13.2858 5.21181 13.5496 5.40355 13.8552 5.45649L18.5967 6.27774C19.3886 6.41491 19.7034 7.38299 19.1435 7.95965L15.7885 11.4152C15.5727 11.6375 15.4721 11.9473 15.5162 12.254L16.2012 17.0226C16.3156 17.8186 15.4913 18.4172 14.7698 18.062L10.4536 15.9375C10.1751 15.8004 9.84879 15.8004 9.57032 15.9375L5.25413 18.062C4.53262 18.4172 3.70831 17.8186 3.82267 17.0226L4.50772 12.254C4.55178 11.9473 4.45119 11.6375 4.23536 11.4152L0.880411 7.95965C0.320537 7.38299 0.635272 6.41491 1.42722 6.27774L6.16868 5.45649C6.47429 5.40355 6.73804 5.21181 6.88266 4.93742L9.1273 0.678596Z" fill="#D9D9DF"/>
</svg>
