<svg width="86" height="34" viewBox="0 0 86 34" fill="none" xmlns="http://www.w3.org/2000/svg">
<path fill-rule="evenodd" clip-rule="evenodd" d="M45.4642 6.10492L40.672 7.16362V3.16409L45.4642 2.125V6.10492ZM55.4307 8.32031C53.5597 8.32031 52.3569 9.22217 51.6887 9.84955L51.4405 8.634H47.2402V31.4941L52.0133 30.455L52.0323 24.9066C52.7197 25.4164 53.7315 26.1418 55.4117 26.1418C58.8291 26.1418 61.9411 23.3186 61.9411 17.1036C61.9221 11.418 58.7719 8.32031 55.4307 8.32031ZM54.2856 21.8284C53.1592 21.8284 52.491 21.4167 52.0328 20.9069L52.0137 13.6333C52.5101 13.0647 53.1974 12.6726 54.2856 12.6726C56.023 12.6726 57.2258 14.6724 57.2258 17.2407C57.2258 19.8678 56.0421 21.8284 54.2856 21.8284ZM76.9842 17.2997C76.9842 12.2806 74.6168 8.32031 70.092 8.32031C65.5481 8.32031 62.7988 12.2806 62.7988 17.2604C62.7988 23.1617 66.0445 26.1418 70.7029 26.1418C72.9749 26.1418 74.6932 25.6124 75.9914 24.8674V20.9463C74.6932 21.6129 73.204 22.0246 71.3139 22.0246C69.462 22.0246 67.82 21.358 67.61 19.0445H76.946C76.946 18.9367 76.9529 18.6919 76.9608 18.4098L76.9608 18.4082L76.9608 18.4077V18.4074L76.9609 18.4068V18.4065L76.9609 18.4059C76.9716 18.0221 76.9842 17.5702 76.9842 17.2997ZM67.5526 15.437C67.5526 13.2216 68.8699 12.3001 70.0727 12.3001C71.2373 12.3001 72.4783 13.2216 72.4783 15.437H67.5526ZM40.6718 8.65361H45.464V25.8084H40.6718V8.65361ZM35.2313 8.65364L35.5368 10.1045C36.6632 7.98705 38.897 8.41838 39.5079 8.65364V13.1629C38.9161 12.9473 37.0069 12.6728 35.8804 14.1824V25.8085H31.1074V8.65364H35.2313ZM25.9901 4.39921L21.3317 5.4187L21.3126 21.1227C21.3126 24.0244 23.4318 26.1614 26.2574 26.1614C27.823 26.1614 28.9685 25.8673 29.5985 25.5144V21.5345C28.9876 21.7893 25.971 22.6912 25.971 19.7896V12.8296H29.5985V8.65362H25.971L25.9901 4.39921ZM14.707 12.5747C13.6952 12.5747 13.0842 12.8688 13.0842 13.6334C13.0842 14.4683 14.1357 14.8355 15.4401 15.2911C17.5667 16.0339 20.3656 17.0114 20.3774 20.6326C20.3774 24.142 17.6472 26.1614 13.6761 26.1614C12.0341 26.1614 10.2395 25.8281 8.46392 25.0439V20.3777C10.0677 21.2796 12.0914 21.9462 13.6761 21.9462C14.7452 21.9462 15.5089 21.6521 15.5089 20.7503C15.5089 19.8255 14.3691 19.4028 12.9931 18.8925C10.8975 18.1154 8.25391 17.1351 8.25391 13.8687C8.25391 10.3985 10.8313 8.32033 14.707 8.32033C16.2917 8.32033 17.8572 8.5752 19.4419 9.22218V13.8295C17.9909 13.0257 16.158 12.5747 14.707 12.5747Z" fill="#6461FC"/>
</svg>
