<svg width="16" height="16" viewBox="0 0 16 16" fill="none" xmlns="http://www.w3.org/2000/svg">
<path d="M8.66684 9.83325H8.00018C7.72684 9.83325 7.50018 9.60659 7.50018 9.33325C7.50018 9.05992 7.72684 8.83325 8.00018 8.83325H8.66684C9.12684 8.83325 9.50018 8.45992 9.50018 7.99992V1.83325H4.00018C3.21351 1.83325 2.49349 2.25991 2.10683 2.94657C1.97349 3.18657 1.66685 3.27327 1.42685 3.13993C1.18685 3.0066 1.10016 2.69992 1.23349 2.45992C1.79349 1.45992 2.85351 0.833252 4.00018 0.833252H10.0002C10.2735 0.833252 10.5002 1.05992 10.5002 1.33325V7.99992C10.5002 9.01325 9.68018 9.83325 8.66684 9.83325Z" fill="#EF4A4A"/>
<path d="M12.6663 13.8333H11.9997C11.7263 13.8333 11.4997 13.6066 11.4997 13.3333C11.4997 12.8733 11.1263 12.4999 10.6663 12.4999C10.2063 12.4999 9.83301 12.8733 9.83301 13.3333C9.83301 13.6066 9.60634 13.8333 9.33301 13.8333H6.66634C6.39301 13.8333 6.16634 13.6066 6.16634 13.3333C6.16634 12.8733 5.79301 12.4999 5.33301 12.4999C4.87301 12.4999 4.49967 12.8733 4.49967 13.3333C4.49967 13.6066 4.27301 13.8333 3.99967 13.8333H3.33301C1.95301 13.8333 0.833008 12.7133 0.833008 11.3333C0.833008 11.0599 1.05967 10.8333 1.33301 10.8333C1.60634 10.8333 1.83301 11.0599 1.83301 11.3333C1.83301 12.1599 2.50634 12.8333 3.33301 12.8333H3.56632C3.78632 12.0666 4.49301 11.4999 5.33301 11.4999C6.17301 11.4999 6.87969 12.0666 7.09969 12.8333H8.90633C9.12633 12.0666 9.83301 11.4999 10.673 11.4999C11.513 11.4999 12.2197 12.0666 12.4397 12.8333H12.6663C13.493 12.8333 14.1663 12.1599 14.1663 11.3333V9.83325H12.6663C12.0263 9.83325 11.4997 9.30659 11.4997 8.66659V6.66659C11.4997 6.02659 12.0197 5.49992 12.6663 5.49992L11.953 4.25326C11.8063 3.99326 11.5264 3.83325 11.2264 3.83325H10.4997V7.99992C10.4997 9.01325 9.67968 9.83325 8.66634 9.83325H7.99967C7.72634 9.83325 7.49967 9.60659 7.49967 9.33325C7.49967 9.05992 7.72634 8.83325 7.99967 8.83325H8.66634C9.12634 8.83325 9.49967 8.45992 9.49967 7.99992V3.33325C9.49967 3.05992 9.72634 2.83325 9.99967 2.83325H11.2264C11.8864 2.83325 12.493 3.1866 12.8197 3.75993L13.9597 5.75326C14.0463 5.90659 14.0463 6.09992 13.9597 6.25326C13.873 6.40659 13.7063 6.49992 13.5263 6.49992H12.6663C12.573 6.49992 12.4997 6.57325 12.4997 6.66659V8.66659C12.4997 8.75992 12.573 8.83325 12.6663 8.83325H14.6663C14.9397 8.83325 15.1663 9.05992 15.1663 9.33325V11.3333C15.1663 12.7133 14.0463 13.8333 12.6663 13.8333Z" fill="#EF4A4A"/>
<path d="M5.33333 15.1667C4.32 15.1667 3.5 14.3467 3.5 13.3333C3.5 12.32 4.32 11.5 5.33333 11.5C6.34667 11.5 7.16667 12.32 7.16667 13.3333C7.16667 14.3467 6.34667 15.1667 5.33333 15.1667ZM5.33333 12.5C4.87333 12.5 4.5 12.8733 4.5 13.3333C4.5 13.7933 4.87333 14.1667 5.33333 14.1667C5.79333 14.1667 6.16667 13.7933 6.16667 13.3333C6.16667 12.8733 5.79333 12.5 5.33333 12.5Z" fill="#EF4A4A"/>
<path d="M10.6663 15.1667C9.65301 15.1667 8.83301 14.3467 8.83301 13.3333C8.83301 12.32 9.65301 11.5 10.6663 11.5C11.6797 11.5 12.4997 12.32 12.4997 13.3333C12.4997 14.3467 11.6797 15.1667 10.6663 15.1667ZM10.6663 12.5C10.2063 12.5 9.83301 12.8733 9.83301 13.3333C9.83301 13.7933 10.2063 14.1667 10.6663 14.1667C11.1263 14.1667 11.4997 13.7933 11.4997 13.3333C11.4997 12.8733 11.1263 12.5 10.6663 12.5Z" fill="#EF4A4A"/>
<path d="M14.6667 9.83333H12.6667C12.0267 9.83333 11.5 9.30667 11.5 8.66667V6.66667C11.5 6.02667 12.0267 5.5 12.6667 5.5H13.5267C13.7067 5.5 13.8733 5.59334 13.96 5.75334L15.1 7.75334C15.14 7.82667 15.1667 7.91333 15.1667 8V9.33333C15.1667 9.60667 14.94 9.83333 14.6667 9.83333ZM12.6667 6.5C12.5733 6.5 12.5 6.57333 12.5 6.66667V8.66667C12.5 8.76 12.5733 8.83333 12.6667 8.83333H14.1667V8.13334L13.2333 6.5H12.6667Z" fill="#EF4A4A"/>
<path d="M5.33301 5.83325H1.33301C1.05967 5.83325 0.833008 5.60659 0.833008 5.33325C0.833008 5.05992 1.05967 4.83325 1.33301 4.83325H5.33301C5.60634 4.83325 5.83301 5.05992 5.83301 5.33325C5.83301 5.60659 5.60634 5.83325 5.33301 5.83325Z" fill="#EF4A4A"/>
<path d="M3.99967 7.83325H1.33301C1.05967 7.83325 0.833008 7.60659 0.833008 7.33325C0.833008 7.05992 1.05967 6.83325 1.33301 6.83325H3.99967C4.27301 6.83325 4.49967 7.05992 4.49967 7.33325C4.49967 7.60659 4.27301 7.83325 3.99967 7.83325Z" fill="#EF4A4A"/>
<path d="M2.66634 9.83325H1.33301C1.05967 9.83325 0.833008 9.60659 0.833008 9.33325C0.833008 9.05992 1.05967 8.83325 1.33301 8.83325H2.66634C2.93967 8.83325 3.16634 9.05992 3.16634 9.33325C3.16634 9.60659 2.93967 9.83325 2.66634 9.83325Z" fill="#EF4A4A"/>
</svg>
