<svg width="75" height="30" viewBox="0 0 75 30" fill="none" xmlns="http://www.w3.org/2000/svg">
<path fill-rule="evenodd" clip-rule="evenodd" d="M22.3406 24.2514H17.1466L13.2517 8.95516C13.0668 8.25153 12.6743 7.62949 12.0969 7.33631C10.656 6.59954 9.06812 6.01319 7.33594 5.71746V5.12855H15.7031C16.8579 5.12855 17.724 6.01319 17.8683 7.04058L19.8892 18.0743L25.0807 5.12855H30.1303L22.3406 24.2514ZM33.0166 24.2514H28.1113L32.1506 5.12854H37.0559L33.0166 24.2514ZM43.4038 10.4261C43.5481 9.39618 44.4142 8.80728 45.4246 8.80728C47.0125 8.65942 48.7421 8.95514 50.1856 9.68936L51.0517 5.57213C49.6082 4.98323 48.0204 4.6875 46.5794 4.6875C41.8185 4.6875 38.3541 7.33629 38.3541 11.0125C38.3541 13.8091 40.808 15.2776 42.5402 16.1622C44.4142 17.0443 45.136 17.6332 44.9916 18.5153C44.9916 19.8384 43.5481 20.4273 42.1072 20.4273C40.375 20.4273 38.6428 19.9863 37.0575 19.2495L36.1914 23.3693C37.9236 24.1035 39.7976 24.3992 41.5298 24.3992C46.8681 24.5445 50.1856 21.8983 50.1856 17.9264C50.1856 12.9245 43.4038 12.6313 43.4038 10.4261ZM67.3527 24.2514L63.4578 5.12854H59.2743C58.4082 5.12854 57.5421 5.71744 57.2534 6.59953L50.041 24.2514H55.0907L56.0986 21.4572H62.303L62.8804 24.2514H67.3527ZM59.9948 10.2784L61.4357 17.4854H57.3965L59.9948 10.2784Z" fill="#172B85"/>
</svg>
