<svg width="85" height="34" viewBox="0 0 85 34" fill="none" xmlns="http://www.w3.org/2000/svg">
<path fill-rule="evenodd" clip-rule="evenodd" d="M25.3197 27.4849H19.4332L15.019 10.1492C14.8095 9.35174 14.3646 8.64675 13.7102 8.31448C12.0771 7.47948 10.2776 6.81494 8.31445 6.47979V5.81236H17.7972C19.106 5.81236 20.0876 6.81494 20.2511 7.97933L22.5415 20.4842L28.4252 5.81236H34.1481L25.3197 27.4849ZM37.4207 27.4849H31.8613L36.4391 5.81238H41.9985L37.4207 27.4849ZM49.1896 11.8163C49.3532 10.649 50.3348 9.98158 51.48 9.98158C53.2795 9.81401 55.2398 10.1492 56.8757 10.9813L57.8573 6.31508C56.2213 5.64766 54.4218 5.3125 52.7887 5.3125C47.393 5.3125 43.4667 8.31447 43.4667 12.4808C43.4667 15.6504 46.2478 17.3146 48.2109 18.3172C50.3348 19.3169 51.1528 19.9843 50.9892 20.984C50.9892 22.4835 49.3532 23.1509 47.7201 23.1509C45.757 23.1509 43.7939 22.6511 41.9972 21.8161L41.0156 26.4852C42.9788 27.3173 45.1026 27.6525 47.0658 27.6525C53.1159 27.8171 56.8757 24.8181 56.8757 20.3166C56.8757 14.6478 49.1896 14.3155 49.1896 11.8163ZM76.3326 27.4849L71.9184 5.81236H67.177C66.1954 5.81236 65.2139 6.47979 64.8867 7.47948L56.7127 27.4849H62.4356L63.5779 24.3182H70.6096L71.264 27.4849H76.3326ZM67.9955 11.6488L69.6286 19.8168H65.0508L67.9955 11.6488Z" fill="#172B85"/>
</svg>
