<svg width="375" height="274" viewBox="0 0 375 274" fill="none" xmlns="http://www.w3.org/2000/svg">
<path d="M186.541 71.8494H162.843C132.867 71.8494 108.566 96.1336 108.566 126.09V141.866C108.566 171.822 132.867 196.106 162.843 196.106H186.541C216.517 196.106 240.818 171.822 240.818 141.866V126.09C240.818 96.1336 216.517 71.8494 186.541 71.8494Z" fill="#3B1678"/>
<path d="M252.253 198.047C253.284 197.616 254.327 197.22 255.37 196.849C255.951 196.616 256.582 196.534 257.203 196.609C256.399 194.346 255.726 192.039 255.19 189.698C255.038 189.044 254.638 188.476 254.074 188.111C253.511 187.747 252.828 187.616 252.169 187.745C251.842 187.785 251.527 187.892 251.243 188.059C250.959 188.226 250.713 188.45 250.52 188.716C250.326 188.982 250.19 189.286 250.119 189.607C250.048 189.928 250.044 190.261 250.107 190.584C250.657 193.116 251.374 195.609 252.253 198.047Z" fill="#FF4487"/>
<path d="M320.483 267.668C304.013 265.74 283.324 262.05 269.695 250.634C263.018 245.052 260.513 238.847 262.826 233.612C264.44 230.423 267.102 227.885 270.366 226.425C275.403 230.89 281.38 234.165 287.855 236.008C302.107 239.973 312.464 237.613 316.408 233.516C317.335 232.656 317.975 231.531 318.238 230.294C318.502 229.057 318.378 227.768 317.882 226.605C315.796 221.717 307.921 218.591 295.718 217.788C285.481 217.105 277.474 218.339 271.469 220.615L270.378 219.417C269.095 220.519 267.801 221.597 266.482 222.664L266.65 222.831C265.931 223.251 265.272 223.682 264.648 224.125L264.265 224.424C264.111 224.551 263.947 224.663 263.773 224.76C261.317 226.573 259.352 228.969 258.055 231.732C254.831 239.015 257.336 248.023 265.787 255.09C273.518 261.547 289.761 270.723 319.86 272.52H320.183C320.797 272.533 321.394 272.322 321.864 271.928C322.334 271.533 322.644 270.982 322.737 270.376C322.77 270.049 322.737 269.72 322.641 269.406C322.545 269.093 322.388 268.801 322.178 268.549C321.968 268.297 321.71 268.09 321.419 267.938C321.128 267.787 320.81 267.695 320.483 267.668ZM295.311 222.604C307.693 223.418 312.272 226.605 313.027 228.366C313.135 228.629 313.399 229.24 312.512 230.174C310.198 232.57 302.107 234.834 289.245 231.264C284.3 229.879 279.679 227.526 275.652 224.341C282.075 222.606 288.752 222.002 295.383 222.556L295.311 222.604Z" fill="#00274C"/>
<path d="M320.193 272.46H319.87C287.11 268.399 274.044 260.014 266.312 253.174C257.922 245.687 254.913 236.978 258.149 229.216C259.967 225.252 262.981 221.955 266.768 219.789C263.163 215.649 260.086 211.078 257.61 206.181C254.276 199.688 251.813 192.785 250.286 185.649C250.16 184.974 250.308 184.276 250.697 183.71C251.086 183.144 251.684 182.756 252.36 182.63C253.035 182.505 253.733 182.652 254.299 183.041C254.866 183.43 255.255 184.027 255.38 184.702C255.38 184.966 259.132 203.988 271.599 217.381C277.592 214.985 285.611 213.679 295.848 214.386C308.051 215.237 315.926 218.555 318 223.73C318.49 224.963 318.61 226.313 318.343 227.613C318.077 228.913 317.437 230.107 316.502 231.049C312.558 235.397 302.189 237.889 287.949 233.684C281.42 231.721 275.44 228.264 270.484 223.586C267.163 225.186 264.496 227.881 262.932 231.217C260.535 236.763 263.088 243.339 269.753 249.245C283.394 261.343 304.035 265.237 320.505 267.285C321.152 267.373 321.742 267.702 322.157 268.207C322.571 268.711 322.779 269.353 322.74 270.005C322.701 270.656 322.416 271.269 321.944 271.72C321.472 272.171 320.846 272.426 320.193 272.436V272.46ZM275.842 221.418C279.818 224.767 284.441 227.262 289.423 228.749C302.273 232.534 310.376 230.138 312.69 227.551C313.577 226.569 313.313 225.91 313.205 225.634C312.462 223.766 307.883 220.388 295.5 219.525C288.882 218.957 282.214 219.607 275.83 221.442L275.842 221.418Z" fill="#241629"/>
<path d="M170.987 195.354C171.831 192.08 169.86 188.742 166.584 187.898C163.308 187.055 159.968 189.025 159.124 192.299L151.601 221.472C150.757 224.746 152.728 228.084 156.004 228.927C159.28 229.771 162.62 227.801 163.464 224.527L170.987 195.354Z" fill="#620F0A"/>
<path d="M211.233 224.517C212.078 227.79 215.418 229.76 218.693 228.917C221.969 228.073 223.941 224.736 223.097 221.462L215.574 192.288C214.73 189.014 211.39 187.044 208.114 187.888C204.838 188.731 202.867 192.069 203.711 195.343L211.233 224.517Z" fill="#620F0A"/>
<path d="M158.128 203.206C158.972 199.932 157 196.595 153.724 195.751C150.449 194.907 147.109 196.877 146.264 200.151L138.742 229.325C137.898 232.599 139.869 235.936 143.145 236.78C146.421 237.624 149.761 235.654 150.605 232.38L158.128 203.206Z" fill="#7B200A"/>
<path d="M224.511 232.389C225.355 235.663 228.695 237.633 231.971 236.789C235.247 235.946 237.218 232.608 236.374 229.334L228.851 200.161C228.007 196.887 224.667 194.917 221.391 195.76C218.115 196.604 216.144 199.942 216.988 203.215L224.511 232.389Z" fill="#7B200A"/>
<path d="M243.719 205.797V190.656C243.719 183.683 238.062 178.03 231.085 178.03H144.072C137.094 178.03 131.438 183.683 131.438 190.656V205.797C131.438 212.77 137.094 218.423 144.072 218.423H231.085C238.062 218.423 243.719 212.77 243.719 205.797Z" fill="#BC2F2F"/>
<path d="M189.042 126.102C212.067 126.102 230.732 107.449 230.732 84.4392C230.732 61.4296 212.067 42.7766 189.042 42.7766C166.017 42.7766 147.352 61.4296 147.352 84.4392C147.352 107.449 166.017 126.102 189.042 126.102Z" fill="#FF6D8A"/>
<path d="M215.862 55.0549H159.284C121.993 55.0549 91.7617 85.2654 91.7617 122.532V145.412C91.7617 182.678 121.993 212.889 159.284 212.889H215.862C253.153 212.889 283.384 182.678 283.384 145.412V122.532C283.384 85.2654 253.153 55.0549 215.862 55.0549Z" fill="#EF4A4A"/>
<path d="M215.859 59.5349H159.281C124.466 59.5349 96.2422 87.7396 96.2422 122.532V145.412C96.2422 180.204 124.466 208.409 159.281 208.409H215.859C250.675 208.409 278.898 180.204 278.898 145.412V122.532C278.898 87.7396 250.675 59.5349 215.859 59.5349Z" fill="white"/>
<path d="M261.018 98.718H260.431C252.983 98.718 246.945 104.752 246.945 112.194V155.761C246.945 163.204 252.983 169.238 260.431 169.238H261.018C268.466 169.238 274.503 163.204 274.503 155.761V112.194C274.503 104.752 268.466 98.718 261.018 98.718Z" fill="#EEE1F0"/>
<path d="M272.807 112.482C272.807 105.807 267.392 100.395 260.712 100.395C254.032 100.395 248.617 105.807 248.617 112.482V155.474C248.617 162.149 254.032 167.561 260.712 167.561C267.392 167.561 272.807 162.149 272.807 155.474V112.482Z" fill="#B2C1DE"/>
<path d="M267.035 157.007H254.424C253.497 157.007 252.746 157.758 252.746 158.684C252.746 159.61 253.497 160.361 254.424 160.361H267.035C267.961 160.361 268.713 159.61 268.713 158.684C268.713 157.758 267.961 157.007 267.035 157.007Z" fill="#CDDBEC"/>
<path d="M267.035 151.413H254.424C253.497 151.413 252.746 152.164 252.746 153.09C252.746 154.016 253.497 154.767 254.424 154.767H267.035C267.961 154.767 268.713 154.016 268.713 153.09C268.713 152.164 267.961 151.413 267.035 151.413Z" fill="#CDDBEC"/>
<path d="M267.035 145.819H254.424C253.497 145.819 252.746 146.57 252.746 147.496C252.746 148.422 253.497 149.173 254.424 149.173H267.035C267.961 149.173 268.713 148.422 268.713 147.496C268.713 146.57 267.961 145.819 267.035 145.819Z" fill="#CDDBEC"/>
<path d="M267.035 140.225H254.424C253.497 140.225 252.746 140.976 252.746 141.902C252.746 142.828 253.497 143.579 254.424 143.579H267.035C267.961 143.579 268.713 142.828 268.713 141.902C268.713 140.976 267.961 140.225 267.035 140.225Z" fill="#CDDBEC"/>
<path d="M267.035 134.643H254.424C253.497 134.643 252.746 135.394 252.746 136.32C252.746 137.246 253.497 137.997 254.424 137.997H267.035C267.961 137.997 268.713 137.246 268.713 136.32C268.713 135.394 267.961 134.643 267.035 134.643Z" fill="#CDDBEC"/>
<path d="M267.035 129.049H254.424C253.497 129.049 252.746 129.799 252.746 130.726C252.746 131.652 253.497 132.403 254.424 132.403H267.035C267.961 132.403 268.713 131.652 268.713 130.726C268.713 129.799 267.961 129.049 267.035 129.049Z" fill="#CDDBEC"/>
<path d="M267.035 157.343H254.424C253.497 157.343 252.746 158.093 252.746 159.02C252.746 159.946 253.497 160.697 254.424 160.697H267.035C267.961 160.697 268.713 159.946 268.713 159.02C268.713 158.093 267.961 157.343 267.035 157.343Z" fill="#8991B1"/>
<path d="M267.035 151.749H254.424C253.497 151.749 252.746 152.499 252.746 153.426C252.746 154.352 253.497 155.103 254.424 155.103H267.035C267.961 155.103 268.713 154.352 268.713 153.426C268.713 152.499 267.961 151.749 267.035 151.749Z" fill="#8991B1"/>
<path d="M267.035 146.166H254.424C253.497 146.166 252.746 146.917 252.746 147.843C252.746 148.77 253.497 149.52 254.424 149.52H267.035C267.961 149.52 268.713 148.77 268.713 147.843C268.713 146.917 267.961 146.166 267.035 146.166Z" fill="#8991B1"/>
<path d="M267.035 140.572H254.424C253.497 140.572 252.746 141.323 252.746 142.249C252.746 143.176 253.497 143.926 254.424 143.926H267.035C267.961 143.926 268.713 143.176 268.713 142.249C268.713 141.323 267.961 140.572 267.035 140.572Z" fill="#8991B1"/>
<path d="M267.035 134.978H254.424C253.497 134.978 252.746 135.729 252.746 136.655C252.746 137.582 253.497 138.332 254.424 138.332H267.035C267.961 138.332 268.713 137.582 268.713 136.655C268.713 135.729 267.961 134.978 267.035 134.978Z" fill="#8991B1"/>
<path d="M267.035 129.384H254.424C253.497 129.384 252.746 130.135 252.746 131.061C252.746 131.987 253.497 132.738 254.424 132.738H267.035C267.961 132.738 268.713 131.987 268.713 131.061C268.713 130.135 267.961 129.384 267.035 129.384Z" fill="#8991B1"/>
<path d="M248.623 188.428C253.886 188.428 258.153 184.164 258.153 178.905C258.153 173.645 253.886 169.381 248.623 169.381C243.36 169.381 239.094 173.645 239.094 178.905C239.094 184.164 243.36 188.428 248.623 188.428Z" fill="#B8C8E3"/>
<path d="M248.622 186.439C252.786 186.439 256.161 183.066 256.161 178.905C256.161 174.743 252.786 171.37 248.622 171.37C244.458 171.37 241.082 174.743 241.082 178.905C241.082 183.066 244.458 186.439 248.622 186.439Z" fill="#F77820"/>
<path d="M248.615 184.93C251.945 184.93 254.645 182.232 254.645 178.905C254.645 175.577 251.945 172.879 248.615 172.879C245.285 172.879 242.586 175.577 242.586 178.905C242.586 182.232 245.285 184.93 248.615 184.93Z" fill="#EE5E0E"/>
<path d="M252.385 175.155C251.99 174.763 251.455 174.543 250.899 174.543C250.342 174.543 249.807 174.763 249.412 175.155L244.869 179.707C244.478 180.1 244.258 180.632 244.258 181.187C244.258 181.741 244.478 182.273 244.869 182.666C245.062 182.863 245.293 183.019 245.547 183.126C245.801 183.232 246.074 183.287 246.35 183.287C246.625 183.287 246.898 183.232 247.152 183.126C247.407 183.019 247.637 182.863 247.83 182.666L252.385 178.126C252.777 177.731 252.998 177.197 252.998 176.641C252.998 176.084 252.777 175.55 252.385 175.155Z" fill="#F77820"/>
<path d="M249.719 175.447L245.167 179.996C244.512 180.651 244.512 181.713 245.167 182.367C245.822 183.022 246.885 183.022 247.54 182.367L252.092 177.819C252.747 177.164 252.747 176.102 252.092 175.447C251.437 174.792 250.374 174.792 249.719 175.447Z" fill="#D23600"/>
<path d="M222.561 199.52C224.448 199.52 225.977 197.992 225.977 196.106C225.977 194.221 224.448 192.692 222.561 192.692C220.674 192.692 219.145 194.221 219.145 196.106C219.145 197.992 220.674 199.52 222.561 199.52Z" fill="#B8C8E3"/>
<path d="M222.561 198.813C224.057 198.813 225.27 197.601 225.27 196.106C225.27 194.611 224.057 193.399 222.561 193.399C221.064 193.399 219.852 194.611 219.852 196.106C219.852 197.601 221.064 198.813 222.561 198.813Z" fill="#F71B23"/>
<path d="M222.564 198.263C223.756 198.263 224.722 197.297 224.722 196.106C224.722 194.916 223.756 193.95 222.564 193.95C221.372 193.95 220.406 194.916 220.406 196.106C220.406 197.297 221.372 198.263 222.564 198.263Z" fill="#D8110F"/>
<path d="M230.799 199.52C232.686 199.52 234.215 197.992 234.215 196.106C234.215 194.221 232.686 192.692 230.799 192.692C228.912 192.692 227.383 194.221 227.383 196.106C227.383 197.992 228.912 199.52 230.799 199.52Z" fill="#B8C8E3"/>
<path d="M230.795 198.813C232.291 198.813 233.504 197.601 233.504 196.106C233.504 194.611 232.291 193.399 230.795 193.399C229.299 193.399 228.086 194.611 228.086 196.106C228.086 197.601 229.299 198.813 230.795 198.813Z" fill="#0B9784"/>
<path d="M230.794 198.263C231.986 198.263 232.952 197.297 232.952 196.106C232.952 194.916 231.986 193.95 230.794 193.95C229.603 193.95 228.637 194.916 228.637 196.106C228.637 197.297 229.603 198.263 230.794 198.263Z" fill="#0BCEB5"/>
<path d="M239.022 199.52C240.909 199.52 242.438 197.992 242.438 196.106C242.438 194.221 240.909 192.692 239.022 192.692C237.135 192.692 235.605 194.221 235.605 196.106C235.605 197.992 237.135 199.52 239.022 199.52Z" fill="#B8C8E3"/>
<path d="M239.022 198.813C240.518 198.813 241.731 197.601 241.731 196.106C241.731 194.611 240.518 193.399 239.022 193.399C237.525 193.399 236.312 194.611 236.312 196.106C236.312 197.601 237.525 198.813 239.022 198.813Z" fill="#FFA100"/>
<path d="M239.017 198.263C240.209 198.263 241.175 197.297 241.175 196.106C241.175 194.916 240.209 193.95 239.017 193.95C237.825 193.95 236.859 194.916 236.859 196.106C236.859 197.297 237.825 198.263 239.017 198.263Z" fill="#FF7C00"/>
<g style="mix-blend-mode:multiply" opacity="0.29">
<path d="M215.857 59.5471H183.697L96.3242 146.909C96.5245 155.601 98.5275 164.157 102.206 172.035C105.885 179.914 111.16 186.944 117.697 192.68L244.194 66.2672C235.408 61.8348 225.7 59.5326 215.857 59.5471Z" fill="#B8C8E3"/>
<path d="M277.76 110.745C277.448 109.092 277.065 107.463 276.621 105.857L173.941 208.481H179.935L277.76 110.745Z" fill="#B8C8E3"/>
<path d="M270.265 90.7879C267.984 86.8899 265.292 83.2475 262.234 79.9231L137.57 204.503C142.516 206.345 147.676 207.553 152.925 208.097L270.265 90.7879Z" fill="#B8C8E3"/>
</g>
<g style="mix-blend-mode:multiply" opacity="0.42">
<path d="M215.859 60.6611C232.277 60.6801 248.016 67.206 259.625 78.8072C271.234 90.4084 277.765 106.137 277.784 122.544V145.484C277.761 161.889 271.23 177.616 259.622 189.217C248.014 200.817 232.276 207.344 215.859 207.367H159.281C142.865 207.344 127.127 200.817 115.519 189.217C103.91 177.616 97.3791 161.889 97.3569 145.484V122.604C97.3759 106.197 103.906 90.4682 115.515 78.8671C127.124 67.2659 142.864 60.74 159.281 60.721H215.859M215.859 59.6069H159.281C142.568 59.626 126.545 66.2692 114.727 78.0793C102.909 89.8894 96.2612 105.902 96.2422 122.604V145.484C96.2612 162.186 102.909 178.198 114.727 190.008C126.545 201.818 142.568 208.462 159.281 208.481H215.859C232.572 208.462 248.596 201.818 260.414 190.008C272.232 178.198 278.879 162.186 278.898 145.484V122.604C278.879 105.902 272.232 89.8894 260.414 78.0793C248.596 66.2692 232.572 59.626 215.859 59.6069Z" fill="#B8C8E3"/>
</g>
<path d="M190.086 69.0583H159.279C129.72 69.0583 105.758 93.0047 105.758 122.544V145.424C105.758 174.963 129.72 198.91 159.279 198.91H190.086C219.645 198.91 243.607 174.963 243.607 145.424V122.544C243.607 93.0047 219.645 69.0583 190.086 69.0583Z" fill="#B8C8E3"/>
<path d="M186.541 71.8494H162.843C132.867 71.8494 108.566 96.1336 108.566 126.09V141.866C108.566 171.822 132.867 196.106 162.843 196.106H186.541C216.517 196.106 240.818 171.822 240.818 141.866V126.09C240.818 96.1336 216.517 71.8494 186.541 71.8494Z" fill="#3B1678"/>
<path d="M151.958 10.4138C151.512 9.6322 150.518 9.35849 149.739 9.8025C148.96 10.2465 148.69 11.2401 149.136 12.0217L170.67 49.7653C171.116 50.5469 172.109 50.8206 172.888 50.3766C173.667 49.9326 173.938 48.939 173.492 48.1574L151.958 10.4138Z" fill="#EAEFF7"/>
<path d="M153.446 7.89397C150.605 8.33986 148.025 9.80995 146.194 12.0267L144.863 12.7814L145.666 14.2068C146.326 15.4047 149.083 15.0214 151.816 13.4641C154.549 11.9069 156.251 9.70278 155.591 8.55281L154.776 7.12732L153.446 7.89397Z" fill="#C5C6BE"/>
<path d="M150.933 11.8628C153.671 10.3031 155.358 8.10679 154.702 6.95735C154.047 5.8079 151.296 6.14054 148.558 7.70031C145.821 9.26009 144.133 11.4563 144.789 12.6058C145.445 13.7552 148.196 13.4226 150.933 11.8628Z" fill="#EAEFF7"/>
<path d="M203.897 50.4191C203.597 50.4144 203.304 50.3318 203.046 50.1795C202.856 50.0671 202.69 49.9185 202.558 49.7421C202.425 49.5656 202.329 49.3648 202.275 49.1512C202.22 48.9376 202.208 48.7153 202.24 48.4971C202.271 48.2789 202.346 48.0691 202.458 47.8795L207.409 39.4943C207.534 39.2771 207.707 39.091 207.915 38.9499C208.122 38.8089 208.359 38.7165 208.608 38.6798L211.712 38.2964L210.418 34.7028C210.323 34.4507 210.291 34.1796 210.325 33.9125C210.358 33.6455 210.456 33.3905 210.609 33.1695C210.765 32.9482 210.971 32.7674 211.211 32.6423C211.451 32.5172 211.717 32.4515 211.988 32.4507H215.968L215.104 25.7665C215.055 25.4023 215.127 25.0319 215.308 24.7124L223.699 10.194C223.809 10.0028 223.956 9.83527 224.131 9.70083C224.306 9.56639 224.506 9.46769 224.719 9.4104C224.932 9.35312 225.154 9.33837 225.373 9.36696C225.592 9.39555 225.803 9.46693 225.995 9.57705C226.186 9.68716 226.353 9.83385 226.488 10.0087C226.623 10.1836 226.721 10.3833 226.779 10.5963C226.836 10.8093 226.851 11.0315 226.822 11.2502C226.793 11.4689 226.722 11.6799 226.612 11.871L218.545 25.8863L219.576 33.9122C219.61 34.1495 219.593 34.3915 219.525 34.6215C219.457 34.8514 219.339 35.0638 219.181 35.2439C219.022 35.424 218.827 35.5674 218.607 35.6643C218.387 35.7611 218.149 35.8091 217.909 35.8048H214.433L215.632 39.123C215.719 39.3597 215.752 39.6131 215.727 39.8642C215.702 40.1153 215.62 40.3575 215.488 40.5724C215.361 40.7858 215.187 40.9676 214.979 41.1045C214.771 41.2414 214.536 41.3298 214.289 41.363L209.914 41.9021L205.371 49.6045C205.219 49.8581 205.003 50.067 204.744 50.2101C204.485 50.3531 204.193 50.4252 203.897 50.4191Z" fill="#EAEFF7"/>
<path d="M222.007 7.89397C223.428 8.08016 224.795 8.55728 226.023 9.29549C227.279 9.97732 228.384 10.9064 229.272 12.0267L230.602 12.7814L229.787 14.2068C229.128 15.4047 226.383 15.0214 223.638 13.4641C220.893 11.9069 219.214 9.70278 219.874 8.55281L220.677 7.12732L222.007 7.89397Z" fill="#C5C6BE"/>
<path d="M230.749 12.8797C231.405 11.7302 229.718 9.53398 226.98 7.9742C224.242 6.41443 221.492 6.0818 220.836 7.23125C220.18 8.38069 221.868 10.5769 224.605 12.1367C227.343 13.6965 230.093 14.0291 230.749 12.8797Z" fill="#EAEFF7"/>
<path d="M321.177 269.537C322.227 269.551 323.25 269.201 324.07 268.545C324.889 267.89 325.456 266.97 325.673 265.943C325.852 265.129 324.606 264.745 324.474 265.596C324.33 266.348 323.926 267.026 323.332 267.51C322.738 267.994 321.992 268.254 321.225 268.243C321.054 268.243 320.889 268.311 320.768 268.433C320.646 268.554 320.578 268.719 320.578 268.89C320.578 269.062 320.646 269.226 320.768 269.347C320.889 269.469 321.054 269.537 321.225 269.537H321.177Z" fill="#0BCEB5"/>
<path d="M320.802 271.585C321.724 272.13 322.537 272.84 323.199 273.682C323.289 273.827 323.43 273.932 323.595 273.977C323.76 274.021 323.936 274.001 324.086 273.921C324.232 273.832 324.337 273.689 324.379 273.524C324.422 273.359 324.398 273.183 324.314 273.035C323.539 272.012 322.579 271.142 321.485 270.471C321.412 270.428 321.331 270.4 321.247 270.388C321.162 270.376 321.077 270.38 320.994 270.401C320.912 270.423 320.835 270.46 320.767 270.511C320.699 270.562 320.641 270.626 320.598 270.699C320.555 270.772 320.526 270.853 320.514 270.937C320.502 271.021 320.507 271.107 320.528 271.189C320.549 271.271 320.586 271.349 320.637 271.417C320.689 271.485 320.753 271.542 320.826 271.585H320.802Z" fill="white"/>
<path d="M322.426 270.878C323.476 271.142 324.576 271.142 325.626 270.878C326.429 270.687 326.094 269.441 325.278 269.68C324.456 269.884 323.596 269.884 322.773 269.68C322.631 269.679 322.493 269.723 322.379 269.808C322.265 269.892 322.182 270.011 322.143 270.147C322.103 270.283 322.11 270.428 322.161 270.56C322.212 270.693 322.305 270.804 322.426 270.878Z" fill="#D8110F"/>
<path d="M270.477 223.646L266.761 219.849C266.402 220.064 266.078 220.292 265.742 220.519C266.57 220.936 267.247 221.602 267.677 222.422C268.107 223.243 268.269 224.178 268.14 225.095C268.885 224.56 269.666 224.076 270.477 223.646Z" fill="#141213"/>
<path d="M275.641 221.346L276.659 221.214C277.391 220.998 278.158 220.807 278.937 220.639C276.25 220.255 273.721 219.14 271.625 217.417C272.792 218.891 274.141 220.211 275.641 221.346Z" fill="#141213"/>
<path d="M322.987 264.326L323.142 265.332L324.149 265.488L323.142 265.644L322.987 266.638L322.831 265.644L321.836 265.488L322.831 265.332L322.987 264.326Z" fill="#FFFF00"/>
<path d="M326.897 266.638L327.053 267.644L328.059 267.8L327.053 267.956L326.897 268.962L326.753 267.956L325.746 267.8L326.753 267.644L326.897 266.638Z" fill="#FFFF00"/>
<path d="M324.388 262.937L324.507 263.392L324.951 263.512L324.507 263.631L324.388 264.075L324.268 263.631L323.824 263.512L324.268 263.392L324.388 262.937Z" fill="#FFFF00"/>
<path d="M326.082 265.249L326.154 265.512L326.43 265.584L326.154 265.656L326.082 265.931L326.022 265.668L325.746 265.584L326.022 265.524L326.082 265.249Z" fill="#FFFF00"/>
<path d="M324.618 266.638L324.69 266.913L324.954 266.985L324.69 267.057L324.618 267.333L324.546 267.057L324.27 266.985L324.546 266.913L324.618 266.638Z" fill="#FFFF00"/>
<path d="M326.082 263.392L326.154 263.655L326.43 263.727L326.154 263.799L326.082 264.075L326.022 263.811L325.746 263.727L326.022 263.667L326.082 263.392Z" fill="#FFFF00"/>
<path d="M316.66 264.973L319.525 265.907L319.909 265.452L321.371 266.35L319.717 264.302L319.309 264.973L317.871 263.152L316.66 264.973Z" fill="#FFFF00"/>
<path d="M320.555 263.631L321.058 264.805H321.31L321.43 265.524L321.621 264.422L321.298 264.47L321.466 263.512L320.555 263.631Z" fill="#FFFF00"/>
<path d="M114.539 122.951L115.318 122.52L115.75 121.741L116.181 122.52L116.96 122.951L116.181 123.383L115.75 124.161L115.318 123.383L114.539 122.951Z" fill="#8C2094"/>
<path d="M164.129 109.619L164.908 109.188L165.339 108.409L165.759 109.188L166.538 109.619L165.759 110.038L165.339 110.829L164.908 110.038L164.129 109.619Z" fill="#8C2094"/>
<path d="M180.906 122.724L181.685 122.292L182.117 121.514L182.536 122.292L183.327 122.724L182.536 123.155L182.117 123.933L181.685 123.155L180.906 122.724Z" fill="#8C2094"/>
<path d="M190.699 119.957L191.478 119.537L191.91 118.747L192.341 119.537L193.121 119.957L192.341 120.388L191.91 121.166L191.478 120.388L190.699 119.957Z" fill="#8C2094"/>
<path d="M232.508 138.332L233.287 137.913L233.718 137.122L234.138 137.913L234.929 138.332L234.138 138.763L233.718 139.542L233.287 138.763L232.508 138.332Z" fill="#8C2094"/>
<path d="M197.691 110.313L198.47 109.882L198.902 109.104L199.322 109.882L200.113 110.313L199.322 110.745L198.902 111.523L198.47 110.745L197.691 110.313Z" fill="#8C2094"/>
<path d="M190.699 109.799L191.478 109.367L191.91 108.589L192.341 109.367L193.121 109.799L192.341 110.218L191.91 111.008L191.478 110.218L190.699 109.799Z" fill="#8C2094"/>
<path d="M203.023 123.934L203.803 123.502L204.234 122.724L204.666 123.502L205.445 123.934L204.666 124.365L204.234 125.143L203.803 124.365L203.023 123.934Z" fill="#8C2094"/>
<path d="M206.547 91.2552L206.835 91.0995L207.002 90.812L207.158 91.0995L207.434 91.2552L207.158 91.411L207.002 91.6985L206.835 91.411L206.547 91.2552Z" fill="#8C2094"/>
<path d="M197.102 101.689L197.389 101.533L197.545 101.245L197.701 101.533L197.989 101.689L197.701 101.844L197.545 102.132L197.389 101.844L197.102 101.689Z" fill="#8C2094"/>
<path d="M192.41 104.791L192.698 104.636L192.854 104.348L193.01 104.636L193.297 104.791L193.01 104.947L192.854 105.234L192.698 104.947L192.41 104.791Z" fill="#8C2094"/>
<path d="M221.754 175.311L222.042 175.155L222.197 174.868L222.353 175.155L222.641 175.311L222.353 175.467L222.197 175.754L222.042 175.467L221.754 175.311Z" fill="#8C2094"/>
<path d="M232.508 157.558L232.795 157.391L232.951 157.103L233.107 157.391L233.395 157.558L233.107 157.714L232.951 158.001L232.795 157.714L232.508 157.558Z" fill="#8C2094"/>
<path d="M182.871 191.494L183.159 191.339L183.327 191.051L183.482 191.339L183.77 191.494L183.482 191.65L183.327 191.938L183.159 191.65L182.871 191.494Z" fill="#8C2094"/>
<path d="M202.578 188.428L202.866 188.272L203.022 187.985L203.177 188.272L203.465 188.428L203.177 188.584L203.022 188.871L202.866 188.584L202.578 188.428Z" fill="#8C2094"/>
<path d="M184.883 174.101L185.17 173.945L185.326 173.658L185.482 173.945L185.77 174.101L185.482 174.257L185.326 174.544L185.17 174.257L184.883 174.101Z" fill="#8C2094"/>
<path d="M151.348 76.7129L151.635 76.5452L151.803 76.2577L151.959 76.5452L152.247 76.7129L151.959 76.8686L151.803 77.1561L151.635 76.8686L151.348 76.7129Z" fill="#8C2094"/>
<path d="M169.77 84.8824L170.057 84.7267L170.213 84.4392L170.369 84.7267L170.657 84.8824L170.369 85.0382L170.213 85.3256L170.057 85.0382L169.77 84.8824Z" fill="#8C2094"/>
<path d="M175.848 76.7129L176.135 76.5452L176.291 76.2577L176.459 76.5452L176.735 76.7129L176.459 76.8686L176.291 77.1561L176.135 76.8686L175.848 76.7129Z" fill="#8C2094"/>
<path d="M212.516 85.7689L212.803 85.6132L212.959 85.3257L213.115 85.6132L213.403 85.7689L213.115 85.9246L212.959 86.2121L212.803 85.9246L212.516 85.7689Z" fill="#8C2094"/>
<path d="M200.16 117.741L200.448 117.585L200.604 117.297L200.76 117.585L201.047 117.741L200.76 117.896L200.604 118.184L200.448 117.896L200.16 117.741Z" fill="#8C2094"/>
<path d="M190.316 126.713L190.7 126.497L190.904 126.114L191.119 126.497L191.491 126.713L191.119 126.916L190.904 127.3L190.7 126.916L190.316 126.713Z" fill="#8C2094"/>
<path d="M185.988 140.201L186.372 139.985L186.576 139.614L186.779 139.985L187.163 140.201L186.779 140.405L186.576 140.788L186.372 140.405L185.988 140.201Z" fill="#8C2094"/>
<path d="M200.012 137.625L200.395 137.41L200.599 137.038L200.815 137.41L201.186 137.625L200.815 137.829L200.599 138.212L200.395 137.829L200.012 137.625Z" fill="#8C2094"/>
<path d="M153.309 128.821L153.692 128.617L153.896 128.234L154.112 128.617L154.495 128.821L154.112 129.037L153.896 129.42L153.692 129.037L153.309 128.821Z" fill="#8C2094"/>
<path d="M156.379 122.724L156.763 122.52L156.966 122.137L157.182 122.52L157.566 122.724L157.182 122.927L156.966 123.311L156.763 122.927L156.379 122.724Z" fill="#8C2094"/>
<path d="M148.445 115.656L148.829 115.441L149.033 115.057L149.236 115.441L149.62 115.656L149.236 115.86L149.033 116.243L148.829 115.86L148.445 115.656Z" fill="#8C2094"/>
<path d="M155.793 115.057L156.177 114.854L156.38 114.47L156.596 114.854L156.968 115.057L156.596 115.273L156.38 115.656L156.177 115.273L155.793 115.057Z" fill="#8C2094"/>
<path d="M144.355 108.301L144.739 108.097L144.943 107.714L145.147 108.097L145.53 108.301L145.147 108.517L144.943 108.9L144.739 108.517L144.355 108.301Z" fill="#8C2094"/>
<path d="M145.355 142.237L146.135 142.656L146.566 143.447L146.986 142.656L147.777 142.237L146.986 141.806L146.566 141.027L146.135 141.806L145.355 142.237Z" fill="#8C2094"/>
<path d="M156.094 181.456L156.873 181.887L157.304 182.666L157.724 181.887L158.515 181.456L157.724 181.037L157.304 180.246L156.873 181.037L156.094 181.456Z" fill="#8C2094"/>
<path d="M166.902 169.333L167.682 169.753L168.113 170.543L168.545 169.753L169.324 169.333L168.545 168.902L168.113 168.124L167.682 168.902L166.902 169.333Z" fill="#8C2094"/>
<path d="M207.312 174.101L208.092 174.532L208.523 175.311L208.955 174.532L209.734 174.101L208.955 173.682L208.523 172.891L208.092 173.682L207.312 174.101Z" fill="#8C2094"/>
<path d="M224.172 148.323L224.963 148.754L225.383 149.533L225.814 148.754L226.593 148.323L225.814 147.903L225.383 147.113L224.963 147.903L224.172 148.323Z" fill="#8C2094"/>
<path d="M204.23 159.966L205.01 160.397L205.441 161.176L205.873 160.397L206.652 159.966L205.873 159.547L205.441 158.768L205.01 159.547L204.23 159.966Z" fill="#8C2094"/>
<path d="M170.191 103.138L170.971 103.569L171.402 104.348L171.834 103.569L172.613 103.138L171.834 102.707L171.402 101.928L170.971 102.707L170.191 103.138Z" fill="#8C2094"/>
<path d="M170.191 127.3L170.971 127.731L171.402 128.51L171.834 127.731L172.613 127.3L171.834 126.868L171.402 126.09L170.971 126.868L170.191 127.3Z" fill="#8C2094"/>
<path d="M150.59 89.6021L151.369 90.0213L151.801 90.812L152.22 90.0213L152.999 89.6021L152.22 89.1709L151.801 88.3922L151.369 89.1709L150.59 89.6021Z" fill="#8C2094"/>
<path d="M185.836 75.503L186.615 75.9222L187.035 76.7128L187.466 75.9222L188.245 75.503L187.466 75.0717L187.035 74.2931L186.615 75.0717L185.836 75.503Z" fill="#8C2094"/>
<path d="M229.973 96.6935L230.752 97.1128L231.183 97.9034L231.615 97.1128L232.394 96.6935L231.615 96.2623L231.183 95.4836L230.752 96.2623L229.973 96.6935Z" fill="#8C2094"/>
<path d="M219.781 135.829L220.572 136.26L221.004 137.038L221.423 136.26L222.203 135.829L221.423 135.397L221.004 134.619L220.572 135.397L219.781 135.829Z" fill="#8C2094"/>
<path d="M219.781 94.8966L220.572 95.3159L221.004 96.1065L221.423 95.3159L222.203 94.8966L221.423 94.4654L221.004 93.6868L220.572 94.4654L219.781 94.8966Z" fill="#8C2094"/>
<path d="M178.688 104.791L179.467 105.223L179.898 106.001L180.318 105.223L181.097 104.791L180.318 104.36L179.898 103.581L179.467 104.36L178.688 104.791Z" fill="#8C2094"/>
<path d="M116.957 164.242L117.736 164.674L118.168 165.452L118.587 164.674L119.378 164.242L118.587 163.811L118.168 163.033L117.736 163.811L116.957 164.242Z" fill="#8C2094"/>
<path d="M140.008 174.101L140.787 174.532L141.218 175.311L141.65 174.532L142.429 174.101L141.65 173.682L141.218 172.891L140.787 173.682L140.008 174.101Z" fill="#8C2094"/>
<path d="M231.176 186.236L231.955 186.655L232.386 187.446L232.806 186.655L233.597 186.236L232.806 185.804L232.386 185.026L231.955 185.804L231.176 186.236Z" fill="#8C2094"/>
<path d="M184.121 158.768L184.9 159.187L185.332 159.966L185.763 159.187L186.542 158.768L185.763 158.337L185.332 157.558L184.9 158.337L184.121 158.768Z" fill="#8C2094"/>
<path d="M161.645 151.832L162.424 152.264L162.855 153.042L163.275 152.264L164.066 151.832L163.275 151.413L162.855 150.623L162.424 151.413L161.645 151.832Z" fill="#8C2094"/>
<path d="M130.941 163.033L131.721 163.464L132.152 164.242L132.572 163.464L133.363 163.033L132.572 162.601L132.152 161.823L131.721 162.601L130.941 163.033Z" fill="#8C2094"/>
<path d="M149.406 154.743L149.79 154.947L150.006 155.33L150.209 154.947L150.593 154.743L150.209 154.528L150.006 154.144L149.79 154.528L149.406 154.743Z" fill="#8C2094"/>
<path d="M125.457 144.909L125.841 145.124L126.044 145.496L126.26 145.124L126.632 144.909L126.26 144.705L126.044 144.322L125.841 144.705L125.457 144.909Z" fill="#8C2094"/>
<path d="M173.848 186.02L174.231 186.236L174.435 186.619L174.639 186.236L175.022 186.02L174.639 185.816L174.435 185.433L174.231 185.816L173.848 186.02Z" fill="#8C2094"/>
<path d="M185.859 144.429L186.243 144.633L186.447 145.016L186.663 144.633L187.034 144.429L186.663 144.214L186.447 143.842L186.243 144.214L185.859 144.429Z" fill="#8C2094"/>
<path d="M194.836 152.539L195.207 152.743L195.423 153.126L195.627 152.743L196.011 152.539L195.627 152.323L195.423 151.94L195.207 152.323L194.836 152.539Z" fill="#8C2094"/>
<path d="M169.016 143.459L169.387 143.675L169.603 144.058L169.807 143.675L170.19 143.459L169.807 143.256L169.603 142.872L169.387 143.256L169.016 143.459Z" fill="#8C2094"/>
<path d="M124.277 99.2451L124.649 99.4487L124.865 99.832L125.069 99.4487L125.452 99.2451L125.069 99.0294L124.865 98.6581L124.649 99.0294L124.277 99.2451Z" fill="#8C2094"/>
<path d="M118.777 115.201L119.161 115.416L119.377 115.8L119.581 115.416L119.964 115.201L119.581 114.997L119.377 114.614L119.161 114.997L118.777 115.201Z" fill="#8C2094"/>
<path d="M135.496 122.137L135.88 122.34L136.083 122.724L136.299 122.34L136.671 122.137L136.299 121.933L136.083 121.55L135.88 121.933L135.496 122.137Z" fill="#8C2094"/>
<path d="M136.086 107.714L136.469 107.93L136.673 108.301L136.889 107.93L137.273 107.714L136.889 107.51L136.673 107.127L136.469 107.51L136.086 107.714Z" fill="#8C2094"/>
<path d="M133.367 145.495L133.739 145.711L133.955 146.094L134.158 145.711L134.542 145.495L134.158 145.292L133.955 144.908L133.739 145.292L133.367 145.495Z" fill="#8C2094"/>
<path d="M180.508 89.6021L180.891 89.8058L181.095 90.1891L181.311 89.8058L181.695 89.6021L181.311 89.3865L181.095 89.0032L180.891 89.3865L180.508 89.6021Z" fill="#8C2094"/>
<path d="M224.789 115.057L225.173 115.273L225.376 115.656L225.592 115.273L225.964 115.057L225.592 114.854L225.376 114.47L225.173 114.854L224.789 115.057Z" fill="#8C2094"/>
<path d="M134.914 94.8967L135.298 94.681L135.502 94.2977L135.705 94.681L136.089 94.8967L135.705 95.1003L135.502 95.4836L135.298 95.1003L134.914 94.8967Z" fill="#8C2094"/>
<path d="M131.641 81.4805L132.012 81.2649L132.228 80.8936L132.432 81.2649L132.815 81.4805L132.432 81.6842L132.228 82.0675L132.012 81.6842L131.641 81.4805Z" fill="#8C2094"/>
<path d="M179.898 131.42L180.27 131.217L180.486 130.833L180.69 131.217L181.073 131.42L180.69 131.636L180.486 132.007L180.27 131.636L179.898 131.42Z" fill="#8C2094"/>
<path d="M194.332 132.007L194.716 131.804L194.919 131.42L195.123 131.804L195.507 132.007L195.123 132.223L194.919 132.606L194.716 132.223L194.332 132.007Z" fill="#8C2094"/>
<mask id="mask0_144_6851" style="mask-type:luminance" maskUnits="userSpaceOnUse" x="108" y="71" width="133" height="126">
<path d="M186.537 71.8613H162.839C132.863 71.8613 108.562 96.1456 108.562 126.102V141.878C108.562 171.834 132.863 196.118 162.839 196.118H186.537C216.513 196.118 240.814 171.834 240.814 141.878V126.102C240.814 96.1456 216.513 71.8613 186.537 71.8613Z" fill="white"/>
</mask>
<g mask="url(#mask0_144_6851)">
<path d="M161.474 184.271C160.935 186.847 156.248 196.514 158.825 197.053C161.127 197.52 169.709 200.119 170.56 198.023C170.908 198.191 174.288 194.345 174.684 194.429C175.882 194.681 175.882 193.89 176.889 193.315C177.692 196.502 178.4 192.68 181.84 193.387C184.067 193.833 186.381 193.404 188.301 192.189C190.747 195.777 194.43 198.338 198.647 199.383C202.863 200.429 207.317 199.885 211.158 197.856C214.999 195.828 217.957 192.456 219.468 188.385C220.978 184.315 220.935 179.831 219.347 175.79C220.017 176.021 220.702 176.209 221.397 176.353C225.259 177.161 229.281 176.66 232.826 174.927C236.371 173.195 239.237 170.33 240.97 166.788C242.703 163.245 243.205 159.226 242.396 155.366C241.587 151.506 239.513 148.026 236.503 145.476C233.493 142.927 229.717 141.453 225.775 141.287C221.832 141.122 217.947 142.276 214.734 144.565C211.52 146.854 209.163 150.149 208.033 153.928C206.904 157.706 207.068 161.753 208.499 165.428C207.826 165.203 207.142 165.015 206.449 164.865C202.272 164.006 197.924 164.684 194.208 166.776C190.492 168.867 187.657 172.23 186.227 176.245C185.963 176.162 185.7 176.09 185.424 176.03C183.718 175.678 181.946 175.838 180.33 176.488C178.714 177.137 177.325 178.249 176.338 179.683C175.812 179.051 175.132 178.565 174.363 178.271C173.595 177.978 172.763 177.887 171.949 178.007C171.136 178.127 170.366 178.455 169.716 178.958C169.065 179.462 168.555 180.124 168.235 180.881C167.876 180.709 167.498 180.58 167.108 180.498C166.49 180.376 165.854 180.377 165.237 180.5C164.619 180.624 164.032 180.868 163.509 181.218C162.986 181.569 162.537 182.019 162.188 182.542C161.838 183.066 161.596 183.654 161.474 184.271ZM101.6 136.823C98.8844 139.306 97.0025 142.566 96.211 146.158C95.4194 149.75 95.7568 153.499 97.1771 156.892C98.5975 160.285 101.031 163.157 104.146 165.116C107.261 167.075 110.906 168.025 114.581 167.836C114.338 170.063 114.724 172.314 115.697 174.333C116.669 176.352 118.189 178.058 120.083 179.257C121.977 180.456 124.169 181.1 126.411 181.116C128.653 181.132 130.855 180.519 132.766 179.348C133.002 180.602 133.527 181.785 134.298 182.803C135.069 183.821 136.065 184.647 137.209 185.215C138.353 185.784 139.613 186.08 140.891 186.081C142.168 186.081 143.428 185.786 144.573 185.218C145.771 186.775 144.74 197.113 146.802 197.532C149.691 198.131 157.794 194.657 159.7 192.68C162.097 192.824 161.654 184.547 162.097 182.187C162.334 180.997 162.111 179.762 161.473 178.731C160.834 177.699 159.828 176.948 158.657 176.629C152.835 175.647 147.334 173.281 142.619 169.729C141.296 169.449 139.924 169.502 138.627 169.885C138.831 167.149 138.088 164.426 136.524 162.171C134.959 159.917 132.668 158.267 130.033 157.498C130.608 156.257 131.042 154.955 131.327 153.617C131.979 150.425 131.75 147.116 130.665 144.044C129.579 140.971 127.679 138.252 125.166 136.176C127.77 133.717 129.566 130.526 130.315 127.025C131.063 123.523 130.73 119.877 129.359 116.57C127.988 113.262 125.643 110.449 122.636 108.502C119.629 106.556 116.102 105.568 112.52 105.67C108.939 105.772 105.473 106.959 102.582 109.074C99.6909 111.188 97.5109 114.131 96.3306 117.511C95.1504 120.892 95.0257 124.551 95.973 128.004C96.9204 131.457 98.8952 134.541 101.636 136.847L101.6 136.823Z" fill="url(#paint0_radial_144_6851)"/>
<g opacity="0.2">
<path d="M124.988 136.847L125.42 136.416C127.837 138.5 129.655 141.19 130.687 144.209C131.719 147.228 131.928 150.467 131.293 153.593C131.293 153.713 131.233 153.833 131.197 153.965C131.791 150.817 131.528 147.568 130.436 144.557C129.344 141.546 127.462 138.883 124.988 136.847Z" fill="white"/>
<path d="M158.476 177.299C152.654 176.318 147.153 173.952 142.438 170.4C141.114 170.125 139.744 170.179 138.446 170.555C138.65 167.819 137.907 165.097 136.343 162.842C134.778 160.588 132.487 158.938 129.852 158.169C129.947 157.954 130.043 157.738 130.127 157.522C132.729 158.314 134.985 159.967 136.523 162.209C138.061 164.451 138.79 167.15 138.59 169.861C139.887 169.478 141.259 169.425 142.582 169.705C143.745 171.244 145.411 172.326 147.29 172.764C149.169 173.201 151.143 172.967 152.866 172.101C154.116 172.357 155.289 172.9 156.293 173.685C157.298 174.471 158.106 175.478 158.656 176.629C159.848 176.93 160.877 177.678 161.533 178.717C162.189 179.755 162.421 181.006 162.18 182.211C162.151 182.333 162.115 182.453 162.072 182.57C162.225 181.404 161.943 180.222 161.28 179.25C160.616 178.278 159.619 177.584 158.476 177.299Z" fill="white"/>
<path d="M116.427 106.684C111.884 105.749 107.156 106.635 103.261 109.152C99.3664 111.668 96.6169 115.613 95.6055 120.136C95.6055 120.004 95.6054 119.861 95.6773 119.729C96.1178 117.425 97.0127 115.232 98.3097 113.277C99.6067 111.322 101.28 109.645 103.232 108.342C105.184 107.04 107.376 106.139 109.68 105.691C111.984 105.244 114.354 105.259 116.652 105.736C118.95 106.212 121.13 107.141 123.066 108.468C125.001 109.796 126.653 111.494 127.925 113.465C129.197 115.437 130.064 117.641 130.475 119.95C130.886 122.26 130.833 124.628 130.319 126.916C130.319 127.048 130.319 127.168 130.224 127.3C131.094 122.741 130.134 118.024 127.553 114.166C124.971 110.309 120.975 107.621 116.427 106.684Z" fill="white"/>
<path d="M161.998 182.894C162.5 182.024 163.263 181.334 164.18 180.921C165.096 180.508 166.119 180.394 167.104 180.594C167.493 180.676 167.872 180.805 168.231 180.977C168.551 180.22 169.061 179.557 169.712 179.054C170.362 178.551 171.131 178.223 171.945 178.103C172.759 177.982 173.591 178.073 174.359 178.367C175.128 178.661 175.808 179.147 176.334 179.779C177.321 178.345 178.71 177.233 180.326 176.583C181.942 175.934 183.714 175.774 185.42 176.126C185.695 176.185 185.959 176.257 186.223 176.341C187.653 172.326 190.488 168.963 194.204 166.872C197.92 164.78 202.268 164.102 206.445 164.961C206.996 165.081 207.524 165.225 208.051 165.392C208.147 165.668 208.243 165.955 208.351 166.219C207.678 165.993 206.994 165.806 206.301 165.656C202.124 164.797 197.776 165.475 194.06 167.566C190.344 169.658 187.51 173.021 186.079 177.036C185.815 176.952 185.552 176.88 185.276 176.82C183.57 176.469 181.798 176.628 180.182 177.278C178.566 177.928 177.177 179.04 176.19 180.474C175.664 179.842 174.984 179.355 174.215 179.062C173.447 178.768 172.615 178.677 171.802 178.797C170.988 178.918 170.218 179.245 169.568 179.749C168.917 180.252 168.407 180.914 168.087 181.672C167.728 181.5 167.35 181.371 166.96 181.288C165.783 181.051 164.559 181.264 163.531 181.885C162.504 182.507 161.747 183.49 161.41 184.643C161.41 184.535 161.41 184.415 161.41 184.295C161.679 183.862 161.878 183.389 161.998 182.894Z" fill="white"/>
<path d="M228.403 142.465C223.862 141.526 219.134 142.41 215.239 144.924C211.343 147.439 208.593 151.383 207.582 155.905C207.582 155.773 207.582 155.642 207.582 155.498C208.054 153.224 208.97 151.065 210.277 149.145C211.584 147.225 213.257 145.581 215.2 144.307C217.143 143.032 219.318 142.153 221.601 141.719C223.884 141.285 226.23 141.304 228.505 141.776C230.781 142.248 232.941 143.163 234.862 144.469C236.784 145.776 238.429 147.447 239.704 149.389C240.979 151.33 241.859 153.504 242.293 155.785C242.728 158.067 242.708 160.411 242.236 162.685C242.236 162.805 242.236 162.913 242.152 163.033C243.01 158.488 242.05 153.789 239.48 149.944C236.909 146.098 232.933 143.413 228.403 142.465Z" fill="white"/>
<path d="M219.643 176.629C220.627 179.574 220.817 182.727 220.194 185.769C220.194 185.864 220.194 185.96 220.11 186.056C220.708 182.839 220.392 179.52 219.199 176.473L219.643 176.629Z" fill="white"/>
</g>
<path d="M163.283 194.873C162.794 194.877 162.308 194.937 161.833 195.052C161.651 194.055 161.213 193.123 160.561 192.347C159.91 191.571 159.067 190.977 158.116 190.626C157.165 190.274 156.139 190.176 155.139 190.341C154.138 190.506 153.198 190.928 152.411 191.566C151.59 189.597 150.204 187.916 148.426 186.734C146.649 185.553 144.56 184.925 142.426 184.93C142.085 184.932 141.745 184.952 141.407 184.99C140.687 179.817 138.12 175.079 134.179 171.649C130.238 168.219 125.188 166.329 119.962 166.327C119.093 166.328 118.224 166.384 117.361 166.495C119.972 162.449 121.16 157.65 120.738 152.854C120.315 148.059 118.305 143.541 115.026 140.014C111.748 136.487 107.386 134.153 102.632 133.379C97.877 132.605 93.0001 133.437 88.7711 135.742C84.5421 138.047 81.2021 141.695 79.2789 146.108C77.3556 150.522 76.9585 155.45 78.1506 160.115C79.3426 164.779 82.0557 168.913 85.8613 171.865C89.6668 174.816 94.348 176.417 99.1652 176.413C100.035 176.408 100.904 176.348 101.766 176.234C98.8776 180.69 97.729 186.053 98.5391 191.301C99.3492 196.549 102.061 201.317 106.16 204.697C110.258 208.076 115.457 209.833 120.767 209.632C126.077 209.43 131.127 207.286 134.958 203.605C136.191 204.79 137.688 205.665 139.326 206.158C140.964 206.651 142.696 206.747 144.378 206.439C146.061 206.132 147.646 205.428 149.003 204.388C150.36 203.347 151.45 201.999 152.183 200.455C153.257 201.417 154.648 201.951 156.091 201.952C156.581 201.95 157.068 201.885 157.541 201.761C157.742 202.851 158.249 203.862 159.004 204.674C159.758 205.487 160.729 206.068 161.802 206.349C162.875 206.631 164.007 206.6 165.063 206.262C166.12 205.924 167.058 205.292 167.768 204.44C168.478 203.588 168.931 202.552 169.073 201.452C169.214 200.353 169.04 199.236 168.569 198.232C168.099 197.228 167.351 196.378 166.415 195.784C165.479 195.189 164.393 194.873 163.283 194.873ZM264.141 139.554C264.147 136.147 263.349 132.787 261.812 129.746C260.275 126.705 258.042 124.069 255.294 122.051C252.547 120.034 249.362 118.693 245.998 118.137C242.635 117.58 239.188 117.824 235.936 118.849C232.685 119.873 229.721 121.649 227.285 124.033C224.849 126.417 223.01 129.341 221.917 132.568C220.824 135.795 220.508 139.235 220.994 142.607C221.48 145.979 222.755 149.189 224.716 151.976C220.416 154.227 216.988 157.846 214.973 162.26C212.959 166.674 212.473 171.632 213.592 176.353C210.241 176.632 207.085 178.046 204.648 180.362C202.211 182.678 200.638 185.756 200.191 189.087C197.374 190.3 194.318 190.859 191.254 190.722C188.189 190.585 185.196 189.756 182.498 188.296C180.953 188.295 179.427 188.647 178.039 189.326C176.651 190.005 175.437 190.993 174.491 192.213C173.042 192.286 171.671 192.894 170.645 193.919C169.62 194.945 169.012 196.315 168.94 197.763C168.869 199.211 169.338 200.634 170.257 201.756C171.177 202.878 172.481 203.618 173.915 203.833C181.319 203.905 188.642 205.385 195.492 208.193C197.502 208.193 199.468 207.597 201.139 206.479C202.81 205.362 204.111 203.774 204.878 201.916C206.89 203.771 209.378 205.03 212.065 205.552C214.752 206.074 217.531 205.84 220.092 204.874C222.653 203.908 224.895 202.249 226.567 200.083C228.238 197.917 229.274 195.329 229.559 192.609C233.906 193.697 238.483 193.427 242.673 191.836C246.863 190.245 250.464 187.409 252.991 183.71C255.518 180.011 256.85 175.627 256.808 171.148C256.765 166.669 255.35 162.311 252.753 158.66C256.203 156.803 259.085 154.045 261.09 150.68C263.095 147.316 264.15 143.47 264.141 139.554Z" fill="url(#paint1_radial_144_6851)"/>
<g opacity="0.2">
<path d="M224.68 152.839C224.536 152.635 224.404 152.419 224.272 152.204C220.849 154.101 217.996 156.878 216.008 160.248C214.021 163.618 212.971 167.458 212.969 171.37C212.969 171.526 212.969 171.682 212.969 171.837C213.045 167.914 214.171 164.083 216.231 160.742C218.29 157.401 221.208 154.672 224.68 152.839Z" fill="white"/>
<path d="M174.453 193.088C181.687 193.359 188.879 191.879 195.418 188.775C197.071 188.778 198.698 189.189 200.153 189.973C200.6 186.641 202.172 183.561 204.609 181.243C207.046 178.926 210.202 177.509 213.554 177.228C213.482 176.952 213.434 176.665 213.374 176.389C210.065 176.713 206.962 178.144 204.569 180.451C202.175 182.758 200.632 185.805 200.189 189.099C197.372 190.312 194.316 190.871 191.251 190.734C188.187 190.597 185.194 189.768 182.496 188.308C180.951 188.306 179.425 188.659 178.037 189.338C176.649 190.017 175.435 191.004 174.489 192.225C172.981 192.287 171.556 192.928 170.511 194.015C169.465 195.102 168.881 196.551 168.879 198.059C168.879 198.215 168.879 198.358 168.879 198.514C168.975 197.082 169.598 195.736 170.626 194.734C171.655 193.733 173.018 193.146 174.453 193.088Z" fill="white"/>
<path d="M242.436 118.759C248.13 118.749 253.6 120.978 257.662 124.966C261.724 128.954 264.053 134.379 264.144 140.069C264.144 139.889 264.144 139.722 264.144 139.554C264.212 136.666 263.701 133.794 262.642 131.106C261.584 128.418 259.998 125.969 257.978 123.903C255.958 121.836 253.545 120.194 250.881 119.073C248.218 117.952 245.356 117.375 242.466 117.375C239.575 117.375 236.714 117.952 234.05 119.073C231.386 120.194 228.973 121.836 226.953 123.903C224.934 125.969 223.348 128.418 222.289 131.106C221.23 133.794 220.719 136.666 220.787 139.554C220.787 139.722 220.787 139.877 220.787 140.045C220.885 134.37 223.208 128.96 227.256 124.979C231.305 120.998 236.756 118.764 242.436 118.759Z" fill="white"/>
<path d="M168.847 198.922C168.463 197.75 167.718 196.731 166.719 196.008C165.72 195.285 164.518 194.896 163.285 194.897C162.796 194.901 162.31 194.961 161.835 195.076C161.653 194.079 161.215 193.147 160.563 192.371C159.912 191.595 159.069 191.001 158.118 190.65C157.167 190.298 156.141 190.2 155.141 190.365C154.14 190.529 153.2 190.952 152.413 191.59C151.592 189.621 150.206 187.939 148.428 186.758C146.651 185.577 144.562 184.949 142.428 184.954C142.087 184.956 141.747 184.976 141.409 185.014C140.689 179.841 138.122 175.103 134.18 171.673C130.239 168.243 125.19 166.353 119.964 166.351C119.279 166.354 118.595 166.394 117.915 166.471C117.735 166.782 117.555 167.094 117.363 167.393C118.226 167.282 119.095 167.226 119.964 167.225C125.189 167.227 130.236 169.116 134.177 172.543C138.118 175.971 140.686 180.706 141.409 185.877C141.745 185.877 142.08 185.877 142.428 185.877C144.562 185.871 146.651 186.499 148.428 187.681C150.206 188.862 151.592 190.544 152.413 192.513C153.2 191.874 154.14 191.452 155.141 191.287C156.141 191.122 157.167 191.22 158.118 191.572C159.069 191.924 159.912 192.517 160.563 193.293C161.215 194.069 161.653 195.002 161.835 195.999C162.308 195.874 162.795 195.809 163.285 195.807C164.759 195.812 166.178 196.372 167.258 197.375C168.337 198.379 168.999 199.752 169.111 201.221C169.111 201.078 169.111 200.934 169.111 200.79C168.921 200.186 168.832 199.555 168.847 198.922Z" fill="white"/>
<path d="M99.1653 133.948C104.849 133.95 110.305 136.184 114.356 140.168C118.408 144.152 120.731 149.567 120.826 155.246C120.826 155.079 120.826 154.911 120.826 154.743C120.826 148.996 118.541 143.484 114.474 139.42C110.408 135.357 104.892 133.073 99.1413 133.073C93.3902 133.073 87.8748 135.357 83.8082 139.42C79.7416 143.484 77.457 148.996 77.457 154.743C77.457 154.887 77.457 155.031 77.457 155.175C77.5701 149.499 79.9081 144.095 83.968 140.126C88.0279 136.156 93.4852 133.937 99.1653 133.948Z" fill="white"/>
</g>
</g>
<g style="mix-blend-mode:overlay" opacity="0.2">
<path d="M214.696 140.129C215.689 140.129 216.495 139.324 216.495 138.332C216.495 137.34 215.689 136.535 214.696 136.535C213.703 136.535 212.898 137.34 212.898 138.332C212.898 139.324 213.703 140.129 214.696 140.129Z" fill="white"/>
</g>
<g style="mix-blend-mode:overlay" opacity="0.2">
<path d="M215.705 137.182L209.185 130.666V131.253L199.895 123.442L199.979 124.017L194.129 120.352L198.372 125.742H197.797L206.883 133.78L206.296 133.864L213.404 139.135C213.544 139.37 213.747 139.561 213.991 139.686C214.322 139.847 214.7 139.883 215.055 139.789C215.411 139.695 215.721 139.476 215.929 139.173C216.137 138.869 216.229 138.501 216.188 138.136C216.147 137.771 215.975 137.432 215.705 137.182Z" fill="white"/>
</g>
<g style="mix-blend-mode:overlay" opacity="0.5">
<path d="M214.374 139.314C214.611 139.025 214.881 138.764 215.177 138.536C215.346 138.358 215.545 138.212 215.765 138.105L211.965 134.295V134.655L206.343 129.923V130.27L198.695 124.425L205.372 131.325H205.024L210.526 136.188H210.179L214.374 139.314Z" fill="white"/>
</g>
<path d="M214.699 139.734C215.474 139.734 216.102 139.106 216.102 138.332C216.102 137.558 215.474 136.931 214.699 136.931C213.925 136.931 213.297 137.558 213.297 138.332C213.297 139.106 213.925 139.734 214.699 139.734Z" fill="#F6FF5E"/>
<path d="M214.07 138.907C213.972 138.906 213.875 138.933 213.792 138.987C213.708 139.04 213.643 139.116 213.603 139.207C213.823 139.484 214.14 139.668 214.49 139.722C214.553 139.63 214.587 139.521 214.586 139.41C214.586 139.343 214.572 139.277 214.546 139.215C214.52 139.153 214.482 139.097 214.434 139.05C214.386 139.003 214.329 138.966 214.267 138.942C214.204 138.917 214.137 138.906 214.07 138.907ZM214.07 138.057C213.988 138.057 213.908 138.089 213.85 138.148C213.792 138.206 213.759 138.285 213.759 138.368C213.759 138.451 213.792 138.53 213.85 138.588C213.908 138.647 213.988 138.68 214.07 138.68C214.153 138.68 214.232 138.647 214.291 138.588C214.349 138.53 214.382 138.451 214.382 138.368C214.382 138.285 214.349 138.206 214.291 138.148C214.232 138.089 214.153 138.057 214.07 138.057ZM214.993 137.985C215.094 137.982 215.19 137.94 215.261 137.869C215.333 137.798 215.374 137.702 215.377 137.601C215.377 137.5 215.337 137.402 215.265 137.33C215.193 137.258 215.095 137.218 214.993 137.218C214.892 137.218 214.794 137.258 214.722 137.33C214.65 137.402 214.61 137.5 214.61 137.601C214.61 137.703 214.65 137.801 214.722 137.872C214.794 137.944 214.892 137.985 214.993 137.985ZM213.998 137.793C214.066 137.795 214.132 137.783 214.195 137.758C214.257 137.734 214.314 137.697 214.362 137.65C214.41 137.603 214.448 137.547 214.474 137.485C214.501 137.423 214.514 137.357 214.514 137.29C214.513 137.173 214.475 137.06 214.406 136.967C214.056 137.036 213.747 137.237 213.543 137.53C213.59 137.609 213.657 137.674 213.736 137.721C213.816 137.767 213.906 137.792 213.998 137.793ZM214.885 138.416C214.885 138.391 214.875 138.366 214.857 138.348C214.839 138.33 214.815 138.32 214.79 138.32C214.764 138.32 214.74 138.33 214.722 138.348C214.704 138.366 214.694 138.391 214.694 138.416C214.694 138.441 214.704 138.466 214.722 138.484C214.74 138.502 214.764 138.512 214.79 138.512C214.815 138.512 214.839 138.502 214.857 138.484C214.875 138.466 214.885 138.441 214.885 138.416ZM214.79 138.763C214.79 138.817 214.811 138.869 214.849 138.907C214.887 138.946 214.939 138.967 214.993 138.967C215.047 138.967 215.099 138.946 215.137 138.907C215.176 138.869 215.197 138.817 215.197 138.763C215.197 138.709 215.176 138.658 215.137 138.619C215.099 138.581 215.047 138.56 214.993 138.56C214.939 138.56 214.887 138.581 214.849 138.619C214.811 138.658 214.79 138.709 214.79 138.763ZM215.904 137.625C215.763 137.623 215.624 137.668 215.51 137.752C215.396 137.837 215.313 137.956 215.274 138.092C215.235 138.228 215.241 138.373 215.292 138.505C215.343 138.637 215.436 138.749 215.557 138.823C215.501 138.86 215.455 138.909 215.424 138.968C215.392 139.027 215.376 139.092 215.377 139.159C215.376 139.219 215.39 139.279 215.417 139.333C215.444 139.387 215.484 139.434 215.533 139.47C215.814 139.267 216.009 138.967 216.08 138.628C216.151 138.289 216.092 137.936 215.916 137.637L215.904 137.625ZM214.993 139.494C214.93 139.494 214.869 139.519 214.824 139.564C214.779 139.609 214.754 139.67 214.754 139.734C214.911 139.721 215.066 139.68 215.209 139.614C215.187 139.576 215.156 139.545 215.118 139.524C215.08 139.503 215.037 139.493 214.993 139.494Z" fill="#F6E15E"/>
<g style="mix-blend-mode:multiply" opacity="0.18">
<path d="M214.003 137.793C213.912 137.793 213.823 137.769 213.745 137.722C213.666 137.676 213.602 137.609 213.559 137.53C213.754 137.239 214.055 137.037 214.398 136.967C214.048 137.036 213.739 137.237 213.535 137.53C213.583 137.61 213.652 137.677 213.734 137.724C213.816 137.77 213.909 137.794 214.003 137.793Z" fill="#DD97B6"/>
<path d="M213.621 139.207C213.841 139.484 214.158 139.668 214.508 139.722C214.157 139.672 213.839 139.487 213.621 139.207Z" fill="#DD97B6"/>
<path d="M213.797 138.368C213.8 138.287 213.834 138.209 213.892 138.151C213.949 138.094 214.027 138.06 214.109 138.057C214.026 138.057 213.947 138.09 213.888 138.148C213.83 138.206 213.797 138.286 213.797 138.368Z" fill="#DD97B6"/>
<path d="M215.001 138.956C214.95 138.956 214.901 138.936 214.865 138.9C214.829 138.864 214.809 138.815 214.809 138.764C214.809 138.712 214.829 138.661 214.864 138.624C214.9 138.586 214.949 138.563 215.001 138.56C214.947 138.56 214.895 138.581 214.857 138.619C214.818 138.658 214.797 138.71 214.797 138.764C214.8 138.816 214.823 138.865 214.861 138.9C214.899 138.936 214.949 138.956 215.001 138.956Z" fill="#DD97B6"/>
<path d="M214.997 137.985C214.899 137.979 214.806 137.936 214.737 137.865C214.668 137.794 214.628 137.7 214.625 137.601C214.624 137.552 214.632 137.502 214.65 137.456C214.668 137.409 214.695 137.367 214.73 137.331C214.765 137.295 214.806 137.267 214.852 137.247C214.898 137.228 214.947 137.218 214.997 137.218C214.895 137.218 214.798 137.258 214.726 137.33C214.654 137.402 214.613 137.5 214.613 137.601C214.613 137.703 214.654 137.8 214.726 137.872C214.798 137.944 214.895 137.985 214.997 137.985Z" fill="#DD97B6"/>
<path d="M215.379 139.147C215.378 139.207 215.392 139.267 215.419 139.321C215.446 139.375 215.486 139.422 215.535 139.458C215.488 139.42 215.451 139.373 215.424 139.319C215.397 139.265 215.382 139.207 215.379 139.147Z" fill="#DD97B6"/>
<path d="M214.809 139.698C214.812 139.637 214.836 139.58 214.878 139.535C214.92 139.491 214.976 139.464 215.037 139.458C214.973 139.458 214.912 139.483 214.867 139.528C214.822 139.573 214.797 139.635 214.797 139.698H214.809Z" fill="#DD97B6"/>
<path d="M214.74 138.484C214.722 138.466 214.712 138.442 214.712 138.416C214.712 138.39 214.721 138.364 214.739 138.344C214.757 138.324 214.781 138.311 214.808 138.308C214.794 138.308 214.78 138.311 214.768 138.316C214.755 138.322 214.744 138.33 214.735 138.34C214.726 138.351 214.719 138.363 214.715 138.376C214.711 138.389 214.71 138.403 214.712 138.416C214.712 138.442 214.722 138.466 214.74 138.484Z" fill="#DD97B6"/>
</g>
<g style="mix-blend-mode:overlay" opacity="0.2">
<path d="M174.768 165.644C195.085 165.644 211.556 149.185 211.556 128.881C211.556 108.577 195.085 92.1176 174.768 92.1176C154.451 92.1176 137.98 108.577 137.98 128.881C137.98 149.185 154.451 165.644 174.768 165.644Z" fill="white"/>
</g>
<g style="mix-blend-mode:overlay" opacity="0.2">
<path d="M174.768 158.325C191.041 158.325 204.232 145.142 204.232 128.881C204.232 112.619 191.041 99.4368 174.768 99.4368C158.496 99.4368 145.305 112.619 145.305 128.881C145.305 145.142 158.496 158.325 174.768 158.325Z" fill="white"/>
</g>
<path d="M174.766 152.982C188.086 152.982 198.884 142.192 198.884 128.881C198.884 115.57 188.086 104.779 174.766 104.779C161.446 104.779 150.648 115.57 150.648 128.881C150.648 142.192 161.446 152.982 174.766 152.982Z" fill="#F6B0C0"/>
<path d="M164.065 138.68C162.347 138.679 160.666 139.18 159.228 140.12C157.791 141.061 156.66 142.4 155.974 143.974C159.753 148.703 165.183 151.827 171.173 152.719C172.289 151.211 172.89 149.384 172.887 147.508C172.887 145.169 171.958 142.925 170.304 141.27C168.65 139.614 166.406 138.683 164.065 138.68ZM164.065 124.161C163 124.159 161.958 124.472 161.071 125.062C160.185 125.651 159.493 126.491 159.084 127.473C158.674 128.456 158.566 129.538 158.773 130.582C158.979 131.626 159.49 132.585 160.243 133.339C160.995 134.092 161.954 134.605 162.998 134.814C164.043 135.023 165.125 134.917 166.11 134.51C167.094 134.103 167.935 133.414 168.527 132.529C169.119 131.644 169.435 130.604 169.435 129.54C169.435 128.115 168.869 126.749 167.863 125.741C166.856 124.732 165.49 124.164 164.065 124.161ZM179.875 122.82C181.177 122.82 182.449 122.434 183.532 121.711C184.614 120.989 185.457 119.962 185.955 118.76C186.453 117.558 186.584 116.236 186.33 114.96C186.076 113.684 185.449 112.513 184.529 111.593C183.608 110.673 182.436 110.047 181.159 109.793C179.883 109.539 178.56 109.67 177.357 110.167C176.155 110.665 175.127 111.508 174.404 112.589C173.681 113.671 173.295 114.942 173.295 116.243C173.293 117.107 173.462 117.963 173.792 118.762C174.122 119.56 174.607 120.286 175.219 120.897C175.83 121.508 176.556 121.992 177.355 122.322C178.154 122.652 179.011 122.821 179.875 122.82ZM162.854 119.657C164.522 119.658 166.157 119.188 167.568 118.3C168.98 117.411 170.111 116.142 170.831 114.638C171.55 113.134 171.829 111.458 171.635 109.802C171.442 108.146 170.782 106.579 169.734 105.282C163.799 106.549 158.56 110.005 155.062 114.961C155.812 116.378 156.933 117.563 158.306 118.39C159.679 119.218 161.251 119.656 162.854 119.657ZM178.161 130.234C178.159 129.894 178.056 129.562 177.865 129.279C177.673 128.997 177.403 128.778 177.087 128.649C176.772 128.521 176.425 128.488 176.091 128.556C175.757 128.624 175.451 128.789 175.21 129.031C174.97 129.273 174.807 129.58 174.741 129.914C174.676 130.249 174.711 130.595 174.842 130.909C174.973 131.224 175.194 131.493 175.477 131.682C175.761 131.871 176.094 131.971 176.435 131.971C176.663 131.971 176.888 131.926 177.099 131.839C177.309 131.752 177.5 131.623 177.66 131.462C177.82 131.301 177.947 131.109 178.033 130.898C178.119 130.688 178.163 130.462 178.161 130.234ZM176.435 136.224C176.435 136.909 176.638 137.578 177.019 138.147C177.4 138.717 177.941 139.16 178.574 139.422C179.207 139.684 179.903 139.753 180.575 139.619C181.247 139.486 181.864 139.156 182.349 138.672C182.833 138.188 183.163 137.571 183.297 136.899C183.431 136.228 183.362 135.532 183.1 134.899C182.838 134.267 182.394 133.726 181.824 133.345C181.254 132.965 180.584 132.762 179.899 132.762C179.445 132.76 178.995 132.849 178.574 133.021C178.154 133.194 177.772 133.448 177.451 133.768C177.129 134.089 176.873 134.47 176.699 134.889C176.525 135.308 176.435 135.758 176.435 136.212V136.224ZM195.542 116.626H195.47C193.078 116.644 190.754 117.428 188.84 118.864C186.927 120.299 185.524 122.31 184.839 124.601C184.153 126.892 184.221 129.342 185.032 131.591C185.843 133.841 187.355 135.771 189.345 137.098C188.421 137.701 187.657 138.517 187.116 139.478C186.576 140.438 186.275 141.515 186.24 142.617C186.205 143.719 186.436 144.812 186.914 145.806C187.392 146.799 188.102 147.662 188.985 148.323C193.832 144.793 197.189 139.586 198.401 133.717C199.613 127.847 198.594 121.737 195.542 116.579V116.626ZM180.511 148.347C179.411 148.347 178.356 148.783 177.578 149.561C176.8 150.338 176.363 151.392 176.363 152.491C176.363 152.647 176.363 152.791 176.363 152.934C179.112 152.761 181.81 152.108 184.335 151.006C184.04 150.228 183.518 149.557 182.836 149.08C182.153 148.603 181.343 148.344 180.511 148.335V148.347Z" fill="#DD97B6"/>
<g style="mix-blend-mode:multiply" opacity="0.18">
<path d="M162.857 119.657H163.001C161.42 119.64 159.872 119.198 158.521 118.378C157.169 117.559 156.063 116.391 155.317 114.997C158.781 110.123 163.933 106.707 169.774 105.414C163.838 106.681 158.599 110.137 155.102 115.093C155.865 116.48 156.988 117.635 158.353 118.438C159.718 119.241 161.273 119.662 162.857 119.657Z" fill="#DD97B6"/>
<path d="M156.263 143.974C156.947 142.419 158.065 141.094 159.483 140.157C160.901 139.22 162.559 138.711 164.258 138.692H164.115C162.397 138.691 160.716 139.192 159.278 140.132C157.841 141.073 156.71 142.412 156.023 143.986C159.803 148.715 165.233 151.839 171.223 152.731C165.324 151.762 159.994 148.642 156.263 143.974Z" fill="#DD97B6"/>
<path d="M158.66 129.54C158.66 130.966 159.227 132.334 160.237 133.343C161.246 134.352 162.615 134.918 164.042 134.918H164.162C162.732 134.918 161.36 134.35 160.348 133.34C159.336 132.329 158.768 130.957 158.768 129.528C158.768 128.098 159.336 126.727 160.348 125.716C161.36 124.705 162.732 124.137 164.162 124.137H164.042C163.333 124.137 162.632 124.277 161.977 124.549C161.323 124.821 160.728 125.219 160.228 125.721C159.728 126.223 159.332 126.819 159.063 127.474C158.794 128.13 158.657 128.831 158.66 129.54Z" fill="#DD97B6"/>
<path d="M179.902 139.662H180.022C179.143 139.61 178.317 139.225 177.714 138.584C177.11 137.944 176.773 137.098 176.773 136.218C176.773 135.338 177.11 134.492 177.714 133.851C178.317 133.211 179.143 132.826 180.022 132.774H179.902C179.431 132.746 178.959 132.815 178.515 132.976C178.072 133.137 177.666 133.387 177.322 133.711C176.979 134.035 176.705 134.425 176.518 134.858C176.331 135.291 176.234 135.758 176.234 136.23C176.234 136.702 176.331 137.168 176.518 137.602C176.705 138.035 176.979 138.425 177.322 138.749C177.666 139.072 178.072 139.322 178.515 139.484C178.959 139.645 179.431 139.713 179.902 139.686V139.662Z" fill="#DD97B6"/>
<path d="M179.882 122.82H180.002C178.253 122.82 176.576 122.125 175.34 120.89C174.104 119.654 173.409 117.979 173.409 116.231C173.409 114.484 174.104 112.808 175.34 111.573C176.576 110.337 178.253 109.643 180.002 109.643H179.882C178.133 109.643 176.456 110.337 175.22 111.573C173.984 112.808 173.289 114.484 173.289 116.231C173.289 117.979 173.984 119.654 175.22 120.89C176.456 122.125 178.133 122.82 179.882 122.82Z" fill="#DD97B6"/>
<path d="M186.493 142.872C186.492 141.733 186.776 140.612 187.318 139.61C187.86 138.609 188.644 137.758 189.598 137.134C187.592 135.824 186.062 133.904 185.231 131.658C184.401 129.412 184.316 126.959 184.987 124.66C185.659 122.362 187.053 120.34 188.962 118.894C190.871 117.447 193.195 116.652 195.591 116.627H195.519C193.122 116.634 190.792 117.411 188.87 118.843C186.949 120.274 185.538 122.285 184.847 124.578C184.155 126.871 184.219 129.326 185.029 131.58C185.839 133.834 187.352 135.769 189.346 137.098C188.422 137.701 187.658 138.517 187.117 139.478C186.577 140.439 186.276 141.515 186.241 142.617C186.205 143.719 186.436 144.812 186.914 145.806C187.392 146.799 188.103 147.662 188.986 148.323L189.118 148.227C188.305 147.59 187.647 146.777 187.192 145.85C186.737 144.923 186.498 143.905 186.493 142.872Z" fill="#DD97B6"/>
<path d="M176.646 152.479C176.646 151.4 177.068 150.363 177.823 149.59C178.578 148.818 179.606 148.372 180.686 148.347H180.542C179.997 148.347 179.458 148.454 178.955 148.662C178.452 148.87 177.994 149.176 177.609 149.56C177.224 149.945 176.919 150.402 176.71 150.905C176.502 151.408 176.395 151.947 176.395 152.491C176.395 152.647 176.395 152.791 176.395 152.934H176.646C176.632 152.783 176.632 152.631 176.646 152.479Z" fill="#DD97B6"/>
<path d="M176.554 131.959C176.122 131.923 175.72 131.727 175.427 131.408C175.134 131.09 174.971 130.673 174.971 130.24C174.971 129.808 175.134 129.391 175.427 129.073C175.72 128.754 176.122 128.558 176.554 128.521H176.434C175.999 128.558 175.594 128.756 175.299 129.076C175.004 129.397 174.84 129.817 174.84 130.252C174.84 130.688 175.004 131.108 175.299 131.429C175.594 131.749 175.999 131.947 176.434 131.983L176.554 131.959Z" fill="#DD97B6"/>
</g>
<g style="mix-blend-mode:overlay" opacity="0.2">
<path d="M212.92 107.211C214.409 107.211 215.617 106.004 215.617 104.516C215.617 103.027 214.409 101.821 212.92 101.821C211.43 101.821 210.223 103.027 210.223 104.516C210.223 106.004 211.43 107.211 212.92 107.211Z" fill="white"/>
</g>
<g style="mix-blend-mode:overlay" opacity="0.2">
<path d="M214.431 102.803L204.649 93.0281V93.9026L190.721 82.1992L190.84 83.0617L182.078 77.5634L188.443 85.6491H187.568L201.197 97.6999L200.334 97.8316L210.978 105.726C211.189 106.076 211.492 106.362 211.854 106.552C212.35 106.819 212.928 106.893 213.477 106.76C214.025 106.627 214.504 106.297 214.824 105.832C215.143 105.367 215.28 104.801 215.207 104.242C215.135 103.683 214.858 103.171 214.431 102.803Z" fill="white"/>
</g>
<g style="mix-blend-mode:overlay" opacity="0.5">
<path d="M212.43 105.953C212.795 105.521 213.196 105.12 213.628 104.755C213.893 104.498 214.196 104.284 214.527 104.121L208.822 98.4066V98.9457L200.431 91.8662L200.515 92.3812L189.031 83.6007L199.052 93.9505H198.525L206.772 101.246L206.244 101.317L212.43 105.953Z" fill="white"/>
</g>
<path d="M212.922 106.612C214.08 106.612 215.02 105.673 215.02 104.516C215.02 103.358 214.08 102.419 212.922 102.419C211.763 102.419 210.824 103.358 210.824 104.516C210.824 105.673 211.763 106.612 212.922 106.612Z" fill="#F6FF5E"/>
<path d="M211.986 105.378C211.838 105.378 211.694 105.421 211.57 105.502C211.447 105.583 211.35 105.698 211.291 105.833C211.619 106.245 212.089 106.519 212.61 106.6C212.683 106.485 212.726 106.352 212.732 106.215C212.738 106.078 212.708 105.942 212.645 105.821C212.581 105.699 212.487 105.597 212.372 105.523C212.256 105.45 212.123 105.408 211.986 105.402V105.378ZM211.986 104.109C211.863 104.112 211.746 104.162 211.659 104.249C211.572 104.336 211.522 104.453 211.519 104.576C211.519 104.7 211.568 104.818 211.656 104.906C211.743 104.994 211.862 105.043 211.986 105.043C212.048 105.045 212.11 105.034 212.167 105.011C212.225 104.988 212.277 104.953 212.32 104.91C212.364 104.866 212.399 104.814 212.422 104.756C212.444 104.699 212.455 104.638 212.454 104.576C212.454 104.514 212.442 104.454 212.418 104.397C212.395 104.34 212.36 104.289 212.317 104.245C212.273 104.202 212.222 104.168 212.165 104.144C212.108 104.121 212.048 104.109 211.986 104.109ZM213.365 103.989C213.524 103.989 213.676 103.926 213.788 103.813C213.901 103.701 213.964 103.549 213.964 103.39C213.964 103.231 213.901 103.079 213.788 102.966C213.676 102.854 213.524 102.791 213.365 102.791C213.206 102.791 213.053 102.854 212.941 102.966C212.829 103.079 212.765 103.231 212.765 103.39C212.765 103.549 212.829 103.701 212.941 103.813C213.053 103.926 213.206 103.989 213.365 103.989ZM211.89 103.713C212.094 103.713 212.289 103.632 212.433 103.489C212.577 103.345 212.658 103.15 212.658 102.947C212.653 102.773 212.595 102.606 212.49 102.467C211.969 102.576 211.51 102.88 211.207 103.318C211.274 103.44 211.374 103.541 211.494 103.61C211.614 103.68 211.751 103.715 211.89 103.713ZM213.221 104.636C213.221 104.616 213.217 104.596 213.209 104.578C213.201 104.559 213.189 104.543 213.175 104.529C213.16 104.516 213.143 104.506 213.124 104.499C213.105 104.493 213.085 104.49 213.065 104.492C213.027 104.492 212.99 104.507 212.963 104.534C212.936 104.561 212.921 104.597 212.921 104.636C212.92 104.655 212.922 104.675 212.929 104.694C212.935 104.713 212.945 104.73 212.959 104.745C212.972 104.76 212.989 104.771 213.007 104.779C213.025 104.787 213.045 104.791 213.065 104.791C213.106 104.791 213.146 104.775 213.175 104.746C213.204 104.717 213.221 104.677 213.221 104.636ZM213.065 105.163C213.065 105.222 213.083 105.28 213.116 105.329C213.148 105.378 213.195 105.417 213.25 105.439C213.305 105.462 213.365 105.468 213.423 105.456C213.481 105.445 213.535 105.416 213.577 105.374C213.619 105.333 213.647 105.279 213.659 105.221C213.67 105.163 213.664 105.103 213.642 105.048C213.619 104.993 213.581 104.947 213.531 104.914C213.482 104.881 213.424 104.863 213.365 104.863C213.285 104.863 213.209 104.895 213.153 104.951C213.097 105.007 213.065 105.083 213.065 105.163ZM214.731 103.45C214.473 103.453 214.226 103.558 214.044 103.742C213.862 103.925 213.76 104.173 213.76 104.432C213.761 104.592 213.802 104.749 213.88 104.89C213.957 105.03 214.069 105.148 214.204 105.235C214.125 105.29 214.06 105.363 214.015 105.449C213.971 105.534 213.948 105.629 213.948 105.726C213.948 105.822 213.971 105.917 214.015 106.003C214.06 106.088 214.125 106.162 214.204 106.217C214.473 106.022 214.691 105.767 214.841 105.471C214.992 105.175 215.069 104.848 215.067 104.516C215.051 104.137 214.935 103.769 214.731 103.45ZM213.425 106.217C213.377 106.215 213.33 106.223 213.285 106.241C213.241 106.258 213.2 106.285 213.167 106.318C213.133 106.352 213.107 106.392 213.089 106.437C213.072 106.481 213.063 106.529 213.065 106.576C213.305 106.565 213.541 106.508 213.76 106.408C213.728 106.348 213.68 106.298 213.62 106.264C213.561 106.23 213.493 106.214 213.425 106.217Z" fill="#F6E15E"/>
<g style="mix-blend-mode:multiply" opacity="0.18">
<path d="M211.895 103.713C211.758 103.713 211.623 103.677 211.505 103.607C211.387 103.538 211.29 103.438 211.223 103.318C211.523 102.891 211.972 102.592 212.482 102.479C211.961 102.588 211.502 102.892 211.199 103.33C211.269 103.451 211.371 103.551 211.493 103.618C211.616 103.686 211.755 103.719 211.895 103.713Z" fill="#DD97B6"/>
<path d="M211.309 105.833C211.368 105.699 211.466 105.584 211.589 105.504C211.712 105.423 211.856 105.379 212.004 105.378C211.856 105.378 211.712 105.421 211.588 105.502C211.464 105.583 211.367 105.698 211.309 105.833Z" fill="#DD97B6"/>
<path d="M211.523 104.576C211.523 104.7 211.573 104.818 211.661 104.906C211.748 104.994 211.867 105.043 211.992 105.043C211.931 105.043 211.87 105.031 211.814 105.007C211.758 104.983 211.707 104.949 211.665 104.905C211.622 104.862 211.589 104.81 211.567 104.754C211.544 104.697 211.534 104.636 211.535 104.576C211.538 104.455 211.587 104.339 211.672 104.253C211.756 104.166 211.87 104.115 211.992 104.109C211.868 104.112 211.751 104.162 211.664 104.249C211.577 104.336 211.526 104.453 211.523 104.576Z" fill="#DD97B6"/>
<path d="M213.366 105.462C213.29 105.456 213.218 105.423 213.165 105.367C213.112 105.312 213.081 105.239 213.078 105.163C213.078 105.085 213.108 105.011 213.162 104.955C213.216 104.899 213.289 104.866 213.366 104.863C213.287 104.863 213.211 104.895 213.154 104.951C213.098 105.007 213.066 105.083 213.066 105.163C213.066 105.242 213.098 105.318 213.154 105.375C213.211 105.431 213.287 105.462 213.366 105.462Z" fill="#DD97B6"/>
<path d="M213.366 103.989C213.216 103.989 213.073 103.929 212.967 103.824C212.861 103.718 212.802 103.575 212.802 103.426C212.802 103.275 212.861 103.131 212.966 103.023C213.072 102.916 213.215 102.854 213.366 102.851C213.207 102.851 213.054 102.914 212.941 103.026C212.829 103.139 212.766 103.291 212.766 103.45C212.766 103.609 212.829 103.761 212.941 103.873C213.054 103.986 213.207 104.049 213.366 104.049V103.989Z" fill="#DD97B6"/>
<path d="M213.945 105.738C213.946 105.637 213.971 105.539 214.019 105.451C214.067 105.363 214.137 105.289 214.221 105.235C214.086 105.148 213.975 105.03 213.897 104.89C213.82 104.75 213.779 104.592 213.778 104.432C213.778 104.176 213.878 103.929 214.057 103.746C214.236 103.562 214.48 103.456 214.737 103.45C214.478 103.453 214.231 103.558 214.049 103.742C213.868 103.925 213.766 104.174 213.766 104.432C213.767 104.592 213.808 104.75 213.885 104.89C213.963 105.03 214.074 105.148 214.209 105.235C214.13 105.29 214.065 105.363 214.021 105.449C213.976 105.534 213.953 105.629 213.953 105.726C213.953 105.822 213.976 105.917 214.021 106.003C214.065 106.088 214.13 106.162 214.209 106.217C214.131 106.163 214.066 106.092 214.021 106.008C213.975 105.925 213.949 105.833 213.945 105.738Z" fill="#DD97B6"/>
<path d="M213.094 106.577C213.094 106.484 213.13 106.394 213.195 106.327C213.26 106.259 213.349 106.22 213.442 106.217C213.394 106.215 213.347 106.223 213.303 106.241C213.258 106.258 213.218 106.285 213.184 106.319C213.15 106.352 213.124 106.393 213.106 106.437C213.089 106.482 213.081 106.529 213.082 106.577H213.094Z" fill="#DD97B6"/>
<path d="M213.078 104.756C213.04 104.751 213.005 104.732 212.978 104.704C212.952 104.675 212.936 104.639 212.934 104.6C212.937 104.563 212.953 104.528 212.979 104.501C213.006 104.475 213.041 104.459 213.078 104.456C213.04 104.456 213.003 104.471 212.976 104.498C212.949 104.525 212.934 104.562 212.934 104.6C212.932 104.62 212.935 104.64 212.941 104.659C212.948 104.678 212.958 104.695 212.972 104.71C212.985 104.724 213.002 104.736 213.02 104.744C213.038 104.752 213.058 104.756 213.078 104.756Z" fill="#DD97B6"/>
</g>
<g style="mix-blend-mode:overlay" opacity="0.2">
<path d="M154.142 165.237C154.85 165.237 155.425 164.663 155.425 163.955C155.425 163.247 154.85 162.673 154.142 162.673C153.434 162.673 152.859 163.247 152.859 163.955C152.859 164.663 153.434 165.237 154.142 165.237Z" fill="white"/>
</g>
<g style="mix-blend-mode:overlay" opacity="0.2">
<path d="M154.858 163.14L150.183 158.457V158.876L143.518 153.282L143.578 153.689L139.383 151.066L142.427 154.935H142.008L148.529 160.697L148.109 160.757L153.204 164.53C153.308 164.698 153.452 164.838 153.623 164.937C153.859 165.033 154.12 165.044 154.363 164.97C154.606 164.895 154.815 164.739 154.956 164.528C155.097 164.316 155.161 164.063 155.137 163.81C155.112 163.557 155.001 163.321 154.822 163.14H154.858Z" fill="white"/>
</g>
<g style="mix-blend-mode:overlay" opacity="0.5">
<path d="M153.865 164.65C154.038 164.444 154.231 164.256 154.44 164.087C154.568 163.966 154.713 163.865 154.872 163.787L152.139 161.056V161.308L148.111 157.918V158.169L142.621 153.977L147.416 158.924H147.164L151.108 162.41H150.856L153.865 164.65Z" fill="white"/>
</g>
<path d="M154.14 164.961C154.696 164.961 155.147 164.511 155.147 163.955C155.147 163.399 154.696 162.949 154.14 162.949C153.584 162.949 153.133 163.399 153.133 163.955C153.133 164.511 153.584 164.961 154.14 164.961Z" fill="#F6FF5E"/>
<path d="M153.692 164.374C153.621 164.371 153.55 164.391 153.49 164.429C153.43 164.468 153.383 164.524 153.356 164.59C153.509 164.787 153.733 164.916 153.98 164.949C154.028 164.888 154.054 164.812 154.052 164.734C154.053 164.686 154.045 164.638 154.028 164.594C154.01 164.55 153.984 164.509 153.95 164.476C153.916 164.442 153.876 164.416 153.832 164.398C153.787 164.381 153.74 164.373 153.692 164.374ZM153.692 163.763C153.662 163.762 153.631 163.766 153.603 163.777C153.575 163.788 153.549 163.805 153.527 163.826C153.506 163.848 153.489 163.873 153.478 163.902C153.467 163.93 153.463 163.961 153.464 163.991C153.464 164.02 153.47 164.049 153.482 164.076C153.493 164.103 153.51 164.128 153.532 164.148C153.553 164.168 153.578 164.184 153.606 164.194C153.634 164.204 153.663 164.208 153.692 164.206C153.749 164.206 153.804 164.184 153.845 164.143C153.885 164.103 153.908 164.048 153.908 163.991C153.91 163.962 153.905 163.932 153.895 163.905C153.885 163.877 153.869 163.852 153.849 163.831C153.829 163.809 153.805 163.792 153.778 163.781C153.751 163.769 153.721 163.763 153.692 163.763ZM154.351 163.703C154.421 163.703 154.488 163.676 154.538 163.626C154.587 163.577 154.615 163.51 154.615 163.44C154.617 163.384 154.603 163.33 154.574 163.282C154.544 163.235 154.501 163.198 154.451 163.176C154.4 163.154 154.343 163.147 154.289 163.157C154.234 163.168 154.184 163.194 154.145 163.233C154.105 163.273 154.079 163.323 154.069 163.377C154.058 163.432 154.065 163.488 154.087 163.539C154.11 163.59 154.147 163.633 154.194 163.662C154.241 163.691 154.296 163.706 154.351 163.703ZM153.632 163.572C153.68 163.573 153.728 163.565 153.773 163.548C153.818 163.53 153.86 163.504 153.894 163.471C153.929 163.437 153.956 163.397 153.975 163.353C153.994 163.308 154.004 163.26 154.004 163.212C154.006 163.171 154 163.129 153.986 163.09C153.971 163.05 153.949 163.015 153.92 162.985C153.673 163.032 153.453 163.174 153.309 163.38C153.342 163.437 153.389 163.485 153.445 163.518C153.502 163.552 153.566 163.57 153.632 163.572ZM154.279 164.015C154.279 163.996 154.272 163.977 154.258 163.964C154.245 163.951 154.227 163.943 154.208 163.943C154.189 163.943 154.17 163.951 154.157 163.964C154.143 163.977 154.136 163.996 154.136 164.015C154.136 164.034 154.143 164.052 154.157 164.066C154.17 164.079 154.189 164.087 154.208 164.087C154.227 164.087 154.245 164.079 154.258 164.066C154.272 164.052 154.279 164.034 154.279 164.015ZM154.208 164.266C154.208 164.304 154.223 164.341 154.25 164.368C154.277 164.395 154.313 164.41 154.351 164.41C154.39 164.41 154.426 164.395 154.453 164.368C154.48 164.341 154.495 164.304 154.495 164.266C154.495 164.228 154.48 164.192 154.453 164.165C154.426 164.138 154.39 164.123 154.351 164.123C154.333 164.123 154.314 164.126 154.296 164.134C154.279 164.141 154.263 164.151 154.25 164.165C154.236 164.178 154.226 164.194 154.219 164.211C154.211 164.229 154.208 164.247 154.208 164.266ZM154.999 163.452C154.937 163.45 154.875 163.461 154.818 163.484C154.76 163.507 154.708 163.541 154.664 163.585C154.621 163.629 154.586 163.681 154.563 163.738C154.541 163.796 154.53 163.857 154.531 163.919C154.533 163.994 154.552 164.068 154.587 164.135C154.623 164.202 154.673 164.259 154.735 164.302C154.698 164.33 154.668 164.366 154.647 164.408C154.626 164.45 154.615 164.495 154.615 164.542C154.613 164.586 154.621 164.63 154.64 164.669C154.659 164.709 154.687 164.744 154.723 164.769C154.852 164.677 154.958 164.554 155.031 164.413C155.104 164.271 155.142 164.114 155.142 163.955C155.157 163.783 155.128 163.61 155.059 163.452H154.999ZM154.375 164.769C154.33 164.769 154.286 164.787 154.252 164.818C154.219 164.849 154.199 164.892 154.196 164.937C154.307 164.928 154.417 164.899 154.519 164.853C154.505 164.828 154.484 164.807 154.458 164.792C154.433 164.778 154.405 164.77 154.375 164.769Z" fill="#F6E15E"/>
<g style="mix-blend-mode:multiply" opacity="0.18">
<path d="M153.641 163.572C153.574 163.574 153.508 163.557 153.45 163.523C153.393 163.489 153.347 163.44 153.317 163.38C153.459 163.176 153.674 163.035 153.917 162.985C153.669 163.032 153.45 163.174 153.305 163.38C153.339 163.439 153.388 163.487 153.447 163.521C153.506 163.555 153.573 163.572 153.641 163.572Z" fill="#DD97B6"/>
<path d="M153.367 164.65C153.397 164.586 153.444 164.531 153.504 164.493C153.563 164.455 153.633 164.434 153.703 164.434C153.632 164.431 153.561 164.45 153.501 164.489C153.441 164.528 153.394 164.584 153.367 164.65C153.52 164.847 153.744 164.976 153.991 165.009C153.745 164.972 153.522 164.844 153.367 164.65Z" fill="#DD97B6"/>
<path d="M153.473 163.991C153.473 164.021 153.479 164.05 153.49 164.077C153.502 164.104 153.519 164.128 153.54 164.149C153.562 164.169 153.587 164.184 153.615 164.195C153.642 164.205 153.672 164.209 153.701 164.207C153.644 164.207 153.589 164.185 153.548 164.144C153.508 164.104 153.485 164.049 153.485 163.991C153.485 163.933 153.507 163.877 153.547 163.834C153.588 163.792 153.643 163.766 153.701 163.763C153.671 163.762 153.64 163.766 153.612 163.777C153.583 163.788 153.557 163.805 153.536 163.826C153.514 163.848 153.498 163.874 153.487 163.902C153.476 163.931 153.471 163.961 153.473 163.991Z" fill="#DD97B6"/>
<path d="M154.363 164.411C154.325 164.408 154.29 164.392 154.264 164.365C154.238 164.339 154.222 164.304 154.219 164.267C154.219 164.305 154.234 164.342 154.261 164.369C154.288 164.396 154.325 164.411 154.363 164.411Z" fill="#DD97B6"/>
<path d="M154.361 163.703C154.291 163.703 154.223 163.676 154.174 163.626C154.124 163.577 154.096 163.51 154.096 163.44C154.095 163.404 154.101 163.369 154.113 163.335C154.126 163.302 154.145 163.271 154.169 163.246C154.194 163.22 154.224 163.199 154.257 163.185C154.29 163.171 154.325 163.164 154.361 163.164C154.32 163.156 154.279 163.156 154.239 163.166C154.199 163.176 154.162 163.194 154.13 163.22C154.098 163.246 154.072 163.278 154.054 163.315C154.036 163.352 154.027 163.393 154.027 163.434C154.027 163.475 154.036 163.515 154.054 163.552C154.072 163.589 154.098 163.622 154.13 163.648C154.162 163.674 154.199 163.692 154.239 163.702C154.279 163.711 154.32 163.712 154.361 163.703Z" fill="#DD97B6"/>
<path d="M154.639 164.542C154.639 164.495 154.65 164.45 154.671 164.408C154.692 164.366 154.722 164.33 154.759 164.302C154.697 164.259 154.647 164.202 154.611 164.135C154.576 164.068 154.556 163.994 154.555 163.919C154.553 163.858 154.564 163.798 154.586 163.741C154.608 163.685 154.642 163.633 154.684 163.589C154.727 163.546 154.778 163.511 154.834 163.488C154.89 163.464 154.95 163.452 155.011 163.452C154.949 163.45 154.888 163.461 154.83 163.484C154.773 163.507 154.72 163.541 154.676 163.585C154.633 163.629 154.598 163.681 154.575 163.738C154.552 163.796 154.541 163.857 154.543 163.919C154.545 163.994 154.564 164.068 154.599 164.135C154.635 164.202 154.685 164.259 154.747 164.302C154.71 164.33 154.68 164.366 154.659 164.408C154.638 164.45 154.627 164.495 154.627 164.542C154.625 164.586 154.633 164.63 154.652 164.669C154.671 164.709 154.699 164.744 154.735 164.77C154.702 164.742 154.677 164.707 154.66 164.667C154.643 164.628 154.636 164.585 154.639 164.542Z" fill="#DD97B6"/>
<path d="M154.215 164.937C154.215 164.915 154.219 164.894 154.228 164.873C154.236 164.853 154.249 164.834 154.264 164.819C154.28 164.803 154.298 164.791 154.319 164.782C154.339 164.774 154.361 164.769 154.383 164.769C154.337 164.769 154.293 164.787 154.26 164.818C154.226 164.849 154.206 164.892 154.203 164.937H154.215Z" fill="#DD97B6"/>
</g>
<path style="mix-blend-mode:overlay" d="M227.285 90.0094C223.07 85.0859 217.838 81.132 211.949 78.4192C206.061 75.7064 199.655 74.2988 193.171 74.2931H175.262C150.141 86.0453 128.171 103.588 111.156 125.479V148.646C111.166 155.24 112.626 161.752 115.432 167.72C118.239 173.687 122.324 178.966 127.399 183.181C143.161 156.6 174.807 114.506 227.285 90.0094ZM238.169 117.154C237.886 111.261 236.436 105.484 233.902 100.156C216.066 109.559 170.767 137.374 140.045 190.644C145.067 192.585 150.399 193.607 155.783 193.663C170.647 168.615 197.018 135.254 238.169 117.154ZM172.493 193.675H177.839C190.018 174.161 209.676 149.353 238.193 132.295V128.198C223.234 136.452 194.921 155.857 172.493 193.675Z" fill="url(#paint2_radial_144_6851)"/>
<g opacity="0.17">
<path d="M219.135 148.694C216.414 161.751 209.318 172.999 194.634 172.496C184.637 172.148 184.649 187.673 194.634 188.068C216.054 188.811 230.007 172.592 234.119 152.862C236.156 143.112 221.185 138.943 219.135 148.742V148.694Z" fill="white"/>
<path d="M218.59 124.532C218.59 126.653 218.686 128.857 218.422 130.965L218.698 128.905V128.977L220.699 125.551C219.296 127.04 218.486 128.992 218.422 131.037C218.437 133.092 219.254 135.061 220.699 136.523C223.528 139.111 228.97 139.901 231.679 136.523C233.073 134.956 233.892 132.963 234.005 130.869C234.005 130.426 234.065 129.983 234.065 129.54C234.065 127.863 234.065 126.185 234.173 124.496C234.157 122.443 233.334 120.477 231.88 119.025C230.427 117.573 228.46 116.75 226.405 116.734C224.359 116.777 222.408 117.609 220.96 119.055C219.513 120.502 218.681 122.451 218.638 124.496L218.59 124.532Z" fill="white"/>
<path d="M134.493 104.755C136.04 103.306 137.502 101.641 139.18 100.347L137.526 101.545H137.586L133.75 102.539C135.799 102.482 137.757 101.676 139.252 100.275C140.705 98.8217 141.527 96.8553 141.542 94.8009C141.398 90.9676 138.125 86.5594 133.81 87.0146C131.715 87.1367 129.723 87.9594 128.152 89.3505C127.817 89.638 127.493 89.9374 127.169 90.2369C125.971 91.4348 124.772 92.5608 123.573 93.7108C122.13 95.1724 121.32 97.1435 121.32 99.1971C121.32 101.251 122.13 103.222 123.573 104.683C125.048 106.103 127.016 106.897 129.063 106.897C131.111 106.897 133.079 106.103 134.553 104.683L134.493 104.755Z" fill="white"/>
<path d="M151.659 93.2316C152.498 92.453 153.289 91.5426 154.2 90.8359L153.301 91.5186L151.216 92.0577C152.321 92.0227 153.378 91.5984 154.2 90.8598C154.97 90.0621 155.4 88.9971 155.399 87.889C155.327 85.8047 153.553 83.4209 151.204 83.6605C150.071 83.7273 148.993 84.1748 148.147 84.9303C147.955 85.086 147.787 85.2417 147.608 85.4094C146.948 86.0323 146.301 86.6792 145.63 87.2901C144.836 88.085 144.391 89.162 144.391 90.2848C144.391 91.4076 144.836 92.4846 145.63 93.2795C146.433 94.0582 147.508 94.4937 148.626 94.4937C149.745 94.4937 150.82 94.0582 151.623 93.2795L151.659 93.2316Z" fill="white"/>
</g>
<g opacity="0.15">
<path d="M260.814 227.778C259.428 230.446 258.772 233.431 258.913 236.433C259.054 239.435 259.987 242.347 261.617 244.872C262.06 245.579 263.187 244.872 262.732 244.225C261.214 241.897 260.34 239.209 260.199 236.434C260.058 233.658 260.655 230.895 261.929 228.425C262.3 227.683 261.185 227.036 260.814 227.778Z" fill="white"/>
<path d="M263.753 246.957C263.924 246.957 264.089 246.889 264.211 246.767C264.332 246.646 264.4 246.482 264.4 246.31C264.4 246.138 264.332 245.974 264.211 245.853C264.089 245.731 263.924 245.663 263.753 245.663C263.581 245.663 263.416 245.731 263.295 245.853C263.174 245.974 263.105 246.138 263.105 246.31C263.105 246.482 263.174 246.646 263.295 246.767C263.416 246.889 263.581 246.957 263.753 246.957Z" fill="white"/>
<path d="M264.971 249.077C265.143 249.077 265.308 249.009 265.429 248.888C265.551 248.766 265.619 248.602 265.619 248.43C265.619 248.259 265.551 248.094 265.429 247.973C265.308 247.851 265.143 247.783 264.971 247.783C264.8 247.783 264.635 247.851 264.514 247.973C264.392 248.094 264.324 248.259 264.324 248.43C264.324 248.602 264.392 248.766 264.514 248.888C264.635 249.009 264.8 249.077 264.971 249.077Z" fill="white"/>
<path d="M294.535 233.397C299.683 234.487 305.026 234.21 310.034 232.594C310.825 232.342 310.489 231.097 309.686 231.396C304.907 232.955 299.801 233.227 294.882 232.187C294.067 232.019 293.684 233.265 294.535 233.445V233.397Z" fill="white"/>
<path d="M311.623 231.192L311.731 231.3C311.855 231.402 312.013 231.454 312.174 231.446C312.334 231.438 312.486 231.371 312.6 231.258C312.713 231.144 312.78 230.992 312.788 230.832C312.796 230.672 312.744 230.514 312.642 230.39L312.534 230.282C311.947 229.683 311.036 230.605 311.623 231.192Z" fill="white"/>
<path d="M314.085 230.27C314.257 230.27 314.421 230.202 314.543 230.081C314.664 229.959 314.732 229.795 314.732 229.623C314.732 229.452 314.664 229.287 314.543 229.166C314.421 229.044 314.257 228.976 314.085 228.976C313.913 228.976 313.749 229.044 313.627 229.166C313.506 229.287 313.438 229.452 313.438 229.623C313.438 229.795 313.506 229.959 313.627 230.081C313.749 230.202 313.913 230.27 314.085 230.27Z" fill="white"/>
<path d="M315.304 227.826H315.423C315.595 227.826 315.76 227.758 315.881 227.637C316.003 227.516 316.071 227.351 316.071 227.18C316.071 227.008 316.003 226.843 315.881 226.722C315.76 226.601 315.595 226.533 315.423 226.533H315.304C315.132 226.533 314.967 226.601 314.846 226.722C314.724 226.843 314.656 227.008 314.656 227.18C314.656 227.351 314.724 227.516 314.846 227.637C314.967 227.758 315.132 227.826 315.304 227.826Z" fill="white"/>
<path d="M262.083 209.583C264.017 212.707 266.172 215.69 268.532 218.507C269.059 219.154 269.97 218.231 269.443 217.597C267.161 214.859 265.074 211.965 263.198 208.936C262.754 208.229 261.639 208.876 262.083 209.583Z" fill="white"/>
<path d="M271.097 220.256C271.268 220.256 271.433 220.188 271.554 220.066C271.676 219.945 271.744 219.78 271.744 219.609C271.744 219.437 271.676 219.273 271.554 219.152C271.433 219.03 271.268 218.962 271.097 218.962C270.925 218.962 270.76 219.03 270.639 219.152C270.517 219.273 270.449 219.437 270.449 219.609C270.449 219.78 270.517 219.945 270.639 220.066C270.76 220.188 270.925 220.256 271.097 220.256Z" fill="white"/>
<path d="M272.201 221.729L272.321 221.849C272.908 222.436 273.819 221.526 273.232 220.927L273.124 220.819C272.525 220.232 271.614 221.142 272.201 221.729Z" fill="white"/>
</g>
<path d="M155.438 6.50453L166.19 2.86295L173.094 8.02585L189.648 0L196.361 6.50453H204.859L215.132 0L222.768 3.24629L208.635 0L201.587 9.33154L191.242 6.50453L178.524 0L172.303 6.50453L165.818 4.65979L155.438 6.50453Z" fill="#DD97B6"/>
<path d="M50.0974 163.123H4.16359V147.14L47.2769 88.0441H70.9154V145.663H82.466V163.123H70.9154V182.061H50.0974V163.123ZM51.4405 145.663V110.742L26.459 145.663H51.4405Z" fill="#100D0E"/>
<path d="M336.215 163.123H290.281V147.14L333.394 88.0441H357.033V145.663H368.583V163.123H357.033V182.061H336.215V163.123ZM337.558 145.663V110.742L312.576 145.663H337.558Z" fill="#100D0E"/>
<defs>
<radialGradient id="paint0_radial_144_6851" cx="0" cy="0" r="1" gradientUnits="userSpaceOnUse" gradientTransform="translate(168.184 117.193) rotate(-168.473) scale(75.1109 75.0647)">
<stop stop-color="#FF73C9"/>
<stop offset="0.15" stop-color="#FB71C8"/>
<stop offset="0.3" stop-color="#F06CC4"/>
<stop offset="0.45" stop-color="#DC63BD"/>
<stop offset="0.59" stop-color="#C156B3"/>
<stop offset="0.73" stop-color="#9E46A7"/>
<stop offset="0.87" stop-color="#743298"/>
<stop offset="1" stop-color="#471D88"/>
</radialGradient>
<radialGradient id="paint1_radial_144_6851" cx="0" cy="0" r="1" gradientUnits="userSpaceOnUse" gradientTransform="translate(177.823 122.676) scale(86.833 86.775)">
<stop stop-color="#FF73C9"/>
<stop offset="0.18" stop-color="#FB72C8"/>
<stop offset="0.35" stop-color="#F06EC4"/>
<stop offset="0.53" stop-color="#DC67BD"/>
<stop offset="0.69" stop-color="#C15DB4"/>
<stop offset="0.86" stop-color="#9F51A8"/>
<stop offset="1" stop-color="#7B459C"/>
</radialGradient>
<radialGradient id="paint2_radial_144_6851" cx="0" cy="0" r="1" gradientUnits="userSpaceOnUse" gradientTransform="translate(179.47 80.5341) scale(90.3691 90.3088)">
<stop stop-color="#FFFFDA"/>
<stop offset="0.15" stop-color="#FCFBD9"/>
<stop offset="0.3" stop-color="#F4F0D5"/>
<stop offset="0.45" stop-color="#E6DCCE"/>
<stop offset="0.59" stop-color="#D3C1C5"/>
<stop offset="0.73" stop-color="#BA9EBA"/>
<stop offset="0.87" stop-color="#9C74AC"/>
<stop offset="1" stop-color="#7B459C"/>
</radialGradient>
</defs>
</svg>
