<svg width="138" height="138" viewBox="0 0 138 138" fill="none" xmlns="http://www.w3.org/2000/svg">
<g filter="url(#filter0_b_460_8089)">
<circle cx="69" cy="69" r="69" fill="url(#paint0_linear_460_8089)" fill-opacity="0.29"/>
<circle cx="69" cy="69" r="68.5058" stroke="url(#paint1_linear_460_8089)" stroke-width="0.988307"/>
</g>
<circle cx="70" cy="69" r="32" fill="#0D0E10"/>
<circle cx="12.9535" cy="70.541" r="1.54236" fill="#0D0E10"/>
<path d="M64.996 19.5195H63.601L67.6357 8.53129L69.0093 8.53129L73.044 19.5195H71.649L68.3654 10.2697H68.2796L64.996 19.5195ZM65.5111 15.2273L71.1339 15.2273V16.4076H65.5111V15.2273Z" fill="black"/>
<path d="M21.6475 62.1004L10.7043 61.1064L11.3777 54.5091L12.5533 54.6159L12.015 59.8894L15.7126 60.2253L16.216 55.2933L17.3915 55.4001L16.8881 60.3321L20.6071 60.6699L21.1541 55.3109L22.3296 55.4177L21.6475 62.1004Z" fill="black"/>
<path d="M12.141 51.3428L17.3795 49.8315L17.4045 49.7494L13.8201 45.8417L14.2774 44.3433L18.5708 49.0881L24.8815 47.2234L24.4241 48.7219L19.2685 50.2557L19.2435 50.3378L22.7451 54.223L22.2877 55.7214L18.0194 50.8945L11.6836 52.8413L12.141 51.3428Z" fill="black"/>
<path d="M25.1784 47.046L15.2448 42.3484L16.9872 39.0698C17.3917 38.3086 17.8631 37.7529 18.4012 37.4027C18.9378 37.0477 19.5058 36.8658 20.1054 36.8569C20.7049 36.8479 21.2973 36.9818 21.8826 37.2586C22.4679 37.5354 22.9377 37.9038 23.2921 38.3638C23.6481 38.8207 23.84 39.3581 23.8677 39.9759C23.8922 40.5922 23.7039 41.2778 23.3027 42.0327L22.0539 44.3827L20.9868 43.8781L22.2155 41.566C22.4925 41.0448 22.6227 40.5827 22.6062 40.1797C22.5898 39.7767 22.4625 39.43 22.2244 39.1395C21.9847 38.8443 21.666 38.6027 21.2683 38.4146C20.8705 38.2266 20.4762 38.131 20.0854 38.128C19.6962 38.1218 19.3279 38.2361 18.9805 38.4711C18.6299 38.7044 18.3144 39.0849 18.0341 39.6124L16.9363 41.6781L25.8028 45.871L25.1784 47.046Z" fill="black"/>
<path d="M29.0398 38.6199L20.1043 32.2247L20.9382 31.1879L28.9139 36.896L32.1151 32.9158L33.075 33.6028L29.0398 38.6199Z" fill="black"/>
<path d="M36.1065 24.5018C36.9103 25.3366 37.4461 26.1942 37.7139 27.0746C37.9816 27.955 37.9972 28.7975 37.7607 29.6021C37.5241 30.4066 37.0501 31.1138 36.3384 31.7236C35.6268 32.3334 34.8351 32.7107 33.9635 32.8557C33.0918 33.0007 32.2043 32.9053 31.301 32.5695C30.3977 32.2338 29.5441 31.6485 28.7402 30.8137C27.9364 29.9788 27.4006 29.1212 27.1329 28.2409C26.8652 27.3605 26.8496 26.518 27.0861 25.7134C27.3226 24.9088 27.7967 24.2017 28.5083 23.5919C29.22 22.9821 30.0116 22.6048 30.8833 22.4598C31.755 22.3148 32.6424 22.4102 33.5458 22.746C34.4491 23.0817 35.3027 23.667 36.1065 24.5018ZM35.1287 25.3397C34.4687 24.6543 33.7909 24.1794 33.0951 23.9151C32.4021 23.6484 31.7339 23.5696 31.0905 23.6789C30.4499 23.7858 29.8769 24.0557 29.3717 24.4885C28.8665 24.9214 28.5254 25.4347 28.3485 26.0283C28.1743 26.6196 28.1934 27.2546 28.4056 27.9333C28.6206 28.6096 29.0581 29.2904 29.7181 29.9758C30.378 30.6612 31.0545 31.1372 31.7476 31.4039C32.4433 31.6683 33.1115 31.747 33.7522 31.6401C34.3955 31.5309 34.9698 31.2598 35.475 30.8269C35.9802 30.3941 36.3199 29.882 36.4941 29.2907C36.6711 28.697 36.652 28.062 36.437 27.3857C36.2247 26.7071 35.7886 26.0251 35.1287 25.3397Z" fill="black"/>
<path d="M40.6249 27.6491L34.6081 18.4546L37.8165 16.5862C38.5584 16.1542 39.2476 15.9223 39.8842 15.8906C40.5189 15.8558 41.0896 15.9843 41.5965 16.2761C42.1034 16.5679 42.534 16.9847 42.8886 17.5264C43.2431 18.0682 43.4431 18.6151 43.4885 19.1674C43.534 19.7196 43.3986 20.2531 43.0824 20.7679C42.7642 21.2798 42.2373 21.7499 41.5016 22.1783L38.9052 23.6903L38.2471 22.6846L40.8064 21.1943C41.3133 20.8991 41.6743 20.5896 41.8894 20.266C42.1076 19.9405 42.2001 19.6056 42.1668 19.2612C42.1347 18.912 41.9982 18.5534 41.7572 18.1852C41.5163 17.8171 41.2347 17.5367 40.9123 17.3442C40.5899 17.1516 40.2237 17.0714 39.8136 17.1036C39.4015 17.1327 38.9389 17.2967 38.4258 17.5955L36.4043 18.7727L41.7748 26.9795L40.6249 27.6491ZM42.3916 20.916L47.4313 23.6855L46.096 24.4631L41.0934 21.672L42.3916 20.916Z" fill="black"/>
<path d="M48.9448 23.2902L44.78 13.1218L51.0107 10.851L51.4581 11.9433L46.4776 13.7585L47.8848 17.1943L52.5427 15.4966L52.9901 16.589L48.3322 18.2866L49.7476 21.7423L54.8087 19.8976L55.2561 20.9899L48.9448 23.2902Z" fill="black"/>
<path d="M73.479 19.6283L75.6099 8.84859L79.2665 9.4918C80.112 9.64052 80.7776 9.90646 81.2632 10.2896C81.7495 10.6693 82.0738 11.1312 82.236 11.6753C82.3982 12.2194 82.4165 12.8091 82.291 13.4442C82.1654 14.0793 81.9238 14.6196 81.566 15.065C81.2082 15.5104 80.732 15.8261 80.1375 16.012C79.5438 16.1944 78.8276 16.2119 77.9892 16.0644L75.03 15.5439L75.2631 14.3648L78.18 14.8779C78.7577 14.9795 79.2394 14.9771 79.625 14.8707C80.0141 14.7648 80.3184 14.5714 80.538 14.2905C80.7618 14.0067 80.9163 13.649 81.0016 13.2174C81.0869 12.7858 81.0805 12.3943 80.9822 12.043C80.884 11.6917 80.6743 11.397 80.3532 11.159C80.0328 10.9174 79.5802 10.7452 78.9954 10.6423L76.6915 10.2371L74.7895 19.8588L73.479 19.6283ZM79.5302 15.6819L81.2363 20.9927L79.7144 20.7251L78.0507 15.4216L79.5302 15.6819Z" fill="black"/>
<path d="M85.0972 11.8835L85.5446 10.7912L93.2875 13.6133L92.8401 14.7056L89.5937 13.5223L85.8763 22.5984L84.6262 22.1428L88.3436 13.0667L85.0972 11.8835Z" fill="black"/>
<path d="M90.1669 24.1975L93.5874 13.4911L94.7558 14.1715L91.8397 22.8155L91.9325 22.8695L98.8544 16.5582L100.153 17.3142L97.2737 25.9799L97.3665 26.0339L104.251 19.701L105.42 20.3814L96.8064 28.0639L95.6195 27.3727L98.3185 18.8254L98.2443 18.7823L91.3539 24.8887L90.1669 24.1975Z" fill="black"/>
<path d="M109.615 32.0291C108.811 32.864 107.958 33.4493 107.055 33.785C106.151 34.1208 105.264 34.2162 104.392 34.0712C103.52 33.9262 102.729 33.5489 102.017 32.9391C101.306 32.3293 100.831 31.6221 100.595 30.8176C100.358 30.013 100.374 29.1705 100.642 28.2901C100.909 27.4097 101.445 26.5521 102.249 25.7173C103.053 24.8825 103.907 24.2972 104.81 23.9615C105.713 23.6257 106.601 23.5303 107.472 23.6753C108.344 23.8202 109.136 24.1976 109.847 24.8074C110.559 25.4172 111.033 26.1243 111.269 26.9289C111.506 27.7335 111.49 28.576 111.223 29.4564C110.955 30.3367 110.419 31.1943 109.615 32.0291ZM108.638 31.1913C109.297 30.5059 109.734 29.8239 109.946 29.1453C110.161 28.4689 110.18 27.834 110.003 27.2403C109.829 26.649 109.489 26.1369 108.984 25.704C108.479 25.2711 107.904 25.0001 107.261 24.8909C106.62 24.7839 105.952 24.8627 105.256 25.1271C104.563 25.3938 103.887 25.8698 103.227 26.5552C102.567 27.2406 102.129 27.9214 101.914 28.5977C101.702 29.2764 101.683 29.9113 101.857 30.5027C102.034 31.0963 102.375 31.6095 102.881 32.0424C103.386 32.4753 103.959 32.7452 104.599 32.8521C105.243 32.9614 105.911 32.8826 106.604 32.6159C107.3 32.3515 107.978 31.8767 108.638 31.1913Z" fill="black"/>
<path d="M106.639 36.3491L115.575 29.9539L117.902 32.8471C118.44 33.5161 118.762 34.1505 118.869 34.7504C118.978 35.3483 118.91 35.8982 118.662 36.4C118.415 36.9019 118.028 37.3412 117.502 37.718C116.976 38.0948 116.426 38.3258 115.853 38.411C115.28 38.4962 114.705 38.4088 114.129 38.1489C113.557 37.8869 113.004 37.4242 112.47 36.7609L110.587 34.4196L111.564 33.7201L113.42 36.028C113.788 36.4851 114.154 36.803 114.518 36.9818C114.884 37.1634 115.245 37.2253 115.602 37.1676C115.964 37.1105 116.324 36.9539 116.682 36.6979C117.039 36.4418 117.3 36.1539 117.465 35.8342C117.629 35.5145 117.671 35.1618 117.59 34.7762C117.512 34.3885 117.287 33.9633 116.915 33.5006L115.449 31.6778L107.473 37.3859L106.639 36.3491ZM113.895 37.5066L111.575 42.4866L110.607 41.2825L112.953 36.336L113.895 37.5066Z" fill="black"/>
<path d="M111.127 44.2379L121.06 39.5403L121.685 40.7153L116.757 43.0457L116.817 43.1595L124.062 45.1879L124.877 46.723L118.23 44.7678L114.944 51.4205L114.189 49.9991L117.013 44.4421L114.972 43.8898L111.751 45.4129L111.127 44.2379Z" fill="black"/>
<path d="M124.818 56.3191C125.324 56.115 125.655 55.7547 125.811 55.238C125.968 54.7214 125.949 54.1449 125.754 53.5086C125.612 53.0433 125.412 52.6568 125.154 52.3491C124.897 52.0448 124.605 51.8313 124.28 51.7085C123.956 51.5891 123.624 51.5753 123.286 51.6672C123.003 51.7441 122.78 51.8769 122.617 52.0656C122.459 52.2568 122.345 52.4768 122.275 52.7255C122.208 52.9732 122.167 53.2251 122.152 53.4812C122.14 53.7363 122.138 53.9684 122.146 54.1775L122.182 55.3236C122.193 55.617 122.186 55.9487 122.16 56.3186C122.136 56.692 122.06 57.0626 121.933 57.4305C121.811 57.8009 121.61 58.1334 121.329 58.4281C121.049 58.7228 120.661 58.9376 120.164 59.0726C119.591 59.2282 119.027 59.22 118.474 59.048C117.922 58.8795 117.423 58.5483 116.976 58.0544C116.532 57.564 116.186 56.9151 115.939 56.1077C115.71 55.3551 115.633 54.6701 115.71 54.0527C115.788 53.4388 115.998 52.9149 116.341 52.4811C116.684 52.0507 117.139 51.7362 117.707 51.5377L118.108 52.8514C117.718 52.9943 117.427 53.2178 117.236 53.5217C117.049 53.828 116.947 54.1782 116.928 54.5721C116.915 54.9685 116.972 55.3753 117.099 55.7927C117.247 56.2785 117.46 56.6931 117.737 57.0366C118.017 57.3791 118.335 57.6244 118.69 57.7723C119.049 57.9194 119.422 57.9404 119.808 57.8354C120.161 57.7398 120.417 57.5644 120.579 57.3094C120.74 57.0544 120.841 56.7491 120.882 56.3934C120.923 56.0378 120.939 55.6611 120.93 55.2635L120.908 53.8691C120.896 52.9833 121.037 52.241 121.333 51.642C121.628 51.0431 122.134 50.6466 122.848 50.4525C123.442 50.2912 124.008 50.3097 124.547 50.5078C125.09 50.7085 125.567 51.0458 125.977 51.5197C126.392 51.9962 126.701 52.5697 126.906 53.2402C127.113 53.9176 127.174 54.553 127.09 55.1464C127.009 55.7389 126.805 56.2463 126.478 56.6685C126.152 57.0942 125.724 57.3883 125.194 57.5507L124.818 56.3191Z" fill="black"/>
<path d="M73.5448 118.579L74.9398 118.579L70.905 129.567L69.5315 129.567L65.4968 118.579L66.8918 118.579L70.1754 127.829L70.2612 127.829L73.5448 118.579ZM73.0297 122.871L67.4068 122.871L67.4068 121.691L73.0297 121.691L73.0297 122.871Z" fill="black"/>
<path d="M116.894 75.998L127.837 76.992L127.164 83.5893L125.988 83.4825L126.526 78.209L122.829 77.8731L122.325 82.8051L121.15 82.6983L121.653 77.7663L117.934 77.4285L117.387 82.7875L116.212 82.6807L116.894 75.998Z" fill="black"/>
<path d="M126.4 86.7555L121.161 88.2669L121.136 88.349L124.721 92.2567L124.263 93.7551L119.97 89.0103L113.659 90.8749L114.117 89.3765L119.272 87.8427L119.297 87.7606L115.796 83.8754L116.253 82.377L120.521 87.2039L126.857 85.2571L126.4 86.7555Z" fill="black"/>
<path d="M113.362 91.0523L123.296 95.7498L121.554 99.0284C121.149 99.7896 120.678 100.345 120.14 100.696C119.603 101.051 119.035 101.232 118.435 101.241C117.836 101.25 117.243 101.116 116.658 100.84C116.073 100.563 115.603 100.194 115.249 99.7344C114.893 99.2775 114.701 98.7402 114.673 98.1224C114.649 97.5061 114.837 96.8205 115.238 96.0656L116.487 93.7156L117.554 94.2202L116.325 96.5323C116.048 97.0534 115.918 97.5155 115.935 97.9185C115.951 98.3216 116.078 98.6683 116.316 98.9588C116.556 99.2539 116.875 99.4955 117.272 99.6836C117.67 99.8717 118.065 99.9673 118.455 99.9703C118.845 99.9765 119.213 99.8621 119.56 99.6272C119.911 99.3938 120.226 99.0134 120.507 98.4859L121.604 96.4202L112.738 92.2273L113.362 91.0523Z" fill="black"/>
<path d="M109.501 99.4785L118.437 105.874L117.603 106.91L109.627 101.202L106.426 105.183L105.466 104.496L109.501 99.4785Z" fill="black"/>
<path d="M102.434 113.597C101.63 112.762 101.095 111.904 100.827 111.024C100.559 110.143 100.544 109.301 100.78 108.496C101.017 107.692 101.491 106.985 102.202 106.375C102.914 105.765 103.706 105.388 104.577 105.243C105.449 105.098 106.336 105.193 107.24 105.529C108.143 105.865 108.997 106.45 109.801 107.285C110.604 108.12 111.14 108.977 111.408 109.858C111.676 110.738 111.691 111.58 111.455 112.385C111.218 113.19 110.744 113.897 110.032 114.506C109.321 115.116 108.529 115.494 107.657 115.639C106.786 115.784 105.898 115.688 104.995 115.352C104.092 115.017 103.238 114.431 102.434 113.597ZM103.412 112.759C104.072 113.444 104.75 113.919 105.446 114.183C106.139 114.45 106.807 114.529 107.45 114.42C108.091 114.313 108.664 114.043 109.169 113.61C109.674 113.177 110.015 112.664 110.192 112.07C110.366 111.479 110.347 110.844 110.135 110.165C109.92 109.489 109.483 108.808 108.823 108.123C108.163 107.437 107.486 106.961 106.793 106.694C106.097 106.43 105.429 106.351 104.789 106.458C104.145 106.567 103.571 106.839 103.066 107.271C102.561 107.704 102.221 108.216 102.047 108.808C101.87 109.401 101.889 110.036 102.104 110.713C102.316 111.391 102.752 112.073 103.412 112.759Z" fill="black"/>
<path d="M97.9163 110.449L103.933 119.644L100.725 121.512C99.9829 121.944 99.2937 122.176 98.657 122.208C98.0224 122.243 97.4516 122.114 96.9448 121.822C96.4379 121.53 96.0072 121.114 95.6527 120.572C95.2982 120.03 95.0982 119.483 95.0527 118.931C95.0073 118.379 95.1426 117.845 95.4589 117.33C95.7771 116.819 96.304 116.348 97.0397 115.92L99.6361 114.408L100.294 115.414L97.7348 116.904C97.2279 117.199 96.8669 117.509 96.6518 117.832C96.4336 118.158 96.3412 118.493 96.3745 118.837C96.4066 119.186 96.5431 119.545 96.784 119.913C97.0249 120.281 97.3066 120.562 97.6289 120.754C97.9513 120.947 98.3176 121.027 98.7277 120.995C99.1398 120.966 99.6024 120.802 100.115 120.503L102.137 119.326L96.7665 111.119L97.9163 110.449ZM96.1496 117.182L91.1099 114.413L92.4452 113.635L97.4478 116.426L96.1496 117.182Z" fill="black"/>
<path d="M89.5959 114.808L93.7607 124.977L87.5301 127.247L87.0827 126.155L92.0632 124.34L90.6559 120.904L85.9981 122.602L85.5507 121.509L90.2085 119.812L88.7932 116.356L83.732 118.201L83.2846 117.108L89.5959 114.808Z" fill="black"/>
<path d="M65.0627 118.47L62.9319 129.25L59.2752 128.607C58.4297 128.458 57.7642 128.192 57.2785 127.809C56.7922 127.429 56.4679 126.967 56.3058 126.423C56.1436 125.879 56.1252 125.289 56.2508 124.654C56.3763 124.019 56.618 123.479 56.9758 123.033C57.3336 122.588 57.8097 122.272 58.4042 122.086C58.998 121.904 59.7141 121.887 60.5525 122.034L63.5117 122.555L63.2786 123.734L60.3618 123.221C59.784 123.119 59.3024 123.121 58.9168 123.228C58.5277 123.334 58.2233 123.527 58.0038 123.808C57.78 124.092 57.6254 124.449 57.5401 124.881C57.4548 125.313 57.4613 125.704 57.5595 126.055C57.6577 126.407 57.8674 126.701 58.1885 126.939C58.509 127.181 58.9616 127.353 59.5464 127.456L61.8503 127.861L63.7522 118.24L65.0627 118.47ZM59.0115 122.417L57.3055 117.106L58.8273 117.373L60.4911 122.677L59.0115 122.417Z" fill="black"/>
<path d="M53.4446 126.215L52.9972 127.307L45.2542 124.485L45.7016 123.393L48.948 124.576L52.6654 115.5L53.9156 115.956L50.1982 125.032L53.4446 126.215Z" fill="black"/>
<path d="M48.3743 113.901L44.9539 124.607L43.7855 123.927L46.7015 115.283L46.6088 115.229L39.6868 121.54L38.3886 120.784L41.2675 112.119L41.1748 112.065L34.2899 118.397L33.1215 117.717L41.7348 110.035L42.9218 110.726L40.2228 119.273L40.297 119.316L47.1874 113.21L48.3743 113.901Z" fill="black"/>
<path d="M28.9265 106.069C29.7304 105.234 30.584 104.649 31.4873 104.313C32.3906 103.978 33.2781 103.882 34.1497 104.027C35.0214 104.172 35.8131 104.549 36.5247 105.159C37.2363 105.769 37.7104 106.476 37.947 107.281C38.1835 108.085 38.1679 108.928 37.9002 109.808C37.6324 110.689 37.0966 111.546 36.2928 112.381C35.4889 113.216 34.6354 113.801 33.7321 114.137C32.8287 114.473 31.9412 114.568 31.0696 114.423C30.1979 114.278 29.4063 113.901 28.6946 113.291C27.983 112.681 27.5089 111.974 27.2724 111.169C27.0358 110.365 27.0514 109.522 27.3192 108.642C27.5869 107.762 28.1227 106.904 28.9265 106.069ZM29.9044 106.907C29.2444 107.592 28.8083 108.274 28.596 108.953C28.381 109.629 28.362 110.264 28.5389 110.858C28.7131 111.449 29.0528 111.961 29.558 112.394C30.0632 112.827 30.6375 113.098 31.2809 113.207C31.9215 113.314 32.5897 113.236 33.2855 112.971C33.9785 112.705 34.655 112.229 35.315 111.543C35.9749 110.858 36.4124 110.177 36.6274 109.501C36.8397 108.822 36.8587 108.187 36.6845 107.596C36.5076 107.002 36.1665 106.489 35.6613 106.056C35.1561 105.623 34.5832 105.353 33.9425 105.246C33.2992 105.137 32.631 105.216 31.9379 105.482C31.2422 105.747 30.5643 106.222 29.9044 106.907Z" fill="black"/>
<path d="M31.9018 101.749L22.9663 108.144L20.6394 105.251C20.1014 104.582 19.779 103.948 19.6723 103.348C19.5627 102.75 19.6314 102.2 19.8786 101.698C20.1257 101.196 20.5125 100.757 21.039 100.38C21.5655 100.004 22.1153 99.7726 22.6884 99.6874C23.2615 99.6022 23.8359 99.6896 24.4116 99.9495C24.9843 100.211 25.5375 100.674 26.071 101.338L27.9541 103.679L26.9768 104.378L25.1206 102.07C24.753 101.613 24.3872 101.295 24.0235 101.117C23.6574 100.935 23.296 100.873 22.9391 100.931C22.5771 100.988 22.2173 101.144 21.8595 101.401C21.5017 101.657 21.2406 101.944 21.0761 102.264C20.9116 102.584 20.8699 102.937 20.9509 103.322C21.0289 103.71 21.254 104.135 21.6262 104.598L23.0923 106.421L31.0679 100.712L31.9018 101.749ZM24.6463 100.592L26.9655 95.6118L27.934 96.8159L25.5878 101.762L24.6463 100.592Z" fill="black"/>
<path d="M27.4139 93.8605L17.4804 98.558L16.856 97.3831L21.784 95.0526L21.7235 94.9389L14.4792 92.9105L13.6634 91.3754L20.3105 93.3306L23.5969 86.6779L24.3523 88.0993L21.5274 93.6562L23.5689 94.2086L26.7895 92.6855L27.4139 93.8605Z" fill="black"/>
<path d="M13.7232 81.7793C13.2173 81.9833 12.8862 82.3437 12.7299 82.8604C12.5736 83.377 12.5925 83.9535 12.7868 84.5898C12.9288 85.0551 13.129 85.4416 13.3874 85.7493C13.6447 86.0536 13.936 86.2671 14.2614 86.3899C14.5856 86.5093 14.9169 86.5231 15.2552 86.4312C15.5382 86.3543 15.7612 86.2215 15.9242 86.0328C16.0826 85.8415 16.1968 85.6216 16.2666 85.3729C16.3331 85.1252 16.3739 84.8733 16.3892 84.6172C16.4011 84.3621 16.4031 84.13 16.3954 83.9209L16.3595 82.7748C16.3485 82.4814 16.3556 82.1497 16.381 81.7798C16.4054 81.4064 16.481 81.0358 16.608 80.6679C16.7304 80.2975 16.9317 79.965 17.2118 79.6703C17.4919 79.3756 17.8805 79.1608 18.3776 79.0258C18.9506 78.8702 19.5138 78.8783 20.0672 79.0503C20.6195 79.2189 21.1187 79.5501 21.5648 80.044C22.0098 80.5344 22.3555 81.1833 22.6019 81.9907C22.8316 82.7433 22.908 83.4283 22.831 84.0457C22.753 84.6596 22.5429 85.1835 22.2005 85.6173C21.8572 86.0477 21.4018 86.3621 20.8344 86.5607L20.4335 85.247C20.8234 85.104 21.1141 84.8806 21.3054 84.5767C21.4923 84.2704 21.5947 83.9202 21.6128 83.5263C21.6264 83.1299 21.5695 82.723 21.4421 82.3057C21.2938 81.8199 21.0813 81.4053 20.8045 81.0618C20.5243 80.7193 20.2064 80.474 19.851 80.3261C19.4921 80.179 19.1194 80.158 18.7328 80.263C18.3807 80.3586 18.124 80.534 17.9626 80.789C17.8012 81.044 17.7 81.3493 17.659 81.705C17.6181 82.0606 17.6022 82.4373 17.6114 82.8349L17.6333 84.2293C17.6457 85.115 17.5041 85.8574 17.2085 86.4564C16.9128 87.0553 16.4078 87.4518 15.6932 87.6459C15.0995 87.8072 14.5332 87.7887 13.9942 87.5906C13.4508 87.3899 12.974 87.0526 12.564 86.5787C12.1494 86.1022 11.8398 85.5287 11.6351 84.8582C11.4284 84.1808 11.3671 83.5454 11.4514 82.952C11.5322 82.3595 11.7362 81.8521 12.0634 81.4299C12.3895 81.0042 12.8174 80.7101 13.3472 80.5477L13.7232 81.7793Z" fill="black"/>
<circle cx="124.003" cy="67.4563" r="1.54236" fill="#0D0E10"/>
<circle opacity="0.47" cx="70" cy="69" r="43.3854" stroke="white" stroke-width="0.729167"/>
<defs>
<filter id="filter0_b_460_8089" x="-3.95323" y="-3.95323" width="145.906" height="145.906" filterUnits="userSpaceOnUse" color-interpolation-filters="sRGB">
<feFlood flood-opacity="0" result="BackgroundImageFix"/>
<feGaussianBlur in="BackgroundImageFix" stdDeviation="1.97661"/>
<feComposite in2="SourceAlpha" operator="in" result="effect1_backgroundBlur_460_8089"/>
<feBlend mode="normal" in="SourceGraphic" in2="effect1_backgroundBlur_460_8089" result="shape"/>
</filter>
<linearGradient id="paint0_linear_460_8089" x1="-6.53684" y1="20.0323" x2="202.369" y2="29.8808" gradientUnits="userSpaceOnUse">
<stop stop-color="white"/>
<stop offset="0.672471" stop-color="#CAD8F6" stop-opacity="0.912555"/>
<stop offset="1" stop-color="#0D4DD7" stop-opacity="0.6"/>
</linearGradient>
<linearGradient id="paint1_linear_460_8089" x1="0" y1="69" x2="138" y2="69" gradientUnits="userSpaceOnUse">
<stop stop-color="white" stop-opacity="0.19"/>
<stop offset="1" stop-color="white" stop-opacity="0.44"/>
</linearGradient>
</defs>
</svg>
