<svg width="928" height="260" viewBox="0 0 928 260" fill="none" xmlns="http://www.w3.org/2000/svg">
<path d="M150.52 16.006L151.423 42.795C148.012 34.969 142.995 29.0493 136.373 25.036C129.751 20.822 122.126 18.715 113.497 18.715H34.635V128.58H87.009C99.2497 128.58 108.48 125.57 114.701 119.55C116.507 118.145 118.313 115.737 120.119 112.326V144.834C116.106 139.015 111.189 135.302 105.37 133.697C99.7513 131.891 93.631 130.988 87.009 130.988H34.635V216.171C34.635 225.602 34.936 232.224 35.538 236.037C36.3407 239.649 36.9427 242.258 37.344 243.863C39.15 248.077 42.2603 251.488 46.675 254.097H0.923001C3.13033 252.893 4.93633 251.187 6.341 248.98C10.3543 243.763 12.361 232.826 12.361 216.171V53.932C12.361 44.902 12.06 38.4806 11.458 34.668C10.856 30.8553 10.254 28.1463 9.652 26.541C7.846 22.327 4.836 18.8153 0.622001 16.006H150.52ZM134.066 217.676C134.066 210.051 136.273 203.228 140.688 197.208C145.303 190.987 150.822 185.469 157.243 180.653C163.865 175.636 170.888 171.322 178.313 167.71C185.738 164.098 192.36 160.988 198.179 158.379C202.594 156.573 206.707 154.767 210.52 152.961C214.333 151.155 217.844 149.148 221.055 146.941C223.262 145.336 225.068 142.928 226.473 139.717C228.078 136.506 228.781 133.396 228.58 130.386C228.379 124.968 227.677 119.851 226.473 115.035C225.47 110.219 223.764 106.005 221.356 102.393C218.948 98.781 215.637 95.9717 211.423 93.965C207.209 91.7577 201.891 90.654 195.47 90.654C191.457 90.654 187.243 91.0553 182.828 91.858C178.614 92.6607 174.701 94.0653 171.089 96.072C167.477 97.878 164.467 100.386 162.059 103.597C159.651 106.607 158.447 110.52 158.447 115.336L158.748 126.172C158.748 129.182 158.046 131.791 156.641 133.998C155.236 136.005 152.828 137.008 149.417 137.008C146.206 137.008 143.899 135.904 142.494 133.697C141.29 131.289 140.688 128.68 140.688 125.871C140.688 119.851 142.293 114.533 145.504 109.918C148.915 105.303 153.23 101.39 158.447 98.179C163.865 94.9683 169.785 92.5603 176.206 90.955C182.828 89.149 189.249 88.246 195.47 88.246C200.286 88.246 205.102 88.6473 209.918 89.45C214.935 90.052 219.55 91.256 223.764 93.062C227.978 94.6673 231.791 96.975 235.202 99.985C238.613 102.794 241.322 106.507 243.329 111.122C243.73 112.326 244.332 115.135 245.135 119.55C245.938 123.764 246.339 130.988 246.339 141.222V198.713C246.339 204.332 246.339 209.047 246.339 212.86C246.339 216.472 246.339 219.482 246.339 221.89C246.54 224.097 246.64 225.903 246.64 227.308C246.841 228.512 247.041 229.415 247.242 230.017C248.045 234.03 249.449 237.442 251.456 240.251C253.663 243.06 257.075 244.465 261.69 244.465H263.496C260.085 247.676 256.272 250.284 252.058 252.291C248.045 254.298 243.63 255.301 238.814 255.301C235.603 255.301 232.694 254.699 230.085 253.495C227.476 252.291 224.868 250.987 222.259 249.582C218.446 247.575 215.035 246.171 212.025 245.368C209.216 244.565 206.707 244.164 204.5 244.164C201.289 244.164 198.38 244.766 195.771 245.97C193.363 246.973 190.855 248.177 188.246 249.582C185.637 250.786 182.728 251.99 179.517 253.194C176.306 254.197 172.393 254.699 167.778 254.699C156.741 254.699 148.313 251.187 142.494 244.164C136.875 237.141 134.066 228.311 134.066 217.676ZM161.758 235.736C164.768 238.947 168.079 241.555 171.691 243.562C175.303 245.368 179.116 246.271 183.129 246.271C186.139 246.271 189.149 245.669 192.159 244.465C194.567 243.462 196.774 242.759 198.781 242.358C200.988 241.957 202.995 241.756 204.801 241.756C208.413 241.756 211.724 242.358 214.734 243.562C217.744 244.766 220.654 246.171 223.463 247.776C225.068 248.779 226.774 249.682 228.58 250.485C230.587 251.288 232.493 251.89 234.299 252.291C233.898 252.09 233.597 251.89 233.396 251.689C233.396 251.488 233.195 251.187 232.794 250.786C231.791 249.783 230.888 247.977 230.085 245.368C229.282 242.559 228.781 238.545 228.58 233.328V143.931C224.968 147.543 220.654 150.653 215.637 153.262C210.62 155.67 205.202 158.178 199.383 160.787C191.958 163.797 184.333 167.911 176.507 173.128C168.882 178.145 162.661 183.864 157.845 190.285C153.23 196.706 150.822 203.83 150.621 211.656C150.42 219.281 154.133 227.308 161.758 235.736ZM305.932 87.945C310.146 86.741 314.461 86.139 318.875 86.139C323.089 86.139 327.404 86.741 331.818 87.945C336.233 88.9483 340.547 90.5537 344.761 92.761C347.571 94.1657 350.079 95.2693 352.286 96.072C354.494 96.674 356.3 96.7743 357.704 96.373C359.912 96.373 361.918 95.771 363.724 94.567V118.647C359.109 108.814 353.29 101.39 346.266 96.373C339.243 91.1557 329.912 88.547 318.273 88.547C314.862 88.547 310.949 89.0487 306.534 90.052C300.715 91.6573 295.799 94.266 291.785 97.878C287.973 101.289 285.264 105.202 283.658 109.617C282.053 114.032 281.652 118.747 282.454 123.764C283.458 128.58 285.866 133.396 289.678 138.212C294.093 143.63 302.621 149.55 315.263 155.971L342.654 169.215C365.129 179.85 376.366 193.897 376.366 211.355C376.366 217.576 374.861 223.696 371.851 229.716C369.042 235.535 365.33 240.652 360.714 245.067C356.099 249.482 350.781 252.993 344.761 255.602C338.741 258.411 332.621 259.816 326.4 259.816C321.785 259.816 317.37 259.214 313.156 258.01C308.942 257.007 304.929 255.903 301.116 254.699C297.304 253.294 293.692 252.09 290.28 251.087C287.07 249.883 283.959 249.281 280.949 249.281C278.341 249.281 276.133 249.783 274.327 250.786V223.094C276.735 227.91 279.645 232.425 283.056 236.639C286.668 240.853 290.682 244.465 295.096 247.475C299.511 250.485 304.227 252.893 309.243 254.699C314.26 256.505 319.477 257.408 324.895 257.408C329.31 257.408 333.624 256.806 337.838 255.602C344.46 253.796 349.778 250.786 353.791 246.572C357.805 242.157 360.413 237.341 361.617 232.124C362.821 226.706 362.52 221.188 360.714 215.569C359.109 209.95 355.898 204.934 351.082 200.519C347.872 197.308 343.156 193.797 336.935 189.984C330.915 186.171 323.19 181.857 313.758 177.041C303.123 171.824 295.297 167.409 290.28 163.797C285.464 159.984 282.254 156.974 280.648 154.767C276.234 149.349 273.826 143.128 273.424 136.105C273.224 129.082 274.428 122.359 277.036 115.938C279.645 109.316 283.458 103.497 288.474 98.48C293.692 93.2627 299.511 89.751 305.932 87.945ZM413.921 0.654991H414.523V155.068C415.526 150.453 416.831 145.536 418.436 140.319C420.242 135.102 422.55 130.185 425.359 125.57C428.168 120.553 431.58 115.838 435.593 111.423C439.807 107.008 444.322 103.196 449.138 99.985C453.954 96.7743 458.87 94.266 463.887 92.46C469.104 90.4533 474.121 89.45 478.937 89.45C487.967 89.45 494.89 91.9583 499.706 96.975C504.723 101.791 508.335 107.811 510.542 115.035C512.95 122.058 514.355 129.684 514.756 137.911C515.157 145.938 515.358 153.162 515.358 159.583V219.783C515.358 231.422 516.361 239.549 518.368 244.164C519.171 246.572 520.776 248.98 523.184 251.388H489.472C493.084 248.378 495.492 244.164 496.696 238.746V238.144C496.897 237.341 497.097 235.736 497.298 233.328C497.499 230.92 497.599 226.405 497.599 219.783V159.583C497.599 149.55 497.298 141.423 496.696 135.202C496.094 128.981 495.191 124.165 493.987 120.754C491.378 112.928 487.766 107.309 483.151 103.898C478.536 100.487 473.519 98.781 468.101 98.781C460.676 98.781 453.151 101.39 445.526 106.607C438.101 111.824 432.081 118.547 427.466 126.774C423.252 134.399 420.142 142.326 418.135 150.553C416.128 158.58 414.924 165.703 414.523 171.924V219.783C414.523 228.01 414.824 233.729 415.426 236.94C416.028 240.151 416.53 242.458 416.931 243.863C418.336 246.873 420.242 249.381 422.65 251.388H388.637C389.64 250.385 390.644 249.181 391.647 247.776C392.65 246.371 393.453 244.866 394.055 243.261C394.858 241.856 395.46 239.549 395.861 236.338C396.463 232.927 396.764 227.408 396.764 219.783V65.671C396.764 59.049 396.664 53.5307 396.463 49.116C396.463 44.7013 396.363 41.0893 396.162 38.28C396.162 35.4707 396.062 33.3637 395.861 31.959C395.861 30.5543 395.761 29.4507 395.56 28.648C394.557 25.2367 393.152 22.1263 391.346 19.317C389.741 16.307 387.232 14.2 383.821 12.996L413.921 0.654991ZM534.678 102.092L565.38 89.751H565.681V219.783C565.681 227.408 565.982 232.927 566.584 236.338C567.387 239.749 567.989 242.157 568.39 243.562C569.996 246.572 572.002 249.181 574.41 251.388H539.795C543.809 247.375 546.116 242.458 546.718 236.639C547.521 230.619 547.922 225 547.922 219.783V154.165C547.922 144.533 547.822 136.707 547.621 130.687C547.421 124.466 547.019 119.851 546.417 116.841C545.414 113.43 544.11 110.42 542.504 107.811C540.899 105.002 538.29 103.095 534.678 102.092ZM542.203 58.748C542.203 55.136 543.407 52.2263 545.815 50.019C548.223 47.611 551.133 46.407 554.544 46.407C557.956 46.407 560.865 47.611 563.273 50.019C565.681 52.427 566.885 55.3367 566.885 58.748C566.885 62.1593 565.681 65.069 563.273 67.477C560.865 69.6843 557.956 70.788 554.544 70.788C551.133 70.788 548.223 69.6843 545.815 67.477C543.407 65.069 542.203 62.1593 542.203 58.748ZM587.925 174.633C587.925 163.797 589.731 153.262 593.343 143.028C597.155 132.593 602.373 123.363 608.995 115.336C615.817 107.309 623.944 100.888 633.376 96.072C642.807 91.0553 653.242 88.547 664.68 88.547C675.315 88.547 685.148 90.8547 694.178 95.47C703.208 99.8847 711.034 105.905 717.656 113.53C724.278 120.955 729.395 129.583 733.007 139.416C736.819 149.048 738.726 159.182 738.726 169.817C738.726 180.854 736.92 191.69 733.308 202.325C729.696 212.76 724.478 222.091 717.656 230.318C711.034 238.545 702.907 245.167 693.275 250.184C683.843 255 673.308 257.408 661.67 257.408C651.034 257.408 641.202 255.201 632.172 250.786C623.142 246.171 615.316 240.05 608.694 232.425C602.272 224.599 597.155 215.77 593.343 205.937C589.731 195.904 587.925 185.469 587.925 174.633ZM665.583 254.398C669.997 254.398 675.215 253.595 681.235 251.99C689.663 249.783 696.285 246.472 701.101 242.057C705.917 237.642 709.529 232.525 711.937 226.706C714.345 220.686 715.85 214.064 716.452 206.84C717.054 199.616 717.355 192.091 717.355 184.265C717.355 175.034 716.452 165.001 714.646 154.165C713.04 143.329 710.131 133.296 705.917 124.065C701.703 114.634 696.084 106.808 689.061 100.587C682.037 94.3663 673.108 91.256 662.272 91.256C660.666 91.256 658.86 91.3563 656.854 91.557C655.048 91.7577 653.141 92.0587 651.135 92.46C642.105 94.266 634.78 97.276 629.162 101.49C623.744 105.503 619.53 110.52 616.52 116.54C613.51 122.359 611.503 128.881 610.5 136.105C609.496 143.329 608.995 150.954 608.995 158.981C608.995 168.212 609.898 178.345 611.704 189.382C613.71 200.419 616.921 210.753 621.336 220.385C625.75 230.017 631.57 238.144 638.794 244.766C646.018 251.187 654.947 254.398 665.583 254.398ZM779.079 89.751H779.38V146.339C780.383 142.928 781.587 139.516 782.992 136.105C784.396 132.493 786.102 128.981 788.109 125.57C790.918 120.754 794.329 116.139 798.343 111.724C802.557 107.309 807.172 103.497 812.189 100.286C817.205 96.8747 822.322 94.266 827.54 92.46C832.958 90.4533 838.275 89.45 843.493 89.45C850.516 89.45 856.937 91.4567 862.757 95.47C868.576 99.4833 873.191 106.105 876.603 115.336C877.807 118.547 878.71 122.861 879.312 128.279C879.914 133.697 880.215 139.918 880.215 146.941V219.783C880.215 231.622 881.318 239.749 883.526 244.164C884.328 246.773 886.034 249.181 888.643 251.388H854.63C858.041 248.378 860.349 244.164 861.553 238.746C861.954 237.743 862.255 236.037 862.456 233.629C862.656 231.221 862.757 226.606 862.757 219.783V149.951C862.757 144.934 862.355 139.416 861.553 133.396C860.951 127.376 859.546 121.858 857.339 116.841C855.332 111.624 852.322 107.309 848.309 103.898C844.295 100.487 838.978 98.781 832.356 98.781C824.329 98.781 816.403 101.49 808.577 106.908C800.751 112.326 794.53 118.948 789.915 126.774C787.105 131.389 784.898 136.306 783.293 141.523C781.687 146.54 780.383 151.356 779.38 155.971V219.783C779.38 228.01 779.681 233.729 780.283 236.94C780.885 240.151 781.487 242.458 782.089 243.863C783.694 247.074 785.5 249.582 787.507 251.388H753.494C757.507 247.375 759.815 242.458 760.417 236.639C761.219 230.82 761.621 225.201 761.621 219.783V156.573C761.621 149.55 761.52 143.73 761.32 139.115C761.32 134.5 761.219 130.787 761.019 127.978C761.019 125.169 760.918 123.062 760.718 121.657C760.718 120.052 760.617 118.848 760.417 118.045C759.012 112.025 756.805 107.711 753.795 105.102C752.39 103.697 750.584 102.694 748.377 102.092L779.079 89.751ZM899.758 239.047C899.758 235.034 901.063 231.723 903.671 229.114C906.481 226.505 909.892 225.201 913.905 225.201C917.919 225.201 921.23 226.505 923.838 229.114C926.447 231.723 927.751 235.034 927.751 239.047C927.751 243.06 926.447 246.472 923.838 249.281C921.23 251.89 917.919 253.194 913.905 253.194C909.892 253.194 906.481 251.89 903.671 249.281C901.063 246.472 899.758 243.06 899.758 239.047Z" fill="#121314"/>
</svg>
