<svg width="211" height="42" viewBox="0 0 211 42" fill="none" xmlns="http://www.w3.org/2000/svg">
<path opacity="0.87" d="M16.8387 0.275808C12.9484 1.04131 9.37828 2.87187 6.5025 5.58025C4.62307 7.35464 3.45821 8.88565 2.34929 11.0151C0.639063 14.3024 0 16.954 0 20.708C0 24.462 0.639063 27.1142 2.34929 30.4009C3.45821 32.5303 4.62307 34.0613 6.5025 35.8357C10.4299 39.5523 15.241 41.439 20.766 41.439C24.4494 41.439 27.2119 40.8038 30.2562 39.2909C31.7783 38.5254 33.827 37.2176 33.827 36.9937C33.827 36.9188 32.6803 35.7234 31.2903 34.3414L28.7529 31.8203L27.6251 32.4367C25.5206 33.5947 23.9984 34.0058 21.4988 34.0988C19.6012 34.1736 18.981 34.1362 17.6462 33.7999C11.501 32.2682 7.32894 26.9832 7.32894 20.708C7.32894 13.1999 13.3049 7.26103 20.8597 7.26103C30.8009 7.26103 37.2845 17.3839 33.169 26.4604L32.6425 27.637L35.161 30.1582C36.5328 31.5401 37.7543 32.6607 37.8669 32.6607C38.2801 32.6607 39.9715 29.5231 40.7049 27.3749C41.4188 25.3017 41.7195 23.2846 41.7195 20.7073C41.7195 16.9533 41.0804 14.301 39.3702 11.0144C38.2612 8.88496 37.0964 7.35395 35.217 5.57956C32.3041 2.8157 28.734 1.00387 24.7493 0.257087C22.9084 -0.0979295 18.6237 -0.0792087 16.8387 0.275808ZM91.5181 19.4938V33.2209H96.5921V5.76678H91.5181V19.4938ZM169.958 6.04691C162.949 7.55989 157.95 14.3766 158.796 21.2121C159.228 24.6111 160.449 27.0581 162.911 29.4856C165.261 31.7828 167.309 32.8846 170.447 33.5198C173.887 34.2111 178.171 33.3145 181.028 31.3162L181.553 30.9424L182.587 31.8577C184.484 33.4823 184.26 33.4636 185.425 32.194C187.285 30.1582 187.266 30.3454 185.838 29.0564L184.597 27.9546L185.406 26.5352C188.599 20.9694 187.68 14.4328 183.038 9.87581C180.99 7.84001 178.715 6.62589 175.934 6.04691C174.376 5.71061 171.481 5.71061 169.958 6.04691ZM175.502 10.7904C179.261 11.9484 182.098 15.8327 182.098 19.8114C182.098 20.9507 181.647 22.7438 181.102 23.8081L180.689 24.5924L178.828 22.9865L176.968 21.3806L176.141 22.2958C175.672 22.8187 175.051 23.5287 174.75 23.9205L174.205 24.593L176.01 26.1435L177.794 27.6932L176.948 28.1231C175.802 28.7021 174.148 29.1133 172.983 29.1133C168.154 29.1133 163.869 24.6305 163.869 19.6069C163.869 18.5051 164.301 16.7868 164.903 15.5727C165.466 14.4335 166.988 12.6778 168.135 11.8936C170.203 10.4915 173.115 10.0623 175.502 10.7904ZM48.2961 8.47447V10.8091H56.9409V33.2209H62.203V10.8091H70.8478V6.13982H48.2961V8.47447ZM191.118 19.6804V33.2209H210.1V28.7388H196.192V6.14051H191.118V19.6804ZM146.392 10.0623V12.8636H143.386V16.9727H146.373L146.43 23.3602L146.487 29.7664L146.994 30.7004C148.084 32.755 149.719 33.689 152.219 33.689C153.665 33.689 153.948 33.6328 155.094 33.0725C155.808 32.7175 156.428 32.3257 156.484 32.176C156.541 32.0262 156.391 31.4659 156.165 30.9244C155.921 30.4016 155.62 29.6916 155.489 29.3553L155.245 28.7763L154.53 29.1313C153.704 29.5612 152.951 29.5792 152.237 29.2249C151.26 28.7021 151.204 28.3658 151.129 22.4269L151.072 16.9734H155.789V12.8643H151.091V7.26173H146.392V10.0623ZM78.2698 12.4337C77.1049 12.5273 75.3569 12.8449 74.3235 13.1805C73.5153 13.4232 71.2793 14.3198 71.0534 14.4876C70.959 14.5437 72.5567 18.0918 72.6693 18.0918C72.707 18.0918 73.0447 17.9427 73.4398 17.7368C76.4463 16.2238 80.1296 16.1871 81.821 17.6806C82.3664 18.166 83.0614 19.7726 83.0614 20.5943C83.0614 21.2481 83.0236 21.3036 82.6481 21.192C79.9604 20.4452 76.8602 20.2392 74.9808 20.6879C72.6693 21.2481 70.6961 22.7424 69.7753 24.6097C69.3243 25.5062 69.2488 25.88 69.2488 27.2432C69.2488 28.569 69.3236 28.9989 69.7375 29.858C70.715 31.875 72.5756 33.1828 75.0934 33.612C77.5741 34.0419 80.0171 33.4997 82.0091 32.0803L83.0614 31.3335V33.2202H87.9473V26.3848C87.9473 19.1194 87.8725 18.2603 86.9706 16.5234C86.4441 15.4964 84.8093 13.9273 83.7004 13.367C82.2915 12.6764 80.0555 12.2847 78.2698 12.4337ZM80.5247 24.0695C81.2574 24.1819 82.1216 24.3497 82.4601 24.4613C83.0614 24.6478 83.0614 24.6665 83.0614 25.862C83.0614 27.2439 82.7978 27.879 81.8587 28.682C79.7542 30.5313 75.7702 30.4564 74.4732 28.5516C73.7215 27.4685 73.9467 25.8807 74.9808 25.0403C76.2967 23.9759 77.8566 23.6958 80.5247 24.0695ZM108.526 12.4906C106.214 12.752 104.129 13.7422 102.512 15.3668C101.084 16.7862 100.257 18.2055 99.7875 20.0728C98.1898 26.2919 101.686 32.1566 107.812 33.5198C111.063 34.2298 115.479 33.2209 117.848 31.2038L118.618 30.55L117.153 29.0932L115.705 27.6363L115.217 27.9726C114.446 28.5142 112.924 29.2242 111.965 29.4856C110.819 29.7845 108.526 29.6541 107.662 29.2242C106.121 28.4961 104.787 26.8334 104.373 25.1339L104.26 24.6298H120.084L120.009 23.9205C119.952 23.5467 119.858 22.6502 119.802 21.9595C119.501 18.4108 117.34 14.7878 114.709 13.4613C113.055 12.621 110.668 12.2472 108.526 12.4906ZM111.646 16.6925C113.243 17.2528 114.352 18.5044 114.935 20.4278L115.179 21.2682H109.748C106.742 21.2682 104.299 21.2308 104.299 21.1933C104.299 20.8571 104.957 19.419 105.408 18.7838C106.741 16.8416 109.466 15.927 111.646 16.6925ZM132.449 12.5086C131.077 12.7139 129.574 13.4052 128.465 14.3766L127.601 15.1421V12.8636H122.527V33.2216H127.582L127.638 26.554C127.695 20.0361 127.714 19.8489 128.108 19.0834C128.898 17.6453 130.551 16.73 132.393 16.73C134.084 16.7113 135.325 17.4587 136.114 18.9336C136.508 19.6623 136.527 19.9238 136.584 26.4416L136.641 33.2216H141.508V26.0679C141.508 20.7267 141.434 18.6909 141.245 17.9996C140.21 14.0778 136.677 11.8922 132.449 12.5086Z" fill="#0D0E10"/>
</svg>
