<svg width="187" height="32" viewBox="0 0 187 32" fill="none" xmlns="http://www.w3.org/2000/svg">
<path d="M14.6944 31.2942C10.7953 31.2942 7.05599 29.7613 4.29896 27.0328C1.54193 24.3042 -0.00695801 20.6034 -0.00695801 16.7446V2.19507H9.79392V16.7446C9.79392 18.0309 10.3102 19.2644 11.2292 20.174C12.1482 21.0835 13.3947 21.5945 14.6944 21.5945C15.994 21.5945 17.2405 21.0835 18.1595 20.174C19.0785 19.2644 19.5948 18.0309 19.5948 16.7446V2.19507H29.3957V16.7446C29.3957 20.6034 27.8467 24.3042 25.0898 27.0328C22.3327 29.7613 18.5934 31.2942 14.6944 31.2942Z" fill="#1EC572"/>
<path d="M39.1965 21.5942H14.6943V31.294H39.1965V21.5942Z" fill="#016938"/>
<g opacity="0.6">
<g opacity="0.6">
<path opacity="0.6" d="M14.6944 31.2942C10.7953 31.2942 7.05599 29.7613 4.29896 27.0328C1.54193 24.3042 -0.00695801 20.6034 -0.00695801 16.7446V2.19507H9.79392V16.7446C9.79392 18.0309 10.3102 19.2644 11.2292 20.174C12.1482 21.0835 13.3947 21.5945 14.6944 21.5945C15.994 21.5945 17.2405 21.0835 18.1595 20.174C19.0785 19.2644 19.5948 18.0309 19.5948 16.7446V2.19507H29.3957V16.7446C29.3957 20.6034 27.8467 24.3042 25.0898 27.0328C22.3327 29.7613 18.5934 31.2942 14.6944 31.2942Z" fill="#1EC572"/>
</g>
</g>
<path opacity="0.87" d="M45.009 14.5112H41.828V9.60944H45.009V8.34759C45.009 5.69448 45.7594 3.63994 47.2602 2.18396C48.761 0.727988 50.8001 0 53.3775 0C57.521 0 60.0495 1.82806 60.963 5.48417L56.5585 6.84309C56.0365 5.64595 55.2209 5.04738 54.1116 5.04738C52.7087 5.04738 52.0072 5.9695 52.0072 7.81374V9.60944H57.6352V14.5112H52.0072V31.1579H45.009V14.5112ZM74.7766 20.5778V9.60944H81.8727V31.1579H74.7766V27.8091C73.5042 30.4299 71.2041 31.7403 67.8762 31.7403C65.1357 31.7403 63.1618 30.9476 61.9547 29.3622C60.7475 27.7768 60.1439 25.7061 60.1439 23.15V9.60944H67.1911V21.4514C67.1911 24.6222 68.3982 26.2076 70.8126 26.2076C72.1176 26.2076 73.0964 25.7061 73.7489 24.7031C74.434 23.7 74.7766 22.325 74.7766 20.5778ZM93.9718 20.1895V31.1579H86.9247V9.60944H93.9718V12.9582C94.5591 11.761 95.4726 10.8066 96.7124 10.0948C97.9848 9.38295 99.4366 9.02705 101.068 9.02705C103.808 9.02705 105.799 9.83593 107.038 11.4537C108.278 13.0391 108.898 15.1098 108.898 17.6658V31.1579H101.851V19.3645C101.851 16.1613 100.644 14.5598 98.2295 14.5598C96.8266 14.5598 95.7662 15.0613 95.0485 16.0643C94.3307 17.0673 93.9718 18.4424 93.9718 20.1895ZM129.505 20.6263V20.141C129.505 18.4262 129.049 17.0673 128.135 16.0643C127.254 15.0289 126.08 14.5112 124.612 14.5112C122.98 14.5112 121.741 15.0451 120.892 16.1128C120.077 17.1482 119.669 18.5718 119.669 20.3837C119.669 22.2279 120.077 23.6839 120.892 24.7516C121.741 25.7869 122.98 26.3046 124.612 26.3046C126.08 26.3046 127.254 25.7869 128.135 24.7516C129.049 23.7162 129.505 22.3411 129.505 20.6263ZM129.505 31.1579V27.3238C128.983 28.6504 128.086 29.7181 126.814 30.527C125.541 31.3358 124.008 31.7403 122.214 31.7403C119.114 31.7403 116.716 30.6887 115.02 28.5857C113.356 26.4502 112.524 23.7162 112.524 20.3837C112.524 17.0834 113.356 14.3656 115.02 12.2302C116.716 10.0948 119.114 9.02705 122.214 9.02705C124.008 9.02705 125.541 9.44766 126.814 10.2889C128.086 11.0978 128.983 12.1655 129.505 13.492V0.58239H136.602V31.1579H129.505ZM154.394 22.0338V21.597L150.822 22.325C149.582 22.5838 148.668 22.9073 148.081 23.2956C147.526 23.6515 147.249 24.2177 147.249 24.9942C147.249 25.609 147.478 26.1105 147.934 26.4988C148.391 26.8547 148.995 27.0326 149.745 27.0326C151.083 27.0326 152.192 26.5796 153.073 25.6737C153.954 24.7354 154.394 23.5221 154.394 22.0338ZM161.343 17.4232V25.2854C161.343 26.3532 161.8 26.887 162.714 26.887C163.366 26.887 163.97 26.7576 164.524 26.4988V30.2358C163.219 31.1741 161.686 31.6432 159.924 31.6432C158.619 31.6432 157.51 31.3197 156.596 30.6726C155.716 29.9931 155.112 29.0548 154.786 27.8577C153.546 30.3814 151.115 31.6432 147.494 31.6432C145.308 31.6432 143.579 31.1255 142.306 30.0902C141.034 29.0548 140.398 27.615 140.398 25.7708C140.398 23.8295 141.067 22.3411 142.404 21.3058C143.774 20.2381 145.748 19.4615 148.326 18.9762L154.394 17.9085V17.5202C154.394 15.3525 153.334 14.2686 151.213 14.2686C149.353 14.2686 148.195 15.2877 147.739 17.3261L141.181 16.8408C141.572 14.4465 142.649 12.5537 144.411 11.1625C146.205 9.73886 148.603 9.02705 151.605 9.02705C154.574 9.02705 156.939 9.72268 158.701 11.1139C160.463 12.5052 161.343 14.6083 161.343 17.4232ZM167.488 0.58239H174.535V31.1579H167.488V0.58239ZM179.638 0.58239H186.685V31.1579H179.638V0.58239Z" fill="#0D0E10"/>
</svg>
