<svg width="211" height="43" viewBox="0 0 211 43" fill="none" xmlns="http://www.w3.org/2000/svg">
<path opacity="0.87" d="M17.1668 1.22625C13.2765 1.99175 9.7064 3.8223 6.83062 6.53069C4.95119 8.30508 3.78633 9.83609 2.67741 11.9655C0.967188 15.2529 0.328125 17.9044 0.328125 21.6584C0.328125 25.4124 0.967188 28.0647 2.67741 31.3513C3.78633 33.4807 4.95119 35.0117 6.83062 36.7861C10.758 40.5027 15.5691 42.3894 21.0942 42.3894C24.7775 42.3894 27.54 41.7543 30.5843 40.2413C32.1065 39.4758 34.1551 38.1681 34.1551 37.9441C34.1551 37.8692 33.0084 36.6738 31.6184 35.2919L29.0811 32.7707L27.9533 33.3871C25.8487 34.5451 24.3265 34.9563 21.8269 35.0492C19.9293 35.1241 19.3091 35.0866 17.9744 34.7503C11.8292 33.2186 7.65707 27.9336 7.65707 21.6584C7.65707 14.1504 13.6331 8.21147 21.1879 8.21147C31.129 8.21147 37.6126 18.3343 33.4972 27.4108L32.9707 28.5875L35.4892 31.1086C36.861 32.4906 38.0825 33.6111 38.195 33.6111C38.6083 33.6111 40.2996 30.4735 41.0331 28.3254C41.7469 26.2521 42.0476 24.2351 42.0476 21.6577C42.0476 17.9037 41.4085 15.2515 39.6983 11.9648C38.5894 9.8354 37.4245 8.30439 35.5451 6.53C32.6323 3.76614 29.0622 1.95431 25.0775 1.20753C23.2365 0.85251 18.9518 0.871231 17.1668 1.22625ZM91.8462 20.4443V34.1714H96.9203V6.71721H91.8462V20.4443ZM170.287 6.99734C163.277 8.51033 158.278 15.3271 159.124 22.1625C159.556 25.5615 160.778 28.0085 163.239 30.4361C165.589 32.7333 167.637 33.8351 170.775 34.4702C174.215 35.1615 178.499 34.265 181.356 32.2666L181.881 31.8929L182.915 32.8082C184.812 34.4328 184.588 34.414 185.753 33.1444C187.613 31.1086 187.594 31.2959 186.166 30.0068L184.925 28.905L185.734 27.4857C188.927 21.9198 188.008 15.3832 183.366 10.8263C181.318 8.79045 179.043 7.57633 176.262 6.99734C174.704 6.66105 171.809 6.66105 170.287 6.99734ZM175.831 11.7408C179.589 12.8988 182.426 16.7832 182.426 20.7619C182.426 21.9011 181.975 23.6942 181.43 24.7586L181.017 25.5428L179.156 23.9369L177.296 22.331L176.47 23.2463C176 23.7691 175.379 24.4791 175.078 24.8709L174.534 25.5435L176.338 27.0939L178.122 28.6436L177.276 29.0735C176.13 29.6525 174.476 30.0637 173.311 30.0637C168.482 30.0637 164.197 25.5809 164.197 20.5573C164.197 19.4555 164.629 17.7373 165.231 16.5232C165.794 15.3839 167.316 13.6282 168.463 12.844C170.531 11.442 173.443 11.0128 175.831 11.7408ZM48.6242 9.42491V11.7596H57.269V34.1714H62.5312V11.7596H71.176V7.09026H48.6242V9.42491ZM191.446 20.6308V34.1714H210.428V29.6893H196.52V7.09095H191.446V20.6308ZM146.72 11.0128V13.8141H143.714V17.9231H146.701L146.758 24.3106L146.815 30.7169L147.322 31.6509C148.412 33.7054 150.047 34.6394 152.547 34.6394C153.993 34.6394 154.276 34.5832 155.422 34.023C156.136 33.668 156.756 33.2762 156.812 33.1264C156.869 32.9766 156.719 32.4164 156.493 31.8748C156.249 31.352 155.948 30.642 155.817 30.3057L155.573 29.7267L154.858 30.0817C154.032 30.5116 153.279 30.5297 152.566 30.1753C151.588 29.6525 151.532 29.3162 151.457 23.3773L151.4 17.9238H156.117V13.8148H151.419V8.21217H146.72V11.0128ZM78.5979 13.3842C77.4331 13.4778 75.6851 13.7954 74.6517 14.131C73.8434 14.3736 71.6074 15.2702 71.3815 15.438C71.2871 15.4942 72.8848 19.0422 72.9974 19.0422C73.0351 19.0422 73.3728 18.8932 73.7679 18.6872C76.7744 17.1743 80.4578 17.1375 82.1491 18.6311C82.6945 19.1164 83.3895 20.723 83.3895 21.5447C83.3895 22.1986 83.3517 22.254 82.9763 22.1424C80.2886 21.3956 77.1883 21.1897 75.3089 21.6383C72.9974 22.1986 71.0242 23.6928 70.1034 25.5601C69.6524 26.4567 69.5769 26.8304 69.5769 28.1936C69.5769 29.5194 69.6517 29.9493 70.0657 30.8084C71.0431 32.8255 72.9037 34.1332 75.4215 34.5624C77.9022 34.9923 80.3452 34.4501 82.3372 33.0307L83.3895 32.2839V34.1707H88.2754V27.3352C88.2754 20.0699 88.2006 19.2107 87.2987 17.4738C86.7722 16.4469 85.1375 14.8777 84.0285 14.3175C82.6197 13.6269 80.3837 13.2351 78.5979 13.3842ZM80.8528 25.02C81.5856 25.1323 82.4498 25.3001 82.7882 25.4117C83.3895 25.5983 83.3895 25.617 83.3895 26.8124C83.3895 28.1943 83.1259 28.8295 82.1869 29.6324C80.0823 31.4817 76.0983 31.4068 74.8013 29.5021C74.0497 28.419 74.2748 26.8311 75.3089 25.9907C76.6248 24.9264 78.1847 24.6462 80.8528 25.02ZM108.854 13.441C106.543 13.7024 104.457 14.6926 102.84 16.3172C101.412 17.7366 100.585 19.156 100.116 21.0233C98.5179 27.2423 102.014 33.107 108.14 34.4702C111.391 35.1802 115.808 34.1714 118.176 32.1543L118.946 31.5004L117.481 30.0436L116.033 28.5868L115.545 28.9231C114.774 29.4646 113.252 30.1746 112.293 30.4361C111.147 30.7349 108.854 30.6045 107.99 30.1746C106.449 29.4466 105.115 27.7838 104.701 26.0843L104.588 25.5802H120.412L120.337 24.8709C120.28 24.4972 120.187 23.6006 120.13 22.91C119.829 19.3612 117.668 15.7382 115.037 14.4118C113.383 13.5714 110.996 13.1977 108.854 13.441ZM111.974 17.643C113.572 18.2032 114.68 19.4548 115.263 21.3783L115.508 22.2187H110.076C107.07 22.2187 104.627 22.1812 104.627 22.1438C104.627 21.8075 105.285 20.3694 105.736 19.7343C107.069 17.7921 109.794 16.8775 111.974 17.643ZM132.777 13.4591C131.405 13.6643 129.902 14.3556 128.793 15.3271L127.929 16.0926V13.8141H122.855V34.1721H127.91L127.967 27.5044C128.023 20.9865 128.042 20.7993 128.436 20.0338C129.226 18.5957 130.879 17.6804 132.721 17.6804C134.412 17.6617 135.653 18.4092 136.442 19.884C136.837 20.6128 136.855 20.8742 136.912 27.3921L136.969 34.1721H141.836V27.0183C141.836 21.6771 141.762 19.6413 141.574 18.95C140.538 15.0282 137.005 12.8426 132.777 13.4591Z" fill="#0D0E10"/>
</svg>
