<svg width="151" height="36" viewBox="0 0 151 36" fill="none" xmlns="http://www.w3.org/2000/svg">
<path opacity="0.87" d="M95.2188 11.0207V35.1849H88.1524V31.6559C87.431 32.882 86.3839 33.8881 85.1253 34.5644C83.8229 35.244 82.3691 35.5884 80.8976 35.5659C77.8536 35.5659 75.5787 34.7233 74.0728 33.0383C72.5669 31.3532 71.8155 28.8113 71.8188 25.4124V11.0207H79.0664V25.5562C79.0664 28.479 80.3315 29.9405 82.8617 29.9405C84.366 29.9405 85.5835 29.4326 86.5145 28.4168C87.4454 27.4009 87.91 26.0665 87.9084 24.4134V11.0207H95.2188ZM122.929 0V35.1849H115.768V31.6104C115.026 32.8527 113.944 33.8605 112.647 34.5165C111.234 35.2317 109.667 35.5921 108.081 35.5659C106.101 35.5982 104.158 35.0416 102.5 33.9679C100.828 32.8595 99.5047 31.307 98.6807 29.4877C97.7676 27.571 97.311 25.3709 97.311 22.8872C97.311 20.4036 97.7676 18.2194 98.6807 16.3347C99.5034 14.5474 100.819 13.0274 102.476 11.9503C104.151 10.9028 106.099 10.3655 108.078 10.405C109.63 10.3861 111.163 10.7378 112.548 11.4304C113.838 12.0637 114.921 13.0463 115.672 14.2647V0H122.929ZM114.338 28.2491C115.304 27.0272 115.787 25.2703 115.787 22.9783C115.787 20.7214 115.299 18.982 114.321 17.7602C113.343 16.5383 111.974 15.9266 110.214 15.925C108.418 15.925 107.024 16.5287 106.032 17.7362C105.04 18.9437 104.544 20.6591 104.544 22.8824C104.544 25.1696 105.04 26.9409 106.032 28.1963C107.024 29.4518 108.418 30.0795 110.214 30.0795C111.997 30.0826 113.372 29.4725 114.338 28.2491ZM150.639 11.0207V35.1849H143.476V31.6104C142.734 32.8535 141.65 33.8615 140.352 34.5165C138.94 35.2298 137.373 35.5885 135.788 35.5611C133.81 35.6141 131.861 35.0829 130.188 34.0347C128.515 32.9866 127.194 31.4689 126.393 29.6746C125.48 27.7851 125.023 25.6009 125.023 23.122C125.023 20.6431 125.48 18.4342 126.393 16.4952C127.212 14.6672 128.537 13.1065 130.213 11.9934C131.87 10.924 133.812 10.3708 135.788 10.405C137.379 10.3797 138.95 10.7574 140.352 11.5023C141.646 12.1845 142.727 13.2064 143.476 14.4563V11.0207H150.639ZM142.036 28.2706C143.002 27.0631 143.485 25.3158 143.485 23.0286C143.485 20.7414 143.002 18.9844 142.036 17.7578C141.069 16.5327 139.692 15.921 137.902 15.9226C136.113 15.9242 134.719 16.5607 133.72 17.832C132.728 19.1098 132.231 20.8739 132.23 23.1244C132.228 25.3749 132.717 27.0983 133.696 28.2946C134.674 29.4845 136.076 30.0803 137.902 30.0819C139.695 30.0835 141.073 29.4805 142.036 28.273V28.2706ZM70.3427 35.5251H61.3388L51.6511 24.5691V35.5251H44.3021V0H51.6511V21.5743L60.8991 11.1022H69.7097L59.2442 22.8417L70.3427 35.5251ZM24.1683 35.5371L10.0645 19.4372L17.7663 35.5371H12.4272L4.57081 19.1234L7.83706 35.5371H4.55632L1.28766 19.0994V35.5371H0V0H1.28766V17.729L4.60222 0H7.8733L4.54424 17.8057L12.5528 0H17.8339L9.85672 17.741L24.3422 0H32.619L17.6358 18.3543L32.689 35.5371H24.1683Z" fill="#0D0E10"/>
</svg>
