<svg width="160" height="37" viewBox="0 0 160 37" fill="none" xmlns="http://www.w3.org/2000/svg">
<path opacity="0.87" fill-rule="evenodd" clip-rule="evenodd" d="M53.1275 18.3127C52.2218 19.3208 51.7689 20.5281 51.7689 21.9355C51.7689 23.3429 52.2218 24.5512 53.1275 25.5583C54.0331 26.5664 55.1417 27.0694 56.4553 27.0694C57.794 27.0694 58.9161 26.5664 59.8229 25.5583C60.7286 24.5512 61.1814 23.3429 61.1814 21.9355C61.1814 20.5281 60.7286 19.3219 59.8218 18.3127C58.9161 17.3056 57.794 16.8016 56.4542 16.8016C55.1417 16.8016 54.0331 17.3056 53.1275 18.3127ZM52.0377 14.3518C52.5575 13.5957 53.3513 12.9818 54.4191 12.5078C55.4869 12.0348 56.6645 11.7984 57.9519 11.7984C60.6355 11.7984 62.9436 12.7577 64.8742 14.6754C66.8048 16.5942 67.7701 19.1072 67.7701 22.2145C67.7701 25.2948 66.7902 27.8068 64.8314 29.7525C62.8736 31.6972 60.5403 32.67 57.8295 32.67C56.5954 32.67 55.4597 32.4408 54.4201 31.9814C53.3785 31.5219 52.5711 30.9007 51.9959 30.1166V31.693C51.9986 31.806 51.9781 31.9183 51.9356 32.0232C51.8931 32.128 51.8295 32.2231 51.7486 32.3027C51.6677 32.3823 51.5713 32.4447 51.4653 32.4861C51.3593 32.5275 51.2459 32.5471 51.132 32.5435L47.025 32.5445C46.751 32.5445 46.5335 32.4636 46.3682 32.3018C46.2872 32.2228 46.2234 32.1281 46.1809 32.0235C46.1384 31.9189 46.1182 31.8068 46.1214 31.6941V4.58392C46.1214 4.34019 46.203 4.13795 46.3682 3.97512C46.5324 3.81332 46.751 3.73242 47.025 3.73242H51.1749C51.3935 3.73242 51.5911 3.81332 51.77 3.97512C51.9478 4.13795 52.0377 4.34019 52.0377 4.58392V14.3508V14.3518ZM76.4265 12.0037V22.5101C76.4265 23.848 76.7643 24.9038 77.4389 25.6786C78.1134 26.4554 79.1122 26.8423 80.4362 26.8423C81.733 26.8423 82.737 26.4554 83.4534 25.6786C84.1688 24.9038 84.5275 23.8739 84.5275 22.5899V12.0037C84.5275 11.789 84.6153 11.6023 84.79 11.4416C84.947 11.2887 85.1578 11.2024 85.3778 11.201H89.469C89.7378 11.201 89.9543 11.2881 90.1164 11.4613C90.2768 11.629 90.3643 11.8525 90.3601 12.0836V30.77C90.3633 30.8815 90.3433 30.9924 90.3014 31.0959C90.2595 31.1994 90.1965 31.2932 90.1164 31.3715C89.9543 31.5323 89.7378 31.6132 89.468 31.6132H85.3778C85.1542 31.6198 84.9368 31.5403 84.7712 31.3912C84.6905 31.3178 84.6268 31.2278 84.5848 31.1275C84.5427 31.0272 84.5231 30.919 84.5275 30.8104V29.1292C83.0696 30.8685 81.0972 31.7366 78.6144 31.7366C76.1567 31.7366 74.2051 30.9815 72.7608 29.4694C71.3166 27.9593 70.5939 25.9597 70.5939 23.4726V12.0037C70.5939 11.789 70.688 11.6023 70.8763 11.4416C71.0425 11.29 71.2591 11.2044 71.4849 11.201H75.5354C75.7791 11.201 75.9872 11.2808 76.1629 11.4416C76.245 11.511 76.311 11.5972 76.3565 11.6942C76.402 11.7912 76.4259 11.8967 76.4265 12.0037ZM102.132 11.201C103.911 11.201 105.481 11.4592 106.842 11.9726C108.203 12.487 109.248 13.0917 109.976 13.7855C110.622 14.3145 110.649 14.9264 110.057 15.6203L108.561 17.37C108.075 17.9539 107.429 17.9954 106.62 17.4965C105.03 16.4127 103.534 15.8702 102.133 15.8702C101.377 15.8702 100.763 16.0154 100.292 16.3079C99.8217 16.5993 99.5854 16.9541 99.5854 17.37C99.5854 18.1779 100.338 18.7328 101.85 19.0387L104.962 19.6631C109.032 20.47 111.068 22.5122 111.068 25.7927C111.068 27.7923 110.244 29.4393 108.601 30.7316C106.957 32.0249 104.813 32.67 102.173 32.67C99.2612 32.67 96.7679 31.9191 94.693 30.4194C93.0217 29.2246 92.7383 28.1823 93.8438 27.2934L95.6227 25.8756C96.269 25.3747 96.93 25.4172 97.6035 26.0001C99.1137 27.3629 100.703 28.0433 102.375 28.0433C103.236 28.0433 103.905 27.8763 104.376 27.5434C104.847 27.2084 105.083 26.807 105.083 26.333C105.083 25.8611 104.862 25.4929 104.417 25.2285C103.972 24.965 103.25 24.7358 102.253 24.5408L99.0196 23.8325C97.3745 23.4985 96.0745 22.8192 95.1176 21.7893C94.1606 20.7625 93.6817 19.4411 93.6817 17.8294C93.6817 15.9397 94.4503 14.3622 95.9867 13.0979C97.524 11.8336 99.5707 11.201 102.132 11.201ZM128.722 31.8559V22.0102C128.722 20.5716 128.331 19.4173 127.548 18.5492C126.763 17.6811 125.684 17.2465 124.306 17.2465C122.928 17.2465 121.821 17.6884 120.983 18.5699C120.146 19.4515 119.727 20.5986 119.727 22.0102V31.8559C119.731 31.9678 119.709 32.0791 119.664 32.1815C119.618 32.2839 119.55 32.3747 119.463 32.447C119.289 32.5955 119.066 32.6749 118.836 32.67H114.744C114.631 32.6716 114.518 32.6505 114.414 32.6081C114.309 32.5656 114.214 32.5027 114.134 32.423C114.055 32.3433 113.992 32.2485 113.951 32.1443C113.909 32.0401 113.889 31.9286 113.891 31.8165V4.58704C113.891 4.3433 113.973 4.14106 114.135 3.97615C114.214 3.89622 114.309 3.8334 114.414 3.79163C114.518 3.74986 114.631 3.73005 114.744 3.73346H118.835C119.08 3.73346 119.288 3.80813 119.463 3.95748C119.549 4.02954 119.618 4.11998 119.663 4.22202C119.709 4.32405 119.731 4.43502 119.727 4.54659V14.4784C121.186 12.7152 123.319 11.8336 126.13 11.8336C128.695 11.8336 130.749 12.6468 132.29 14.2751C133.829 15.9034 134.599 17.9518 134.599 20.4223V31.8559C134.603 31.9678 134.581 32.0792 134.536 32.1816C134.49 32.284 134.421 32.3748 134.335 32.447C134.161 32.5956 133.937 32.675 133.708 32.67H129.614C129.384 32.6747 129.16 32.595 128.986 32.446C128.9 32.3737 128.831 32.2831 128.786 32.1809C128.74 32.0787 128.718 31.9676 128.722 31.8559Z" fill="#0D0E10"/>
<mask id="mask0_459_7582" style="mask-type:alpha" maskUnits="userSpaceOnUse" x="137" y="11" width="23" height="22">
<path d="M137.423 11.2012H159.072V32.6702H137.423V11.2012Z" fill="white"/>
</mask>
<g mask="url(#mask0_459_7582)">
<path fill-rule="evenodd" clip-rule="evenodd" d="M144.414 18.3129C143.518 19.3221 143.07 20.5283 143.07 21.9357C143.07 23.3431 143.518 24.5514 144.414 25.5585C145.311 26.5666 146.432 27.0696 147.777 27.0696C149.12 27.0696 150.242 26.5666 151.139 25.5585C152.034 24.5514 152.483 23.3431 152.483 21.9357C152.483 20.5283 152.034 19.3221 151.139 18.3129C150.242 17.3059 149.12 16.8018 147.777 16.8018C146.432 16.8018 145.311 17.3059 144.414 18.3129ZM140.4 29.6698C138.416 27.667 137.423 25.0824 137.423 21.915C137.423 18.7465 138.415 16.1691 140.4 14.182C142.385 12.1948 144.735 11.2012 147.446 11.2012C148.732 11.2012 149.89 11.4594 150.916 11.9728C151.944 12.4872 152.703 13.1469 153.196 13.9527V12.2466C153.196 11.9977 153.285 11.782 153.464 11.6005C153.642 11.421 153.84 11.3308 154.06 11.3308H158.209C158.456 11.3308 158.661 11.421 158.825 11.6005C158.987 11.7766 159.076 12.0079 159.072 12.2466V31.6663C159.075 31.7816 159.055 31.8965 159.013 32.004C158.97 32.1115 158.906 32.2093 158.825 32.2917C158.745 32.3734 158.649 32.4379 158.543 32.4809C158.437 32.5239 158.323 32.5446 158.209 32.5416H154.06C153.84 32.5416 153.642 32.4587 153.464 32.2927C153.377 32.2132 153.308 32.1162 153.262 32.0081C153.216 31.9001 153.194 31.7835 153.197 31.6663V29.9187C152.703 30.7256 151.944 31.3852 150.917 31.8996C149.89 32.413 148.721 32.6702 147.405 32.6702C144.721 32.6702 142.385 31.6694 140.4 29.6687" fill="#19191D"/>
</g>
<mask id="mask1_459_7582" style="mask-type:alpha" maskUnits="userSpaceOnUse" x="5" y="0" width="31" height="21">
<path d="M5.64746 0H35.7674V20.5356H5.64746V0Z" fill="white"/>
</mask>
<g mask="url(#mask1_459_7582)">
<path fill-rule="evenodd" clip-rule="evenodd" d="M33.2867 19.4485L31.5684 20.5354L28.0513 14.2586C27.0881 12.5454 25.6806 11.1188 23.9745 10.1264C22.2685 9.13404 20.3259 8.61201 18.348 8.6144H5.64746L18.0845 0.756926C19.0146 0.170135 20.1177 -0.0870471 21.214 0.0272702C22.3104 0.141588 23.3354 0.620668 24.1221 1.38648L34.1725 11.2083C36.6219 13.601 36.191 17.6138 33.2867 19.4495" fill="#67C462"/>
</g>
<mask id="mask2_459_7582" style="mask-type:alpha" maskUnits="userSpaceOnUse" x="0" y="11" width="33" height="26">
<path d="M0 11.2009H32.9437V36.4038H0V11.2009Z" fill="white"/>
</mask>
<g mask="url(#mask2_459_7582)">
<path fill-rule="evenodd" clip-rule="evenodd" d="M27.9425 36.4038H13.1545C12.4238 36.4005 11.7095 36.1886 11.097 35.7936C10.4844 35.3985 9.99948 34.837 9.7001 34.1759L0.284483 13.7108L0.144341 13.4028C0.0512237 13.2026 0.00204571 12.9851 6.24731e-05 12.7646C-0.00192076 12.5442 0.043336 12.3258 0.132837 12.124C0.143295 12.096 0.157937 12.0721 0.171533 12.0421C0.297549 11.7902 0.491772 11.5782 0.732452 11.4296C0.973131 11.281 1.25076 11.2019 1.53425 11.2009H17.661C20.7315 11.2009 23.5595 12.8873 25.0404 15.6026L28.6025 22.1253L32.3152 28.9197C34.1506 32.2831 31.7452 36.4038 27.9436 36.4038" fill="#74DF70"/>
</g>
</svg>
