<svg width="152" height="36" viewBox="0 0 152 36" fill="none" xmlns="http://www.w3.org/2000/svg">
<path opacity="0.87" d="M95.9094 11.0207V35.1849H88.843V31.6559C88.1216 32.882 87.0745 33.8881 85.8159 34.5644C84.5134 35.244 83.0597 35.5884 81.5881 35.5659C78.5441 35.5659 76.2692 34.7233 74.7633 33.0383C73.2574 31.3532 72.5061 28.8113 72.5093 25.4124V11.0207H79.7569V25.5562C79.7569 28.479 81.022 29.9405 83.5522 29.9405C85.0565 29.9405 86.2741 29.4326 87.205 28.4168C88.1359 27.4009 88.6006 26.0665 88.599 24.4134V11.0207H95.9094ZM123.619 0V35.1849H116.459V31.6104C115.717 32.8527 114.634 33.8605 113.337 34.5165C111.925 35.2317 110.357 35.5921 108.771 35.5659C106.792 35.5982 104.848 35.0416 103.191 33.9679C101.519 32.8595 100.195 31.307 99.3713 29.4877C98.4581 27.571 98.0015 25.3709 98.0015 22.8872C98.0015 20.4036 98.4581 18.2194 99.3713 16.3347C100.194 14.5474 101.51 13.0274 103.167 11.9503C104.841 10.9028 106.789 10.3655 108.769 10.405C110.32 10.3861 111.853 10.7378 113.238 11.4304C114.529 12.0637 115.612 13.0463 116.362 14.2647V0H123.619ZM115.029 28.2491C115.995 27.0272 116.478 25.2703 116.478 22.9783C116.478 20.7214 115.989 18.982 115.012 17.7602C114.034 16.5383 112.665 15.9266 110.905 15.925C109.109 15.925 107.715 16.5287 106.723 17.7362C105.731 18.9437 105.235 20.6591 105.235 22.8824C105.235 25.1696 105.731 26.9409 106.723 28.1963C107.715 29.4518 109.109 30.0795 110.905 30.0795C112.688 30.0826 114.062 29.4725 115.029 28.2491ZM151.329 11.0207V35.1849H144.166V31.6104C143.424 32.8535 142.341 33.8615 141.043 34.5165C139.63 35.2298 138.063 35.5885 136.479 35.5611C134.501 35.6141 132.552 35.0829 130.879 34.0347C129.206 32.9866 127.885 31.4689 127.084 29.6746C126.17 27.7851 125.714 25.6009 125.714 23.122C125.714 20.6431 126.17 18.4342 127.084 16.4952C127.903 14.6672 129.227 13.1065 130.903 11.9934C132.56 10.924 134.502 10.3708 136.479 10.405C138.069 10.3797 139.64 10.7574 141.043 11.5023C142.337 12.1845 143.418 13.2064 144.166 14.4563V11.0207H151.329ZM142.726 28.2706C143.693 27.0631 144.176 25.3158 144.176 23.0286C144.176 20.7414 143.693 18.9844 142.726 17.7578C141.76 16.5327 140.382 15.921 138.593 15.9226C136.803 15.9242 135.41 16.5607 134.411 17.832C133.419 19.1098 132.922 20.8739 132.92 23.1244C132.919 25.3749 133.408 27.0983 134.387 28.2946C135.364 29.4845 136.766 30.0803 138.593 30.0819C140.385 30.0835 141.763 29.4805 142.726 28.273V28.2706ZM71.0332 35.5251H62.0293L52.3417 24.5691V35.5251H44.9926V0H52.3417V21.5743L61.5896 11.1022H70.4003L59.9348 22.8417L71.0332 35.5251ZM24.8588 35.5371L10.755 19.4372L18.4568 35.5371H13.1178L5.26136 19.1234L8.52761 35.5371H5.24687L1.97821 19.0994V35.5371H0.690552V0H1.97821V17.729L5.29277 0H8.56385L5.23479 17.8057L13.2434 0H18.5244L10.5473 17.741L25.0328 0H33.3095L18.3264 18.3543L33.3796 35.5371H24.8588Z" fill="#0D0E10"/>
</svg>
