<svg width="142" height="40" viewBox="0 0 142 40" fill="none" xmlns="http://www.w3.org/2000/svg">
<path opacity="0.87" fill-rule="evenodd" clip-rule="evenodd" d="M119.963 33.4224C119.383 33.2391 118.878 33.0268 118.45 32.7851L116.432 38.1488C117.334 38.5488 118.27 38.8696 119.228 39.1075C120.206 39.3493 121.276 39.4701 122.438 39.4701C124.272 39.4701 125.869 39.0897 127.23 38.3322C128.592 37.5746 129.669 36.2684 130.462 34.421L141.652 8.14099H133.399L128.905 21.0962L124.367 8.14099H115.653L125.146 29.3718L123.863 32.2405C123.615 32.7858 123.316 33.1621 122.966 33.3744C122.615 33.5872 122.151 33.693 121.568 33.693C121.081 33.693 120.545 33.6051 119.963 33.4224ZM107.135 20.3937C107.592 20.3497 108.054 20.3092 108.511 20.2804V24.4182C108.113 24.721 107.673 24.9661 107.205 25.1461C106.729 25.3288 106.205 25.4167 105.622 25.4167C104.829 25.4167 104.21 25.2155 103.766 24.8055C103.324 24.3962 103.099 23.8729 103.099 23.2362C103.099 22.6291 103.298 22.077 103.696 21.5756C104.095 21.0777 104.766 20.7487 105.714 20.5983C106.185 20.5092 106.658 20.441 107.135 20.3937ZM109.016 28.6006L109.658 30.3306H116.399V16.3252C116.399 13.3543 115.528 11.1628 113.783 9.75422C112.042 8.34153 109.703 7.63896 106.77 7.63896C104.66 7.63896 102.848 7.9432 101.336 8.55031C99.8352 9.14684 98.448 9.99193 97.2331 11.0495L100.808 15.0046C101.502 14.4546 102.264 13.9957 103.077 13.6393C103.867 13.305 104.719 13.1358 105.578 13.1421C106.372 13.1421 107.061 13.3543 107.64 13.7787C108.22 14.2031 108.511 14.8686 108.511 15.78V16.3252C107.738 16.3607 106.965 16.4131 106.194 16.4825C105.282 16.5675 104.373 16.682 103.468 16.8259C102.433 16.9667 101.418 17.226 100.443 17.5985C99.4942 17.9604 98.6604 18.4323 97.9416 19.0064C97.2311 19.5733 96.6532 20.2863 96.2477 21.0962C95.8349 21.9156 95.6279 22.8743 95.6279 23.9642C95.6279 25.0253 95.8086 25.9655 96.1777 26.7813C96.5325 27.5862 97.0556 28.3072 97.7123 28.8966C98.3695 29.4893 99.1438 29.9357 100.03 30.2392C100.915 30.5387 101.878 30.6925 102.918 30.6925C104.294 30.6925 105.5 30.4879 106.541 30.0778C107.578 29.672 108.404 29.1782 109.016 28.5999V28.6006ZM59.9673 2.53487L69.8842 30.3299H75.9825L79.4652 18.6877L82.9963 30.3299H89.139L97.0745 8.1403H88.8654L85.5635 19.9171L82.1251 8.13962H76.8973L73.459 19.9177L67.7263 2.53556H59.9673V2.53487ZM45.7638 8.13962V13.6867H48.9286V23.4182C48.9286 24.5377 49.0436 25.5513 49.2721 26.4627C49.5006 27.3733 49.8919 28.1453 50.4424 28.7819C50.9916 29.4185 51.7181 29.913 52.6183 30.2605C53.5221 30.608 54.6294 30.7838 55.9424 30.7838C57.5034 30.7838 58.8718 30.6005 60.0491 30.2386C61.2256 29.8725 62.3177 29.3457 63.3247 28.6466L61.2623 23.8248C60.8408 24.1435 60.3871 24.4181 59.9085 24.6441C59.4173 24.8842 58.8771 25.0095 58.3295 25.0102C57.7464 25.0102 57.3739 24.7979 57.2042 24.3735C57.038 23.9491 56.9535 23.3564 56.9535 22.5989V13.6874H62.3357L60.3551 8.1403H56.9535V2.54655H48.9293V8.1403H45.7638V8.13962ZM37.3525 13.7086C37.9792 14.3886 38.3372 15.3226 38.4293 16.5072H31.4605C31.5824 15.3548 31.9882 14.4291 32.6745 13.7306C33.3642 13.0356 34.1648 12.684 35.0831 12.684C35.9688 12.684 36.725 13.0274 37.3525 13.7086ZM32.7223 23.8502C31.9107 23.1078 31.4757 22.0687 31.4127 20.7329H45.9487C45.9189 16.2772 44.9189 12.9807 42.9452 10.8434C40.975 8.70758 38.3227 7.63896 34.991 7.63896C33.3719 7.63896 31.8663 7.89513 30.4758 8.41089C29.0845 8.92666 27.8857 9.68417 26.8747 10.6862C25.8636 11.6854 25.0706 12.9038 24.4917 14.3453C23.9086 15.7868 23.6205 17.4289 23.6205 19.2804C23.6205 21.1903 23.9231 22.8626 24.5353 24.3042C25.1482 25.7416 25.9744 26.9414 27.0145 27.8932C28.0512 28.852 29.2652 29.5724 30.66 30.0552C32.0505 30.5387 33.5374 30.7832 35.1274 30.7832C36.4411 30.7832 37.6253 30.6774 38.68 30.4652C39.7354 30.253 40.6689 29.9494 41.4771 29.5545C42.2442 29.1888 42.968 28.7397 43.635 28.2153C44.2624 27.714 44.8192 27.1611 45.3102 26.554L40.403 22.7342C39.7867 23.4917 39.1232 24.0555 38.4072 24.4168C37.6876 24.7835 36.8248 24.9628 35.8171 24.9628C34.5637 24.9628 33.5305 24.5933 32.7216 23.8502H32.7223ZM9.0624 24.8975C8.74107 24.8495 8.40935 24.7842 8.07348 24.6888V13.9579C8.44259 13.8371 8.80755 13.7382 9.17666 13.6654C9.56864 13.5865 9.96784 13.5483 10.3678 13.5514C11.6517 13.5514 12.7147 14.0053 13.5555 14.9126C14.3934 15.8239 14.8138 17.2325 14.8138 19.1424C14.8138 21.1141 14.3858 22.5776 13.5298 23.5329C12.6739 24.4875 11.5596 24.9628 10.1836 24.9628C9.75561 24.9628 9.38303 24.9408 9.0617 24.8975H9.0624ZM10.025 7.79692C9.36511 7.89709 8.71304 8.04258 8.07348 8.23233V0H0.0527344V29.0092C1.42531 29.5257 2.92322 29.957 4.54302 30.3052C6.16629 30.6561 7.98484 30.8319 9.99937 30.8319C11.8325 30.8319 13.5222 30.5867 15.0686 30.1039C16.6102 29.617 17.9495 28.8815 19.0783 27.8939C20.2112 26.9132 21.0894 25.6619 21.7168 24.1441C22.3435 22.6291 22.6572 20.8401 22.6572 18.7805C22.6572 17.2325 22.4287 15.78 21.9675 14.4153C21.5104 13.0507 20.8456 11.8688 19.9751 10.8668C19.1046 9.86753 18.0236 9.07775 16.7397 8.50292C15.4557 7.92878 14.0056 7.63965 12.3865 7.63965C11.4973 7.63965 10.7106 7.69047 10.025 7.79692Z" fill="#0D0E10"/>
</svg>
