<svg width="23" height="26" viewBox="0 0 23 26" fill="none" xmlns="http://www.w3.org/2000/svg">
<path fill-rule="evenodd" clip-rule="evenodd" d="M17.0205 1.5182C15.4335 0.506077 13.5821 6.87994e-06 11.4662 6.87994e-06C9.41056 -0.00225434 7.57735 0.552879 5.96658 1.6654C4.35582 2.77023 3.10307 4.32391 2.20833 6.32645C1.31359 8.32899 0.866211 10.6221 0.866211 13.2058C0.867745 15.8735 1.30515 18.1669 2.17842 20.0858C3.05974 22.0042 4.29407 23.4695 5.88145 24.4816C7.46882 25.4937 9.32043 25.9998 11.4363 25.9998C11.4713 25.9998 11.5062 25.9997 11.541 25.9994C12.0112 26.0055 12.4809 25.9708 12.9446 25.8958C14.3997 25.6876 15.7301 25.1672 16.9359 24.3344C18.5398 23.23 19.7908 21.6763 20.689 19.6733C21.5872 17.6703 22.0363 15.3772 22.0363 12.794C22.0363 10.128 21.5922 7.83242 20.7189 5.914C19.8457 3.99558 18.6077 2.53032 17.0205 1.5182ZM16.5028 18.9042L16.5074 18.8823C16.4709 18.3284 16.3932 17.7755 16.2738 17.2282C15.7595 14.872 14.4992 12.7467 12.6818 11.1708H12.7354L12.761 11.1865C14.3888 12.1419 15.7397 13.5084 16.6798 15.1503C16.7784 15.3225 16.8722 15.4972 16.961 15.674C16.9776 15.4662 16.9923 15.2561 17.005 15.0435C16.1217 13.4796 14.8766 12.151 13.374 11.1709H13.4767C13.5185 11.1699 13.5584 11.1531 13.5884 11.1237C15.0453 11.8484 16.188 12.8864 17.053 13.9202C17.0616 13.5949 17.0659 13.2645 17.0659 12.929C17.0659 10.4805 16.813 8.32673 16.3071 6.46756C15.8013 4.60838 15.1109 3.17046 14.2361 2.15382C13.3629 1.1417 12.3997 0.635644 11.3465 0.635644C10.2483 0.635644 9.27557 1.15934 8.43682 2.20673C7.59807 3.25413 6.95952 4.71669 6.51023 6.60255C6.06094 8.48841 5.83657 10.6456 5.83657 13.0708C5.83657 13.4457 5.84251 13.8137 5.85438 14.1748C6.74093 13.0593 7.94792 11.9082 9.5256 11.1238C9.55554 11.1531 9.59544 11.17 9.63725 11.1709H10.0392C10.0845 11.5773 10.1068 11.986 10.1062 12.3949C10.1131 14.2472 9.64396 16.0699 8.74417 17.6866C8.22137 18.6259 7.56348 19.4772 6.79518 20.2146C6.83232 20.3326 6.8703 20.4486 6.9091 20.5627C7.75042 19.7785 8.46828 18.8642 9.03341 17.8502C9.96216 16.1838 10.447 14.3047 10.4409 12.3948C10.4407 11.9859 10.4187 11.5773 10.375 11.1708H11.4916C12.4697 12.8365 12.9852 14.7353 12.9844 16.6694C12.9848 18.2325 12.6478 19.777 11.9967 21.1966C11.3989 22.4998 10.5494 23.6692 9.49886 24.6375C9.72122 24.8053 9.94864 24.9441 10.1811 25.0538C11.8352 23.3503 12.9422 21.177 13.3439 18.8168C13.7992 16.1422 13.3208 13.3917 11.9897 11.0305H12.2878C13.6205 12.0988 14.6958 13.4555 15.4334 14.9995C16.0208 16.2289 16.382 17.5517 16.5028 18.9042ZM13.4448 10.8342L13.4648 10.6334H9.64857L9.66867 10.8342H13.4448ZM13.736 7.87903L13.4971 10.299C13.4904 10.2979 13.4836 10.2979 13.477 10.299H9.63501C9.62874 10.2979 9.6223 10.2979 9.61602 10.299L9.37709 7.87903H9.79132C9.87695 8.2857 10.099 8.65045 10.4204 8.91219C10.7418 9.17394 11.1429 9.31677 11.5565 9.31677C11.9702 9.31677 12.3713 9.17394 12.6927 8.91219C13.014 8.65045 13.2361 8.2857 13.3218 7.87903H13.736Z" fill="#EF4A4A"/>
</svg>
