<svg width="132" height="30" viewBox="0 0 132 30" fill="none" xmlns="http://www.w3.org/2000/svg">
<path d="M2.04 5H16.8V8.39H6.09V13.73H14.1V17H6.09V26H2.04V5ZM26.7865 8.39H25.7065L19.5265 26H15.3565L22.8865 5H29.5765L37.1065 26H32.9365L26.7865 8.39ZM19.9165 17.78H32.1565V21.17H19.9165V17.78ZM42.2749 20.06C42.3749 20.62 42.5949 21.11 42.9349 21.53C43.2749 21.95 43.7149 22.28 44.2549 22.52C44.8149 22.74 45.4549 22.85 46.1749 22.85C47.3549 22.85 48.2349 22.59 48.8149 22.07C49.3949 21.53 49.6849 20.88 49.6849 20.12C49.6849 19.52 49.5049 19.02 49.1449 18.62C48.7849 18.22 48.2749 17.88 47.6149 17.6C46.9749 17.32 46.2249 17.05 45.3649 16.79C44.5649 16.55 43.7649 16.29 42.9649 16.01C42.1849 15.73 41.4749 15.38 40.8349 14.96C40.2149 14.54 39.7149 14 39.3349 13.34C38.9749 12.66 38.7949 11.81 38.7949 10.79C38.7949 9.51 39.1049 8.42 39.7249 7.52C40.3649 6.62 41.2349 5.94 42.3349 5.48C43.4349 5.02 44.7049 4.79 46.1449 4.79C47.3649 4.79 48.4649 4.97 49.4449 5.33C50.4249 5.67 51.2449 6.18 51.9049 6.86C52.5849 7.52 53.0849 8.34 53.4049 9.32L49.6549 10.34C49.5549 9.9 49.3349 9.52 48.9949 9.2C48.6549 8.88 48.2349 8.63 47.7349 8.45C47.2549 8.25 46.7449 8.15 46.2049 8.15C45.6049 8.13 45.0549 8.22 44.5549 8.42C44.0549 8.62 43.6549 8.91 43.3549 9.29C43.0549 9.67 42.9049 10.11 42.9049 10.61C42.9049 11.17 43.0749 11.62 43.4149 11.96C43.7549 12.28 44.2049 12.56 44.7649 12.8C45.3249 13.02 45.9549 13.24 46.6549 13.46C47.4749 13.7 48.3049 13.98 49.1449 14.3C50.0049 14.6 50.7849 14.99 51.4849 15.47C52.1849 15.93 52.7449 16.52 53.1649 17.24C53.6049 17.96 53.8249 18.87 53.8249 19.97C53.8249 21.13 53.5449 22.18 52.9849 23.12C52.4449 24.06 51.6249 24.81 50.5249 25.37C49.4249 25.93 48.0449 26.21 46.3849 26.21C45.0249 26.21 43.7849 26.01 42.6649 25.61C41.5649 25.21 40.6549 24.63 39.9349 23.87C39.2149 23.09 38.7449 22.17 38.5249 21.11L42.2749 20.06ZM57.0595 5H61.1095V13.67H70.4095V5H74.4595V26H70.4095V17.06H61.1095V26H57.0595V5ZM78.5341 5H82.5841V26H78.5341V5Z" fill="white"/>
<path fill-rule="evenodd" clip-rule="evenodd" d="M103.021 3.5182C101.434 2.50608 99.5826 2.00001 97.4667 2.00001C95.411 1.99775 93.5778 2.55288 91.9671 3.6654C90.3563 4.77023 89.1036 6.32391 88.2088 8.32645C87.3141 10.329 86.8667 12.6221 86.8667 15.2058C86.8682 17.8735 87.3056 20.1669 88.1789 22.0858C89.0602 24.0042 90.2946 25.4695 91.8819 26.4816C93.4693 27.4937 95.3209 27.9998 97.4368 27.9998C97.472 27.9998 97.5071 27.9997 97.5421 27.9994C98.015 28.0056 98.4873 27.9704 98.9535 27.8945C100.405 27.6856 101.733 27.1656 102.936 26.3344C104.54 25.23 105.791 23.6763 106.689 21.6733C107.588 19.6703 108.037 17.3772 108.037 14.794C108.037 12.128 107.593 9.83242 106.719 7.914C105.846 5.99558 104.608 4.53032 103.021 3.5182ZM102.504 20.9009L102.506 20.8894C102.47 20.3332 102.392 19.778 102.272 19.2284C101.758 16.8722 100.498 14.747 98.6803 13.171H98.7339L98.7596 13.1867C100.387 14.1422 101.738 15.5086 102.678 17.1505C102.778 17.3238 102.872 17.4996 102.961 17.6775C102.978 17.468 102.993 17.2561 103.006 17.0417C102.122 15.4785 100.878 14.1506 99.3756 13.1708H99.4783C99.5202 13.1699 99.5601 13.1531 99.59 13.1237C101.046 13.8481 102.189 14.8855 103.054 15.9189C103.062 15.594 103.066 15.264 103.066 14.929C103.066 12.4805 102.813 10.3267 102.308 8.46756C101.802 6.60838 101.111 5.17046 100.237 4.15382C99.3634 3.1417 98.4002 2.63564 97.347 2.63564C96.2488 2.63564 95.2761 3.15934 94.4373 4.20673C93.5986 5.25413 92.96 6.71669 92.5107 8.60255C92.0614 10.4884 91.8371 12.6456 91.8371 15.0708C91.8371 15.4448 91.843 15.8121 91.8548 16.1724C92.7412 15.0576 93.9476 13.9076 95.5241 13.1237C95.5541 13.1531 95.594 13.1699 95.6358 13.1708H96.0377C96.083 13.5773 96.1054 13.9859 96.1047 14.3949C96.1116 16.2472 95.6425 18.0699 94.7427 19.6865C94.2202 20.6252 93.5629 21.476 92.7952 22.2131C92.8326 22.3319 92.8708 22.4487 92.9099 22.5636C93.7516 21.7793 94.4697 20.8647 95.035 19.8505C95.9637 18.1841 96.4485 16.3049 96.4425 14.395C96.4423 13.9861 96.4203 13.5776 96.3766 13.171H97.4931C98.4713 14.8367 98.9868 16.7356 98.9859 18.6696C98.9864 20.2327 98.6494 21.7773 97.9982 23.1968C97.4004 24.5002 96.5508 25.6697 95.5001 26.6381C95.7224 26.8058 95.9498 26.9445 96.1823 27.0541C97.8365 25.3506 98.9437 23.1772 99.3454 20.8168C99.8006 18.1422 99.3223 15.3917 97.9912 13.0305H98.2893C99.622 14.0988 100.697 15.4555 101.435 16.9995C102.022 18.2279 102.383 19.5496 102.504 20.9009ZM99.4452 12.8342L99.4653 12.6334H95.6491L95.6692 12.8342H99.4452ZM99.7345 9.87903L99.4956 12.299C99.4889 12.2979 99.4822 12.2979 99.4755 12.299H95.6335C95.6273 12.2979 95.6208 12.2979 95.6146 12.299L95.3756 9.87903H95.7899C95.8755 10.2857 96.0976 10.6505 96.4189 10.9122C96.7403 11.1739 97.1414 11.3168 97.5551 11.3168C97.9687 11.3168 98.3699 11.1739 98.6912 10.9122C99.0126 10.6505 99.2347 10.2857 99.3203 9.87903H99.7345Z" fill="#EF4A4A"/>
<path d="M129.444 5V26H125.334L116.124 11.42V26H112.074V5H116.184L125.394 19.58V5H129.444Z" fill="white"/>
</svg>
