<svg width="132" height="30" viewBox="0 0 132 30" fill="none" xmlns="http://www.w3.org/2000/svg">
<path d="M2.04 5H16.8V8.39H6.09V13.73H14.1V17H6.09V26H2.04V5ZM26.7865 8.39H25.7065L19.5265 26H15.3565L22.8865 5H29.5765L37.1065 26H32.9365L26.7865 8.39ZM19.9165 17.78H32.1565V21.17H19.9165V17.78ZM42.2749 20.06C42.3749 20.62 42.5949 21.11 42.9349 21.53C43.2749 21.95 43.7149 22.28 44.2549 22.52C44.8149 22.74 45.4549 22.85 46.1749 22.85C47.3549 22.85 48.2349 22.59 48.8149 22.07C49.3949 21.53 49.6849 20.88 49.6849 20.12C49.6849 19.52 49.5049 19.02 49.1449 18.62C48.7849 18.22 48.2749 17.88 47.6149 17.6C46.9749 17.32 46.2249 17.05 45.3649 16.79C44.5649 16.55 43.7649 16.29 42.9649 16.01C42.1849 15.73 41.4749 15.38 40.8349 14.96C40.2149 14.54 39.7149 14 39.3349 13.34C38.9749 12.66 38.7949 11.81 38.7949 10.79C38.7949 9.51 39.1049 8.42 39.7249 7.52C40.3649 6.62 41.2349 5.94 42.3349 5.48C43.4349 5.02 44.7049 4.79 46.1449 4.79C47.3649 4.79 48.4649 4.97 49.4449 5.33C50.4249 5.67 51.2449 6.18 51.9049 6.86C52.5849 7.52 53.0849 8.34 53.4049 9.32L49.6549 10.34C49.5549 9.9 49.3349 9.52 48.9949 9.2C48.6549 8.88 48.2349 8.63 47.7349 8.45C47.2549 8.25 46.7449 8.15 46.2049 8.15C45.6049 8.13 45.0549 8.22 44.5549 8.42C44.0549 8.62 43.6549 8.91 43.3549 9.29C43.0549 9.67 42.9049 10.11 42.9049 10.61C42.9049 11.17 43.0749 11.62 43.4149 11.96C43.7549 12.28 44.2049 12.56 44.7649 12.8C45.3249 13.02 45.9549 13.24 46.6549 13.46C47.4749 13.7 48.3049 13.98 49.1449 14.3C50.0049 14.6 50.7849 14.99 51.4849 15.47C52.1849 15.93 52.7449 16.52 53.1649 17.24C53.6049 17.96 53.8249 18.87 53.8249 19.97C53.8249 21.13 53.5449 22.18 52.9849 23.12C52.4449 24.06 51.6249 24.81 50.5249 25.37C49.4249 25.93 48.0449 26.21 46.3849 26.21C45.0249 26.21 43.7849 26.01 42.6649 25.61C41.5649 25.21 40.6549 24.63 39.9349 23.87C39.2149 23.09 38.7449 22.17 38.5249 21.11L42.2749 20.06ZM57.0595 5H61.1095V13.67H70.4095V5H74.4595V26H70.4095V17.06H61.1095V26H57.0595V5ZM78.5341 5H82.5841V26H78.5341V5Z" fill="#0D0E10"/>
<path fill-rule="evenodd" clip-rule="evenodd" d="M103.02 3.5182C101.433 2.50608 99.5821 2.00001 97.4662 2.00001C95.4106 1.99775 93.5774 2.55288 91.9666 3.6654C90.3558 4.77023 89.1031 6.32391 88.2083 8.32645C87.3136 10.329 86.8662 12.6221 86.8662 15.2058C86.8677 17.8735 87.3052 20.1669 88.1784 22.0858C89.0597 24.0042 90.2941 25.4695 91.8814 26.4816C93.4688 27.4937 95.3204 27.9998 97.4363 27.9998C97.4713 27.9998 97.5062 27.9997 97.541 27.9994C98.0112 28.0055 98.4809 27.9708 98.9446 27.8958C100.4 27.6876 101.73 27.1672 102.936 26.3344C104.54 25.23 105.791 23.6763 106.689 21.6733C107.587 19.6703 108.036 17.3772 108.036 14.794C108.036 12.128 107.592 9.83242 106.719 7.914C105.846 5.99558 104.608 4.53032 103.02 3.5182ZM102.503 20.9042L102.507 20.8823C102.471 20.3284 102.393 19.7755 102.274 19.2282C101.759 16.872 100.499 14.7467 98.6818 13.1708H98.7354L98.761 13.1865C100.389 14.1419 101.74 15.5084 102.68 17.1503C102.778 17.3225 102.872 17.4972 102.961 17.674C102.978 17.4662 102.992 17.2561 103.005 17.0435C102.122 15.4796 100.877 14.151 99.374 13.1709H99.4767C99.5185 13.1699 99.5584 13.1531 99.5884 13.1237C101.045 13.8484 102.188 14.8864 103.053 15.9202C103.062 15.5949 103.066 15.2645 103.066 14.929C103.066 12.4805 102.813 10.3267 102.307 8.46756C101.801 6.60838 101.111 5.17046 100.236 4.15382C99.3629 3.1417 98.3997 2.63564 97.3465 2.63564C96.2483 2.63564 95.2756 3.15934 94.4368 4.20673C93.5981 5.25413 92.9595 6.71669 92.5102 8.60255C92.0609 10.4884 91.8366 12.6456 91.8366 15.0708C91.8366 15.4457 91.8425 15.8137 91.8544 16.1748C92.7409 15.0593 93.9479 13.9082 95.5256 13.1238C95.5555 13.1531 95.5954 13.17 95.6372 13.1709H96.0392C96.0845 13.5773 96.1068 13.986 96.1062 14.3949C96.1131 16.2472 95.644 18.0699 94.7442 19.6866C94.2214 20.6259 93.5635 21.4772 92.7952 22.2146C92.8323 22.3326 92.8703 22.4486 92.9091 22.5627C93.7504 21.7785 94.4683 20.8642 95.0334 19.8502C95.9622 18.1838 96.447 16.3047 96.4409 14.3948C96.4407 13.9859 96.4187 13.5773 96.375 13.1708H97.4916C98.4697 14.8365 98.9852 16.7353 98.9844 18.6694C98.9848 20.2325 98.6478 21.777 97.9967 23.1966C97.3989 24.4998 96.5494 25.6692 95.4989 26.6375C95.7212 26.8053 95.9486 26.9441 96.1811 27.0538C97.8352 25.3503 98.9422 23.177 99.3439 20.8168C99.7992 18.1422 99.3208 15.3917 97.9897 13.0305H98.2878C99.6205 14.0988 100.696 15.4555 101.433 16.9995C102.021 18.2289 102.382 19.5517 102.503 20.9042ZM99.4448 12.8342L99.4648 12.6334H95.6486L95.6687 12.8342H99.4448ZM99.736 9.87903L99.4971 12.299C99.4904 12.2979 99.4836 12.2979 99.477 12.299H95.635C95.6287 12.2979 95.6223 12.2979 95.616 12.299L95.3771 9.87903H95.7913C95.8769 10.2857 96.099 10.6505 96.4204 10.9122C96.7418 11.1739 97.1429 11.3168 97.5565 11.3168C97.9702 11.3168 98.3713 11.1739 98.6927 10.9122C99.014 10.6505 99.2361 10.2857 99.3218 9.87903H99.736Z" fill="#EF4A4A"/>
<path d="M129.444 5V26H125.334L116.124 11.42V26H112.074V5H116.184L125.394 19.58V5H129.444Z" fill="#0D0E10"/>
</svg>
