<svg width="56" height="68" viewBox="0 0 56 68" fill="none" xmlns="http://www.w3.org/2000/svg">
<path d="M15.017 28.2209C14.8756 28.1802 11.489 27.1697 5.93096 22.4075C0.18711 17.4862 0.003118 9.35906 -0.00184038 9.0156C-0.00591334 8.73641 0.100514 8.46712 0.294069 8.26709C0.487446 8.06715 0.7521 7.95278 1.02942 7.94966L10.8854 7.83289L10.9098 9.93393L2.1671 10.0376C2.41484 12.2566 3.40085 17.4807 7.28371 20.8076C12.4426 25.2277 15.5646 26.1929 15.5955 26.2021L15.017 28.2209Z" fill="#FCAB28"/>
<path d="M40.1818 28.2203L39.6084 26.2001C39.6343 26.1922 42.7564 25.2269 47.9152 20.8069C51.7977 17.4802 52.7838 12.2568 53.0318 10.0369L44.2891 9.93326L44.3136 7.83221L54.1695 7.94899C54.4468 7.9522 54.7115 8.06648 54.9048 8.26642C55.0983 8.46654 55.2048 8.73574 55.2007 9.01493C55.1958 9.35839 55.0117 17.4855 49.268 22.4069C43.7098 27.1692 40.3233 28.1797 40.1818 28.2203Z" fill="#FCAB28"/>
<path d="M10.5239 7.94889C10.5239 7.94889 9.24842 7.48197 9.24842 6.1979C9.24842 4.91383 9.01653 4.33014 10.1761 3.16276C11.3355 1.99537 20.1093 0.400024 27.1824 0.400024C34.2554 0.400024 43.9182 2.3456 45.0776 3.39621C46.2372 4.44682 45.7733 7.24842 45.5414 7.71543C45.3095 8.18235 44.3819 8.06566 44.3819 8.06566L10.5239 7.94889Z" fill="#FFCF3F"/>
<path d="M26.9676 4.3324C22.6015 4.3324 13.4012 4.91609 10.0386 7.36754C10.0386 7.36754 10.0386 19.9749 13.5171 26.3954C16.9957 32.8158 23.1412 38.0689 23.1412 38.0689H26.2719H27.1995H31.4897C31.4897 38.0689 37.6352 32.8158 41.1137 26.3954C44.5923 19.9749 44.5923 7.36754 44.5923 7.36754C40.8818 4.91609 31.3336 4.3324 26.9676 4.3324Z" fill="#FFD733"/>
<path d="M26.9675 4.3324C22.6015 4.3324 13.4012 4.91609 10.0386 7.36754C10.0386 7.36754 10.0386 19.975 13.5171 26.3954C15.1651 29.4371 17.4111 32.2155 19.3192 34.2988C20.654 34.8693 22.1886 35.2287 23.9529 35.2673C34.6205 35.5007 37.4033 26.3954 38.5628 23.1268C40.3897 17.977 41.4293 9.89102 41.8376 6.13847C37.3552 4.7116 30.4827 4.3324 26.9675 4.3324Z" fill="#FFE266"/>
<path d="M39.2689 53.8255C38.2254 50.6737 36.0223 51.1406 36.0223 51.1406C36.0223 51.1406 36.0186 50.1274 34.4764 49.9821C33.521 49.6861 31.0587 48.7341 30.2247 46.588C29.1811 43.903 29.6449 40.5178 29.6449 40.5178L27.3259 40.2133L25.0069 40.5178C25.0069 40.5178 25.4706 43.9031 24.4271 46.588C23.5929 48.734 21.1307 49.6861 20.1754 49.9821C18.6332 50.1274 18.6295 51.1406 18.6295 51.1406C18.6295 51.1406 16.4264 50.6737 15.3828 53.8255H39.2689Z" fill="#FFCE45"/>
<path d="M18.7002 51.1411C20.1496 51.047 21.599 50.9837 23.0484 50.9517C24.4978 50.9128 25.9471 50.9024 27.3966 50.8976C28.846 50.9019 30.2954 50.9122 31.7448 50.951C33.1943 50.9828 34.6436 51.0465 36.0931 51.1411C34.6436 51.2359 33.1943 51.2994 31.7448 51.3313C30.2954 51.3701 28.846 51.3805 27.3966 51.3847C25.9471 51.3798 24.4978 51.3695 23.0484 51.3306C21.599 51.2985 20.1495 51.2353 18.7002 51.1411Z" fill="#FCAB28"/>
<path d="M31.5323 39.6999H23.2997C22.7874 39.6999 22.3721 39.2817 22.3721 38.766C22.3721 38.2502 22.7873 37.832 23.2997 37.832H31.5323C32.0446 37.832 32.46 38.2501 32.46 38.766C32.46 39.2817 32.0446 39.6999 31.5323 39.6999Z" fill="#FCAB28"/>
<path d="M31.0822 40.88H23.7772C23.3226 40.88 22.9541 40.509 22.9541 40.0513C22.9541 39.5937 23.3226 39.2227 23.7772 39.2227H31.0822C31.5368 39.2227 31.9053 39.5937 31.9053 40.0513C31.9052 40.509 31.5368 40.88 31.0822 40.88Z" fill="#FCAB28"/>
<path d="M15.133 53.7086H40.4373C41.2945 53.7086 41.9893 54.4081 41.9893 55.271V66.0376C41.9893 66.9006 41.2944 67.6 40.4373 67.6H15.133C14.2758 67.6 13.5811 66.9005 13.5811 66.0376V55.271C13.5811 54.4081 14.2759 53.7086 15.133 53.7086Z" fill="#6C554F"/>
<path d="M19.3673 56.1146H36.134C36.531 56.1146 36.8529 56.4386 36.8529 56.8384V62.7218C36.8529 63.1215 36.531 63.4455 36.134 63.4455H19.3673C18.9703 63.4455 18.6484 63.1215 18.6484 62.7218V56.8384C18.6484 56.4387 18.9703 56.1146 19.3673 56.1146Z" fill="#FCAB28"/>
<path d="M21.6955 56.1146H27.4623C27.5989 56.1146 27.7096 56.4386 27.7096 56.8384V62.7218C27.7096 63.1215 27.5989 63.4455 27.4623 63.4455H21.6955C21.5589 63.4455 21.4482 63.1215 21.4482 62.7218V56.8384C21.4482 56.4387 21.5589 56.1146 21.6955 56.1146Z" fill="#FFD733"/>
<path d="M23.1182 38.0667C23.8139 38.0164 24.5096 37.9929 25.2053 37.9734C25.901 37.9511 26.5967 37.948 27.2924 37.9449C27.9881 37.9477 28.6839 37.9509 29.3795 37.973L30.4231 38.007C30.771 38.0272 31.1188 38.0391 31.4667 38.0667C31.1189 38.0943 30.771 38.1062 30.4231 38.1264L29.3795 38.1604C28.6839 38.1825 27.9881 38.1857 27.2924 38.1885C26.5967 38.1854 25.901 38.1823 25.2053 38.16C24.5095 38.1405 23.8138 38.117 23.1182 38.0667Z" fill="#FFE266"/>
<path d="M23.3081 39.4692C24.0167 39.419 24.7253 39.3954 25.4339 39.3759C26.1425 39.3536 26.8511 39.3505 27.5597 39.3475C28.2684 39.3502 28.977 39.3534 29.6856 39.3756L30.7485 39.4096C31.1028 39.4298 31.457 39.4417 31.8114 39.4693C31.457 39.497 31.1028 39.5088 30.7485 39.5291L29.6856 39.563C28.977 39.5851 28.2684 39.5883 27.5597 39.5911C26.8511 39.5881 26.1425 39.5849 25.4339 39.5626C24.7253 39.543 24.0167 39.5194 23.3081 39.4692Z" fill="#FFE266"/>
<path d="M25.1431 41.0235C25.8891 40.9277 26.6352 40.9057 27.3813 40.9017C28.1274 40.9051 28.8735 40.9271 29.6195 41.0235C28.8735 41.1199 28.1274 41.1419 27.3813 41.1453C26.6352 41.1414 25.8891 41.1193 25.1431 41.0235Z" fill="#FFE266"/>
<path d="M15.981 52.6969C17.8877 52.6026 19.7945 52.5394 21.7012 52.5074C23.608 52.4685 25.5148 52.4581 27.4215 52.4532C29.3283 52.4575 31.2351 52.4679 33.1418 52.5066C35.0486 52.5385 36.9554 52.6021 38.8621 52.6969C36.9553 52.7916 35.0486 52.8552 33.1418 52.8871C31.2351 52.9259 29.3283 52.9362 27.4215 52.9405C25.5148 52.9357 23.608 52.9252 21.7012 52.8864C19.7944 52.8542 17.8876 52.791 15.981 52.6969Z" fill="#FCAB28"/>
<g opacity="0.48">
<path d="M21.141 0.71167C19.1931 0.90243 17.3046 1.167 15.6498 1.4682C15.458 7.23274 15.397 16.8653 16.7971 22.1905C18.8842 30.1285 22.5947 34.0975 22.5947 34.0975C22.5947 34.0975 20.2757 22.424 20.5076 12.1513C20.6186 7.23202 20.8892 3.38686 21.141 0.71167Z" fill="#FFFFFD"/>
</g>
<path d="M44.5508 7.36556C43.2664 6.62543 41.8423 6.2021 40.4123 5.87299C38.9795 5.54273 37.525 5.31185 36.0649 5.13188C34.6038 4.95975 33.1379 4.82345 31.6688 4.73556C30.2003 4.64348 28.7287 4.58313 27.259 4.5768C25.79 4.56245 24.3183 4.61317 22.8494 4.69562C21.3797 4.77184 19.9135 4.90377 18.4525 5.07394C16.9929 5.25248 15.5371 5.47516 14.1057 5.80979C12.6783 6.14318 11.2526 6.57488 9.99707 7.36556C10.5983 6.9367 11.2477 6.56107 11.9412 6.29605C12.1131 6.22634 12.2833 6.15084 12.457 6.08586L12.9836 5.90615C13.3331 5.77922 13.6897 5.67822 14.047 5.5782C15.4779 5.18492 16.9375 4.9092 18.4033 4.69678C21.3372 4.27702 24.2971 4.08617 27.2618 4.08965C30.2249 4.12343 33.1824 4.33193 36.1149 4.75633C37.5804 4.97009 39.0382 5.25382 40.4697 5.64265C40.8292 5.73286 41.1814 5.85169 41.5343 5.96561C41.8897 6.07097 42.2348 6.20994 42.5801 6.34508C42.93 6.46809 43.2599 6.64218 43.5949 6.80023C43.7646 6.87511 43.9222 6.9737 44.0791 7.07318L44.5508 7.36556Z" fill="#FCAB28"/>
</svg>
