<svg width="24" height="24" viewBox="0 0 24 24" fill="none" xmlns="http://www.w3.org/2000/svg">
<path d="M8.20986 5.28995C8.11613 5.38291 8.04174 5.49351 7.99097 5.61537C7.9402 5.73723 7.91406 5.86793 7.91406 5.99994C7.91406 6.13196 7.9402 6.26266 7.99097 6.38452C8.04174 6.50638 8.11613 6.61698 8.20986 6.70994L12.7899 11.2899C12.8836 11.3829 12.958 11.4935 13.0088 11.6154C13.0595 11.7372 13.0857 11.8679 13.0857 11.9999C13.0857 12.132 13.0595 12.2627 13.0088 12.3845C12.958 12.5064 12.8836 12.617 12.7899 12.7099L8.20986 17.2899C8.11613 17.3829 8.04174 17.4935 7.99097 17.6154C7.9402 17.7372 7.91406 17.8679 7.91406 17.9999C7.91406 18.132 7.9402 18.2627 7.99097 18.3845C8.04174 18.5064 8.11613 18.617 8.20986 18.7099C8.39722 18.8962 8.65067 19.0007 8.91486 19.0007C9.17905 19.0007 9.4325 18.8962 9.61986 18.7099L14.2099 14.1199C14.7717 13.5574 15.0872 12.7949 15.0872 11.9999C15.0872 11.2049 14.7717 10.4424 14.2099 9.87994L9.61986 5.28995C9.4325 5.10369 9.17905 4.99915 8.91486 4.99915C8.65067 4.99915 8.39722 5.10369 8.20986 5.28995Z" fill="#242D47"/>
</svg>
