<svg width="20" height="20" viewBox="0 0 20 20" fill="none" xmlns="http://www.w3.org/2000/svg">
<path d="M15.5897 6.84171C15.5122 6.76361 15.4201 6.70161 15.3185 6.6593C15.217 6.617 15.1081 6.59521 14.9981 6.59521C14.888 6.59521 14.7791 6.617 14.6776 6.6593C14.576 6.70161 14.4839 6.76361 14.4064 6.84171L10.5897 10.6584C10.5123 10.7365 10.4201 10.7985 10.3185 10.8408C10.217 10.8831 10.1081 10.9049 9.99805 10.9049C9.88804 10.9049 9.77912 10.8831 9.67757 10.8408C9.57602 10.7985 9.48386 10.7365 9.40639 10.6584L5.58972 6.84171C5.51225 6.76361 5.42009 6.70161 5.31854 6.6593C5.21699 6.617 5.10807 6.59521 4.99806 6.59521C4.88805 6.59521 4.77912 6.617 4.67758 6.6593C4.57603 6.70161 4.48386 6.76361 4.40639 6.84171C4.25118 6.99785 4.16406 7.20906 4.16406 7.42921C4.16406 7.64937 4.25118 7.86058 4.40639 8.01671L8.23139 11.8417C8.70014 12.3099 9.33555 12.5728 9.99805 12.5728C10.6606 12.5728 11.296 12.3099 11.7647 11.8417L15.5897 8.01671C15.7449 7.86058 15.832 7.64937 15.832 7.42921C15.832 7.20906 15.7449 6.99785 15.5897 6.84171Z" fill="#677497"/>
</svg>
