<svg width="78" height="32" viewBox="0 0 78 32" fill="none" xmlns="http://www.w3.org/2000/svg">
<path fill-rule="evenodd" clip-rule="evenodd" d="M22.9138 7.77892C22.3196 8.50506 21.3688 9.07779 20.4181 8.99597C20.2993 8.01415 20.7647 6.97097 21.3094 6.32665C21.9036 5.58005 22.9435 5.04823 23.7853 5.00732C23.8843 6.03005 23.4981 7.03233 22.9138 7.77892ZM21.5562 9.70075L21.5562 9.70075C21.1589 9.86184 20.8225 9.99825 20.5666 9.99825C20.2794 9.99825 19.9291 9.85455 19.5358 9.6932C19.0205 9.48177 18.4313 9.24006 17.8134 9.25166C16.3973 9.27212 15.0801 10.1005 14.3571 11.4198C12.8716 14.0585 13.9709 17.9653 15.4069 20.113C16.1101 21.1767 16.9518 22.3426 18.061 22.3017C18.549 22.2827 18.9 22.1288 19.2633 21.9697C19.6815 21.7864 20.116 21.596 20.7944 21.596C21.4493 21.596 21.8647 21.7814 22.2635 21.9594C22.6428 22.1287 23.0069 22.2912 23.5476 22.2812C24.6964 22.2608 25.4193 21.2176 26.1225 20.1539C26.8813 19.0124 27.2147 17.8983 27.2653 17.7292L27.2713 17.7096C27.27 17.7084 27.2607 17.7039 27.2441 17.6961C26.9905 17.5762 25.0517 16.6596 25.0331 14.2017C25.0144 12.1386 26.5709 11.0933 26.8159 10.9288C26.8308 10.9188 26.8409 10.912 26.8454 10.9085C25.8551 9.39484 24.3101 9.23121 23.7753 9.1903C22.9378 9.14052 22.1735 9.45042 21.5562 9.70075L21.5562 9.70075ZM31.7279 22.1688V6.22443H37.5214C40.5122 6.22443 42.6019 8.35171 42.6019 11.4608C42.6019 14.5699 40.4726 16.7176 37.4422 16.7176H34.1245V22.1688H31.7279ZM34.1243 8.3107H36.8874C38.9671 8.3107 40.1555 9.45615 40.1555 11.4709C40.1555 13.4857 38.9671 14.6414 36.8775 14.6414H34.1243V8.3107ZM50.5148 20.2561C49.881 21.5039 48.4846 22.2914 46.9793 22.2914C44.751 22.2914 43.1962 20.9209 43.1962 18.855C43.1962 16.8095 44.7015 15.6334 47.4844 15.4595L50.4752 15.2754V14.3959C50.4752 13.097 49.6532 12.3913 48.1875 12.3913C46.9793 12.3913 46.0979 13.0357 45.9196 14.0175H43.7607C43.83 11.9516 45.7116 10.4482 48.2568 10.4482C51.0001 10.4482 52.7827 11.9311 52.7827 14.2323V22.1686H50.5643V20.2561H50.5148ZM47.6229 20.3994C46.3453 20.3994 45.5332 19.7653 45.5332 18.7937C45.5332 17.7914 46.3156 17.2085 47.811 17.1164L50.4751 16.9426V17.8426C50.4751 19.3357 49.247 20.3994 47.6229 20.3994ZM60.1409 22.7926C59.1803 25.5847 58.081 26.5052 55.7438 26.5052C55.5655 26.5052 54.9713 26.4847 54.8327 26.4438V24.5313C54.9812 24.5517 55.3476 24.5722 55.5358 24.5722C56.5955 24.5722 57.1897 24.112 57.5561 22.9154L57.774 22.2097L53.7136 10.6017H56.2192L59.0416 20.0211H59.0912L61.9136 10.6017H64.3499L60.1409 22.7926Z" fill="#242D47"/>
</svg>
