<svg width="18" height="19" viewBox="0 0 18 19" fill="none" xmlns="http://www.w3.org/2000/svg">
<path d="M13.215 8.56245C12.8925 8.56245 12.6375 8.29995 12.6375 7.98495C12.6375 7.70745 12.36 7.12995 11.895 6.62745C11.4375 6.13995 10.935 5.85495 10.515 5.85495C10.1925 5.85495 9.9375 5.59245 9.9375 5.27745C9.9375 4.96245 10.2 4.69995 10.515 4.69995C11.265 4.69995 12.0525 5.10495 12.7425 5.83245C13.3875 6.51495 13.8 7.36245 13.8 7.97745C13.8 8.29995 13.5375 8.56245 13.215 8.56245Z" fill="white"/>
<path d="M15.9224 8.5625C15.5999 8.5625 15.3449 8.3 15.3449 7.985C15.3449 5.3225 13.1774 3.1625 10.5224 3.1625C10.1999 3.1625 9.94495 2.9 9.94495 2.585C9.94495 2.27 10.1999 2 10.5149 2C13.8149 2 16.4999 4.685 16.4999 7.985C16.4999 8.3 16.2374 8.5625 15.9224 8.5625Z" fill="white"/>
<path d="M8.2875 11.7125L6.9 13.1C6.6075 13.3925 6.1425 13.3925 5.8425 13.1075C5.76 13.025 5.6775 12.95 5.595 12.8675C4.8225 12.0875 4.125 11.27 3.5025 10.415C2.8875 9.56 2.3925 8.705 2.0325 7.8575C1.68 7.0025 1.5 6.185 1.5 5.405C1.5 4.895 1.59 4.4075 1.77 3.9575C1.95 3.5 2.235 3.08 2.6325 2.705C3.1125 2.2325 3.6375 2 4.1925 2C4.4025 2 4.6125 2.045 4.8 2.135C4.995 2.225 5.1675 2.36 5.3025 2.555L7.0425 5.0075C7.1775 5.195 7.275 5.3675 7.3425 5.5325C7.41 5.69 7.4475 5.8475 7.4475 5.99C7.4475 6.17 7.395 6.35 7.29 6.5225C7.1925 6.695 7.05 6.875 6.87 7.055L6.3 7.6475C6.2175 7.73 6.18 7.8275 6.18 7.9475C6.18 8.0075 6.1875 8.06 6.2025 8.12C6.225 8.18 6.2475 8.225 6.2625 8.27C6.3975 8.5175 6.63 8.84 6.96 9.23C7.2975 9.62 7.6575 10.0175 8.0475 10.415C8.1225 10.49 8.205 10.565 8.28 10.64C8.58 10.9325 8.5875 11.4125 8.2875 11.7125Z" fill="white"/>
<path d="M16.4775 14.2475C16.4775 14.4575 16.44 14.675 16.365 14.885C16.3425 14.945 16.32 15.005 16.29 15.065C16.1625 15.335 15.9975 15.59 15.78 15.83C15.4125 16.235 15.0075 16.5275 14.55 16.715C14.5425 16.715 14.535 16.7225 14.5275 16.7225C14.085 16.9025 13.605 17 13.0875 17C12.3225 17 11.505 16.82 10.6425 16.4525C9.77998 16.085 8.91748 15.59 8.06248 14.9675C7.76998 14.75 5.9025 13.1075 5.625 12.875L8.25 10.625C8.46 10.7825 10.05 12.125 10.2075 12.2075C10.245 12.2225 10.29 12.245 10.3425 12.2675C10.4025 12.29 10.4625 12.2975 10.53 12.2975C10.6575 12.2975 10.755 12.2525 10.8375 12.17L11.4075 11.6075C11.595 11.42 11.775 11.2775 11.9475 11.1875C12.12 11.0825 12.2925 11.03 12.48 11.03C12.6225 11.03 12.7725 11.06 12.9375 11.1275C13.1025 11.195 13.275 11.2925 13.4625 11.42L15.945 13.1825C16.14 13.3175 16.275 13.475 16.3575 13.6625C16.4325 13.85 16.4775 14.0375 16.4775 14.2475Z" fill="white"/>
</svg>
