<svg width="14" height="14" viewBox="0 0 14 14" fill="none" xmlns="http://www.w3.org/2000/svg">
<g clip-path="url(#clip0_284_1978)">
<path d="M12.7859 2.7616L5.04722 10.4997C4.99519 10.5519 4.93336 10.5934 4.86527 10.6217C4.79718 10.6499 4.72418 10.6645 4.65046 10.6645C4.57673 10.6645 4.50373 10.6499 4.43564 10.6217C4.36756 10.5934 4.30573 10.5519 4.2537 10.4997L1.26106 7.50425C1.20903 7.45201 1.1472 7.41056 1.07911 7.38228C1.01102 7.354 0.938023 7.33944 0.864296 7.33944C0.79057 7.33944 0.71757 7.354 0.649484 7.38228C0.581397 7.41056 0.519566 7.45201 0.467536 7.50425C0.415301 7.55628 0.373854 7.61811 0.345573 7.68619C0.317293 7.75428 0.302734 7.82728 0.302734 7.90101C0.302734 7.97473 0.317293 8.04773 0.345573 8.11582C0.373854 8.18391 0.415301 8.24574 0.467536 8.29777L3.4613 11.291C3.77711 11.6062 4.20509 11.7832 4.6513 11.7832C5.09751 11.7832 5.52549 11.6062 5.8413 11.291L13.5794 3.55456C13.6315 3.50255 13.6729 3.44075 13.7011 3.37271C13.7294 3.30468 13.7439 3.23174 13.7439 3.15808C13.7439 3.08442 13.7294 3.01149 13.7011 2.94345C13.6729 2.87542 13.6315 2.81362 13.5794 2.7616C13.5274 2.70937 13.4655 2.66792 13.3974 2.63964C13.3293 2.61136 13.2563 2.5968 13.1826 2.5968C13.1089 2.5968 13.0359 2.61136 12.9678 2.63964C12.8997 2.66792 12.8379 2.70937 12.7859 2.7616Z" fill="white"/>
</g>
<defs>
<clipPath id="clip0_284_1978">
<rect width="13.44" height="13.44" fill="white" transform="translate(0.287109 0.280212)"/>
</clipPath>
</defs>
</svg>
