<svg width="14" height="14" viewBox="0 0 14 14" fill="none" xmlns="http://www.w3.org/2000/svg">
<path d="M6.13866 1.18258C6.51352 0.470023 7.53381 0.470024 7.90867 1.18258L9.23262 3.69924C9.3771 3.97388 9.6409 4.16588 9.94666 4.21894L12.747 4.70487C13.5383 4.8422 13.8531 5.80929 13.2941 6.38607L11.31 8.43354C11.0946 8.65574 10.9943 8.96511 11.0382 9.2714L11.443 12.0946C11.5572 12.8908 10.7323 13.4892 10.0109 13.1334L7.46595 11.8784C7.18712 11.7409 6.86021 11.7409 6.58138 11.8784L4.03645 13.1334C3.31501 13.4892 2.49012 12.8908 2.6043 12.0946L3.00912 9.2714C3.05304 8.96511 2.9527 8.65574 2.73737 8.43354L0.7532 6.38607C0.194256 5.80929 0.508999 4.8422 1.30035 4.70487L4.10067 4.21894C4.40643 4.16588 4.67022 3.97388 4.81471 3.69924L6.13866 1.18258Z" fill="#D9D9DF"/>
</svg>
