<svg width="69" height="28" viewBox="0 0 69 28" fill="none" xmlns="http://www.w3.org/2000/svg">
<path fill-rule="evenodd" clip-rule="evenodd" d="M20.5531 22.6346H15.7746L12.1913 8.35815C12.0212 7.70143 11.6601 7.12085 11.1289 6.84722C9.80319 6.15957 8.34239 5.61231 6.74878 5.3363V4.78665H14.4466C15.509 4.78665 16.3058 5.61231 16.4386 6.57121L18.2978 16.8693L23.0739 4.78665H27.7196L20.5531 22.6346ZM30.375 22.6346H25.8621L29.5782 4.78664H34.0911L30.375 22.6346ZM39.9312 9.73105C40.064 8.76977 40.8608 8.22013 41.7904 8.22013C43.2512 8.08212 44.8425 8.35813 46.1705 9.0434L46.9673 5.20066C45.6393 4.65101 44.1785 4.375 42.8528 4.375C38.4727 4.375 35.2855 6.84721 35.2855 10.2783C35.2855 12.8885 37.5431 14.2591 39.1367 15.0847C40.8608 15.908 41.5248 16.4576 41.392 17.2809C41.392 18.5158 40.064 19.0655 38.7383 19.0655C37.1447 19.0655 35.5511 18.6538 34.0926 17.9662L33.2958 21.8113C34.8894 22.4966 36.6135 22.7726 38.2071 22.7726C43.1184 22.9082 46.1705 20.4384 46.1705 16.7313C46.1705 12.0629 39.9312 11.7892 39.9312 9.73105ZM61.9642 22.6346L58.3809 4.78664H54.532C53.7352 4.78664 52.9384 5.33628 52.6728 6.15956L46.0374 22.6346H50.6831L51.6104 20.0268H57.3185L57.8497 22.6346H61.9642ZM55.1949 9.59313L56.5206 16.3197H52.8045L55.1949 9.59313Z" fill="#172B85"/>
</svg>
